<?xml version="1.0" encoding="UTF-8" ?>
<!DOCTYPE svg PUBLIC "-//W3C//DTD SVG 1.1//EN" "http://www.w3.org/Graphics/SVG/1.1/DTD/svg11.dtd">
<svg width="960pt" height="540pt" viewBox="0 0 960 540" version="1.1" xmlns="http://www.w3.org/2000/svg">
<g id="#ffffffff">
<path fill="#ffffff" opacity="1.00" d=" M 506.71 344.55 C 505.84 341.63 507.12 338.95 508.98 336.76 C 510.27 339.76 508.87 342.41 506.71 344.55 Z" />
<path fill="#ffffff" opacity="1.00" d=" M 511.86 351.54 C 509.80 349.70 509.22 347.18 510.26 344.64 C 511.02 346.88 511.51 349.20 511.86 351.54 Z" />
</g>
<g id="#000000ff">
<path fill="#000000" opacity="1.00" d=" M 466.68 75.46 C 464.75 65.58 469.34 57.43 477.10 51.62 C 477.55 54.05 477.92 56.49 478.24 58.94 C 479.75 58.75 481.25 58.55 482.76 58.35 C 483.92 63.13 485.15 68.09 488.97 71.51 C 488.15 61.95 496.97 61.59 501.35 68.65 C 502.67 67.81 503.97 66.94 505.30 66.11 C 505.34 67.66 505.32 69.21 505.32 70.76 C 513.21 67.80 515.97 77.22 519.22 82.33 C 533.47 75.15 530.17 97.76 527.51 105.61 C 526.18 104.64 524.84 103.67 523.49 102.73 C 522.17 106.85 525.62 107.33 528.92 107.46 C 530.12 105.53 531.32 103.60 532.53 101.67 C 537.65 111.14 555.44 104.28 554.54 118.45 C 546.08 113.96 544.89 128.11 545.77 133.81 C 548.40 133.04 552.36 130.37 554.35 133.53 C 559.55 141.69 567.05 150.85 562.98 161.12 C 565.59 160.75 568.20 160.37 570.81 160.01 C 571.30 161.21 571.80 162.41 572.29 163.62 C 576.88 158.49 584.47 161.18 584.50 168.20 C 582.58 168.52 580.67 168.80 578.76 169.12 C 578.80 170.57 578.85 172.03 578.90 173.48 C 578.27 173.43 577.01 173.33 576.38 173.27 C 576.70 174.23 577.11 175.16 577.59 176.06 C 580.82 173.75 584.76 172.95 588.13 175.47 C 586.43 175.50 584.74 175.51 583.06 175.50 C 582.60 176.31 582.16 177.12 581.72 177.94 C 588.09 179.29 590.27 185.23 587.86 190.96 C 586.01 189.93 584.20 188.85 582.39 187.78 C 584.27 190.44 585.50 193.48 586.21 196.67 C 584.53 195.74 582.88 194.78 581.22 193.85 C 580.25 195.13 579.30 196.42 578.35 197.71 C 577.60 197.14 576.86 196.58 576.13 196.02 C 576.31 200.43 574.16 203.79 569.71 204.61 C 576.38 210.79 588.18 211.58 590.93 220.95 C 589.17 220.75 587.42 220.54 585.67 220.36 C 589.74 224.33 595.92 226.49 597.41 232.55 C 596.24 232.05 595.09 231.54 593.93 231.04 C 592.95 235.06 592.13 239.12 590.99 243.10 C 588.15 239.45 584.95 236.03 581.00 233.58 C 581.94 236.16 583.08 238.67 584.11 241.23 C 582.68 239.71 581.31 238.13 579.93 236.57 C 578.57 238.16 577.21 239.76 575.85 241.35 C 574.90 239.31 573.97 237.26 572.98 235.24 C 572.17 237.04 571.40 238.86 570.70 240.71 C 569.10 241.18 567.49 241.61 565.89 242.04 C 558.19 251.79 572.60 251.76 576.35 258.50 C 585.91 256.21 581.02 269.58 588.65 272.12 C 587.72 275.34 586.80 278.56 585.93 281.79 C 584.76 280.41 583.60 279.04 582.41 277.69 C 581.85 279.23 581.31 280.77 580.78 282.32 C 578.40 281.47 575.97 280.75 573.57 279.97 C 571.36 283.46 569.53 287.19 568.46 291.19 C 564.57 289.79 560.74 291.78 559.39 295.66 C 557.47 293.93 555.51 292.26 553.57 290.56 C 551.88 292.96 550.01 295.24 548.03 297.41 C 547.28 295.06 546.67 292.68 545.88 290.37 C 544.24 296.74 548.69 303.10 545.35 309.26 C 544.15 308.18 542.98 307.08 541.80 305.99 C 541.10 307.54 540.47 309.13 539.76 310.68 C 536.99 309.59 534.35 308.16 532.07 306.23 C 531.05 307.82 530.02 309.41 528.99 311.00 C 535.24 310.09 540.51 314.00 546.03 316.19 C 545.37 317.62 544.72 319.05 544.09 320.48 C 543.07 320.31 542.05 320.14 541.04 319.97 C 541.66 320.91 542.29 321.86 542.93 322.81 C 542.23 322.92 540.83 323.15 540.14 323.26 C 540.80 327.02 540.49 330.85 539.51 334.53 C 537.59 332.73 535.71 330.91 533.89 329.02 C 533.64 329.48 533.14 330.41 532.88 330.88 C 537.13 333.63 535.66 342.87 541.60 341.84 C 547.37 340.27 540.99 327.58 547.78 333.25 C 555.97 325.45 564.25 333.00 560.79 342.87 C 559.54 342.31 558.31 341.74 557.07 341.17 C 556.57 343.10 556.05 345.04 555.58 346.98 C 553.87 342.68 551.84 337.14 546.34 340.08 C 557.49 344.30 550.08 354.68 545.74 361.18 C 544.87 360.10 544.00 359.03 543.15 357.96 C 541.99 361.92 538.63 365.72 535.57 360.91 C 534.49 362.13 533.46 363.39 532.41 364.63 C 531.41 362.36 530.38 360.10 529.34 357.86 C 526.86 360.63 524.99 363.88 523.87 367.43 C 522.32 367.12 520.77 366.86 519.22 366.60 C 520.75 368.65 522.27 370.71 523.67 372.85 C 527.81 362.98 535.58 374.06 540.95 377.07 C 547.09 380.73 543.05 387.66 541.65 392.80 C 540.10 391.93 538.54 391.06 536.98 390.22 C 535.61 393.64 534.47 397.16 533.36 400.68 C 532.34 400.64 531.60 400.15 531.13 399.22 C 530.63 400.80 530.11 402.37 529.60 403.95 C 528.29 401.93 526.96 399.91 525.68 397.88 C 524.89 399.23 524.11 400.59 523.34 401.95 C 523.65 398.86 523.73 395.74 523.53 392.64 C 522.42 394.24 521.36 395.88 520.33 397.54 C 519.53 397.02 518.74 396.52 517.95 396.01 C 517.21 394.26 516.54 392.47 515.88 390.70 C 514.69 392.76 513.62 394.89 512.61 397.04 C 512.62 393.94 512.03 390.86 510.56 388.11 C 509.11 389.66 507.66 391.21 506.26 392.81 C 505.55 390.06 504.81 387.32 504.01 384.60 C 494.49 392.45 487.21 402.89 479.65 412.54 C 479.18 441.79 481.12 471.11 481.16 500.37 C 477.31 502.97 472.36 501.79 468.01 502.02 C 466.95 458.86 471.30 415.26 462.79 372.63 C 461.63 374.17 460.49 375.73 459.35 377.29 C 458.18 375.52 457.00 373.77 455.83 372.01 C 454.16 373.80 452.49 375.61 450.69 377.27 C 451.18 374.14 453.01 371.58 455.07 369.29 C 454.00 369.32 452.93 369.35 451.87 369.38 C 452.13 368.31 452.39 367.24 452.66 366.17 C 452.22 365.90 451.36 365.35 450.92 365.07 C 451.31 370.06 450.55 375.03 447.41 379.07 C 445.16 375.42 442.49 371.83 442.01 367.43 C 439.99 368.73 437.93 369.97 435.85 371.16 C 435.53 367.93 436.26 364.77 437.79 361.93 C 436.03 360.75 434.28 359.57 432.50 358.44 C 430.62 349.88 439.90 344.99 447.29 346.86 C 441.82 342.50 436.35 337.86 429.67 335.47 C 429.84 338.13 430.08 340.80 430.35 343.46 C 429.04 341.88 427.73 340.30 426.43 338.72 C 424.00 342.16 424.04 346.33 424.27 350.35 C 422.75 348.18 421.33 345.96 419.95 343.72 C 418.57 347.21 417.28 350.84 417.55 354.67 C 416.72 353.75 415.89 352.85 415.06 351.95 C 414.76 353.32 414.47 354.69 414.21 356.07 C 413.49 355.43 412.78 354.79 412.07 354.15 C 411.18 355.13 410.30 356.12 409.41 357.11 C 408.60 355.63 407.80 354.15 407.00 352.67 C 405.68 353.44 404.36 354.22 403.05 355.00 C 402.18 352.22 401.34 349.43 400.49 346.64 C 396.99 352.07 390.90 349.85 385.72 349.44 C 386.40 344.52 388.12 339.80 391.26 335.91 C 386.31 340.26 380.46 340.35 378.09 333.43 C 377.11 334.31 376.15 335.20 375.18 336.08 C 375.14 335.21 375.07 333.46 375.04 332.59 C 373.49 334.47 371.97 336.38 370.45 338.28 C 368.90 334.14 367.27 330.04 365.78 325.89 C 364.06 327.30 362.33 328.69 360.62 330.11 C 360.91 327.17 360.62 324.23 359.50 321.49 C 359.19 323.04 358.89 324.60 358.62 326.16 C 357.17 324.36 355.67 322.60 354.18 320.84 C 353.64 322.89 353.09 324.94 352.57 327.00 C 350.89 324.66 349.25 322.28 347.67 319.87 C 345.92 322.23 344.19 324.62 342.57 327.09 C 342.80 324.28 342.74 321.46 342.40 318.67 C 340.30 320.55 338.29 322.54 336.19 324.42 C 335.47 320.49 335.26 316.50 335.38 312.51 C 334.62 312.37 333.11 312.10 332.36 311.96 C 335.45 307.23 342.79 307.44 342.39 300.27 C 347.85 295.79 359.44 290.92 363.84 299.99 C 364.04 298.54 364.23 297.09 364.44 295.64 C 363.83 295.60 362.61 295.51 362.00 295.46 C 362.00 293.40 361.99 291.34 361.99 289.28 C 360.82 289.77 359.66 290.28 358.50 290.78 C 357.69 287.93 356.38 285.27 354.73 282.83 C 354.34 281.43 353.97 280.02 353.61 278.62 C 350.57 279.59 347.56 280.64 344.57 281.75 C 345.79 276.13 347.61 261.46 338.78 270.55 C 337.52 267.04 336.41 263.11 333.05 261.04 C 327.24 240.60 359.64 242.54 360.68 224.55 C 358.38 222.28 354.83 221.11 352.04 223.23 C 351.46 222.97 350.88 222.72 350.31 222.47 C 349.78 223.99 349.25 225.51 348.71 227.03 C 347.20 224.59 345.76 222.10 344.34 219.61 C 342.55 220.98 340.75 222.34 338.94 223.67 C 339.31 222.42 339.69 221.18 340.06 219.93 C 330.33 221.37 332.46 206.74 339.42 204.60 C 337.86 197.17 342.42 184.76 351.75 190.82 C 351.11 185.98 350.19 180.97 352.01 176.25 C 350.81 176.36 349.62 176.48 348.44 176.60 C 347.59 175.17 346.78 173.72 345.94 172.28 C 344.98 172.47 344.03 172.64 343.07 172.79 C 342.57 167.46 338.56 159.08 345.90 156.89 C 345.89 156.47 345.87 155.64 345.86 155.22 C 343.79 155.28 341.73 155.35 339.67 155.40 C 341.39 149.02 347.72 151.94 350.88 155.39 C 352.08 148.98 356.74 143.84 363.69 145.34 C 363.30 143.78 362.91 142.23 362.54 140.68 C 365.43 139.89 367.76 138.07 368.71 135.15 C 366.20 135.48 363.71 135.99 361.27 136.69 C 361.81 134.87 362.35 133.06 362.85 131.23 C 358.58 128.48 358.98 122.99 362.01 119.46 C 366.31 120.46 370.71 119.70 372.68 115.32 C 371.36 115.29 370.05 115.27 368.74 115.25 C 368.67 114.10 368.60 112.95 368.53 111.79 C 371.90 112.54 375.35 112.27 378.71 111.61 C 380.38 113.38 382.02 115.17 383.76 116.86 C 374.93 105.33 386.76 88.26 399.52 98.61 C 391.85 89.69 403.38 81.44 402.73 71.75 C 409.54 73.14 416.85 77.13 423.94 79.43 C 424.49 80.38 425.04 81.33 425.61 82.28 C 427.71 80.07 429.61 77.67 431.42 75.22 C 429.68 75.31 427.95 75.42 426.22 75.50 C 436.56 71.02 439.57 58.30 448.88 53.32 C 453.21 57.63 457.00 65.42 463.17 56.94 C 463.77 57.10 464.98 57.42 465.58 57.58 C 467.10 63.44 461.29 71.34 466.68 75.46 M 459.09 62.26 C 456.21 67.12 465.67 62.98 459.09 62.26 M 494.07 77.53 C 495.68 66.97 486.35 71.19 494.07 77.53 M 495.39 69.66 C 495.35 71.08 495.31 72.49 495.27 73.90 C 496.05 73.80 497.60 73.60 498.37 73.49 C 497.38 72.21 496.38 70.93 495.39 69.66 M 414.62 78.31 C 413.95 83.40 419.63 77.96 414.62 78.31 M 513.08 85.21 C 509.09 89.77 518.94 87.13 513.08 85.21 M 517.21 85.00 C 516.21 89.64 521.83 83.98 517.21 85.00 M 520.53 85.55 C 520.65 87.41 520.81 89.28 521.01 91.14 C 522.77 89.84 524.51 88.50 526.27 87.17 C 524.35 86.65 522.43 86.12 520.53 85.55 M 399.68 98.07 C 404.03 98.43 408.39 98.28 412.74 98.49 C 412.81 97.30 412.88 96.11 412.97 94.92 C 413.86 95.64 414.75 96.36 415.63 97.10 C 423.31 97.46 422.22 91.92 416.39 89.03 C 415.85 90.06 415.31 91.10 414.78 92.13 C 411.69 92.47 409.48 94.66 407.55 96.89 C 406.35 94.18 405.15 91.48 403.88 88.81 C 401.36 91.31 399.59 94.42 399.68 98.07 M 533.09 106.02 C 533.14 106.68 533.24 108.01 533.29 108.68 C 534.54 108.70 535.81 108.73 537.08 108.76 C 535.75 107.83 534.42 106.92 533.09 106.02 M 395.71 122.75 C 397.44 122.16 399.16 121.56 400.90 120.98 C 400.55 119.97 400.16 118.98 399.74 118.00 C 398.46 119.64 397.08 121.19 395.71 122.75 M 533.42 126.08 C 532.11 127.97 530.81 129.85 529.51 131.75 C 528.50 130.54 527.50 129.35 526.49 128.16 C 525.37 130.41 524.22 132.65 523.01 134.85 C 522.23 132.51 521.50 130.16 520.78 127.81 C 520.52 128.17 519.98 128.88 519.72 129.23 C 519.01 135.70 518.35 144.72 526.68 146.26 C 519.36 133.29 535.28 134.37 543.54 134.80 C 541.91 135.31 540.54 133.69 538.95 134.23 C 537.68 131.16 535.58 128.55 533.42 126.08 M 382.01 146.20 C 382.34 147.41 382.68 148.63 383.02 149.85 C 384.03 149.63 385.01 149.29 385.95 148.85 C 385.56 147.66 385.18 146.48 384.80 145.30 C 383.86 145.59 382.93 145.89 382.01 146.20 M 399.16 153.26 C 398.63 151.14 398.08 149.03 397.50 146.93 C 390.31 149.29 391.82 153.91 399.16 153.26 M 461.17 150.42 C 462.04 152.02 462.92 153.61 463.80 155.22 C 464.70 154.35 465.62 153.50 466.54 152.64 C 464.74 151.92 462.96 151.15 461.17 150.42 M 540.18 162.44 C 538.06 167.35 545.32 162.22 540.18 162.44 M 567.04 161.56 C 566.62 163.32 566.22 165.09 565.85 166.87 C 567.25 166.56 568.65 166.26 570.06 165.96 C 569.06 164.49 568.05 163.02 567.04 161.56 M 547.18 164.08 C 546.46 166.44 545.74 168.81 545.07 171.19 C 546.75 169.83 548.42 168.45 550.06 167.05 C 549.09 166.06 548.13 165.07 547.18 164.08 M 555.14 166.73 C 554.46 172.24 560.71 165.88 555.14 166.73 M 381.64 172.33 C 381.13 174.58 380.60 176.82 380.05 179.05 C 379.05 178.38 378.06 177.70 377.07 177.02 C 376.53 179.43 376.00 181.84 375.46 184.24 C 374.38 182.86 373.29 181.49 372.25 180.08 C 368.69 181.83 366.62 185.06 367.22 189.09 C 370.80 186.21 375.32 185.41 379.79 185.20 C 380.30 186.35 380.81 187.51 381.33 188.66 C 381.83 188.54 382.83 188.28 383.33 188.16 C 385.13 182.86 383.87 177.39 383.42 172.00 C 382.98 172.09 382.09 172.25 381.64 172.33 M 387.58 182.54 C 388.51 182.56 390.36 182.60 391.29 182.62 C 391.15 180.66 391.09 178.70 391.16 176.74 C 389.96 178.67 388.78 180.60 387.58 182.54 M 364.15 183.09 C 360.57 187.32 369.51 185.06 364.15 183.09 M 537.46 200.71 C 538.10 200.52 539.36 200.15 540.00 199.97 C 539.33 198.61 538.68 197.25 538.07 195.88 C 538.28 197.52 537.79 199.12 537.46 200.71 M 544.20 197.27 C 538.27 200.21 547.17 201.81 544.20 197.27 M 442.11 201.82 C 442.61 204.31 443.25 206.77 444.01 209.20 C 447.40 207.39 448.27 204.43 446.13 201.20 C 444.79 201.43 443.45 201.63 442.11 201.82 M 501.01 228.55 C 499.94 225.64 499.68 221.28 497.28 219.53 C 493.21 222.33 494.37 231.85 501.01 228.55 M 486.14 221.85 C 486.77 224.25 487.47 226.63 488.17 229.02 C 489.71 227.98 491.24 226.94 492.77 225.88 C 492.40 225.32 492.02 224.76 491.66 224.21 C 491.05 225.20 490.44 226.19 489.84 227.18 C 488.62 225.39 487.41 223.59 486.14 221.85 M 484.39 228.35 C 483.20 233.03 483.54 237.89 487.10 241.48 C 490.69 238.67 491.24 234.00 492.21 229.86 C 489.51 230.00 486.84 229.52 484.39 228.35 M 419.17 235.19 C 418.11 239.85 423.77 234.20 419.17 235.19 M 458.37 251.74 C 459.42 258.95 458.10 266.30 456.30 273.28 C 454.51 271.89 452.73 270.50 450.95 269.11 C 450.98 269.76 451.04 271.06 451.07 271.71 C 453.69 273.18 456.29 274.68 458.89 276.16 C 460.43 268.69 461.59 261.05 460.64 253.42 C 459.88 252.85 459.12 252.29 458.37 251.74 M 465.15 278.76 C 469.64 269.49 485.06 276.89 485.11 265.00 C 483.51 267.11 482.06 269.34 480.64 271.59 C 479.48 267.73 478.47 263.83 476.97 260.09 C 475.98 261.01 475.01 261.94 474.03 262.87 C 473.38 260.61 472.70 258.36 471.98 256.13 C 463.32 260.01 467.24 271.30 465.15 278.76 M 375.11 264.39 C 371.64 267.96 379.97 266.52 375.11 264.39 M 350.20 269.35 C 344.67 271.39 353.69 273.44 350.20 269.35 M 378.10 272.90 C 379.51 272.72 380.93 272.56 382.36 272.42 C 383.04 271.30 383.72 270.18 384.40 269.07 C 382.30 270.35 380.20 271.63 378.10 272.90 M 451.63 276.90 C 453.82 280.45 456.65 283.61 460.07 286.02 C 460.05 281.07 455.44 278.82 451.63 276.90 M 445.32 278.77 C 444.67 280.98 443.65 283.05 442.45 285.02 C 451.64 283.75 451.84 300.12 443.37 297.98 C 442.39 300.67 441.34 303.34 440.18 305.96 C 441.98 307.52 443.77 309.09 445.53 310.70 C 446.29 309.53 447.06 308.38 447.84 307.23 C 446.74 306.75 445.66 306.26 444.59 305.78 C 445.77 294.85 457.34 300.68 460.56 307.11 C 461.97 296.35 455.73 287.92 449.24 280.14 C 447.81 280.09 446.48 279.59 445.32 278.77 M 535.89 277.98 C 536.51 281.59 537.66 285.15 539.84 288.13 C 540.05 284.29 538.09 280.95 535.89 277.98 M 374.83 296.36 C 374.87 296.64 374.95 297.20 374.99 297.48 C 376.61 297.16 378.22 296.80 379.85 296.50 C 378.46 293.24 379.22 289.92 381.20 287.09 C 380.84 286.48 380.11 285.26 379.75 284.65 C 376.13 287.55 375.58 292.10 374.83 296.36 M 469.73 294.36 C 470.49 291.86 471.21 289.35 471.75 286.80 C 468.84 288.72 463.35 292.82 469.73 294.36 M 364.57 297.30 C 367.99 296.83 371.41 296.01 374.36 294.14 C 373.03 291.78 371.65 289.44 370.22 287.14 C 366.91 289.61 364.28 292.93 364.57 297.30 M 466.20 296.20 C 466.68 297.54 467.17 298.88 467.67 300.21 C 468.17 298.54 468.68 296.88 469.18 295.21 C 468.18 295.51 467.18 295.84 466.20 296.20 M 429.56 302.96 C 429.39 304.91 429.35 306.87 429.19 308.82 C 426.86 307.75 424.45 306.87 421.98 306.17 C 421.92 308.39 421.93 310.60 421.96 312.82 C 421.03 311.85 420.11 310.88 419.18 309.93 C 416.24 315.82 421.33 320.05 423.77 324.88 C 424.97 326.23 426.28 327.47 427.67 328.64 C 426.83 323.16 433.01 317.03 435.69 324.44 C 434.06 325.14 432.43 325.85 430.82 326.58 C 431.60 327.65 432.38 328.72 433.17 329.79 C 432.81 330.46 432.46 331.14 432.11 331.82 C 441.01 337.08 449.87 342.44 458.99 347.32 C 463.78 341.65 460.46 335.02 456.45 330.12 C 455.75 331.45 455.06 332.79 454.38 334.13 C 448.82 321.93 443.88 307.53 429.56 302.96 M 529.80 317.67 C 532.66 319.77 536.27 321.39 539.49 318.90 C 536.93 315.95 533.08 317.17 529.80 317.67 M 394.36 328.24 C 397.41 326.97 400.50 325.80 403.65 324.79 C 402.96 322.89 402.29 320.99 401.62 319.09 C 398.68 321.69 396.18 324.75 394.36 328.24 M 406.00 325.14 C 406.96 326.07 407.91 327.02 408.86 327.97 C 409.53 327.01 410.21 326.05 410.90 325.11 C 410.59 324.47 409.96 323.21 409.65 322.57 C 408.42 323.41 407.21 324.27 406.00 325.14 M 388.06 328.27 C 384.05 331.78 393.01 329.94 388.06 328.27 M 376.29 329.07 C 372.26 333.38 381.55 330.65 376.29 329.07 M 471.95 335.55 C 471.13 335.18 470.30 334.81 469.49 334.44 C 468.59 340.91 473.72 345.53 478.76 348.51 C 481.49 343.68 483.94 338.45 482.79 332.73 C 481.00 335.30 479.41 337.98 477.77 340.64 C 476.73 338.18 475.72 335.71 474.72 333.24 C 473.79 334.00 472.87 334.78 471.95 335.55 M 494.35 341.97 C 493.04 339.73 491.86 337.42 490.70 335.10 C 490.18 335.23 489.13 335.49 488.60 335.62 C 485.22 346.75 476.24 355.66 475.80 367.73 C 472.40 379.18 476.20 390.76 477.63 402.19 C 486.62 394.38 495.86 386.55 503.17 377.10 C 500.98 377.85 498.82 378.70 496.70 379.62 C 497.59 377.12 498.48 374.63 499.35 372.13 C 508.68 377.93 510.02 367.33 513.16 361.26 C 511.63 361.83 510.10 362.40 508.57 362.98 C 508.68 361.30 508.80 359.63 508.91 357.96 C 510.69 356.96 512.49 356.00 514.29 355.03 C 512.83 354.35 511.37 353.66 509.93 352.97 C 509.04 355.77 508.16 358.58 507.13 361.34 C 505.56 356.47 507.32 351.34 506.07 346.41 C 503.22 348.10 501.59 350.95 500.56 354.00 C 498.95 349.56 494.68 345.53 496.72 340.49 C 498.70 341.94 500.61 343.47 502.57 344.96 C 503.09 340.51 499.38 337.41 497.22 333.96 C 496.26 336.63 495.31 339.30 494.35 341.97 M 506.71 344.55 C 508.87 342.41 510.27 339.76 508.98 336.76 C 507.12 338.95 505.84 341.63 506.71 344.55 M 511.86 351.54 C 511.51 349.20 511.02 346.88 510.26 344.64 C 509.22 347.18 509.80 349.70 511.86 351.54 M 473.53 352.46 C 471.25 357.85 478.84 353.10 473.53 352.46 Z" />
<path fill="#000000" opacity="1.00" d=" M 432.47 70.43 C 430.34 66.33 430.78 61.90 435.57 60.30 C 435.09 63.82 434.14 67.28 432.47 70.43 Z" />
<path fill="#000000" opacity="1.00" d=" M 415.01 64.63 C 419.37 64.19 425.01 60.46 428.41 64.93 C 429.72 68.99 423.96 70.76 423.14 74.47 C 422.69 74.53 421.79 74.65 421.34 74.71 C 420.99 72.47 420.65 70.23 420.37 67.98 C 418.68 68.16 417.00 68.31 415.31 68.46 C 415.19 67.19 415.09 65.91 415.01 64.63 Z" />
<path fill="#000000" opacity="1.00" d=" M 515.46 68.50 C 521.05 69.33 521.16 74.73 519.87 79.14 C 518.40 75.59 517.02 72.01 515.46 68.50 Z" />
</g>
</svg>
