<svg xmlns="http://www.w3.org/2000/svg" viewBox="0 0 410 313.45"><defs><style>.cls-1{fill:#78a2d1;}.cls-2{fill:#4e81b9;}.cls-3{fill:#363636;}</style></defs><title>logo</title><g id="Satellite"><path class="cls-1" d="M248.13,91.27C218.14,135.82,92,316.2,60.32,359.76,96,325.7,223.23,212.65,248.13,191.79Z" transform="translate(-59 -91.27)"/><path class="cls-1" d="M59,404.73l410-.23L346,358.44Z" transform="translate(-59 -91.27)"/><path class="cls-1" d="M342,134.92" transform="translate(-59 -91.27)"/><path class="cls-2" d="M248.13,191.79,346,358.44c41,15.43,82,30.63,123,46.06Q358.57,247.78,248.13,91.27Z" transform="translate(-59 -91.27)"/><path class="cls-3" d="M81.93,357.72s98.91-43.2,98.76-44.51,41.13,33.92,41.13,33.92l-94.7,33.4" transform="translate(-59 -91.27)"/><polyline class="cls-3" points="193.61 189.81 241.11 232.46 381.77 178.97 333.71 123.05"/><polygon class="cls-3" points="135.2 245.85 256.45 200.11 245.76 188.01 130.36 238.41 135.2 245.85"/><polygon class="cls-3" points="125.34 217.68 185.35 265.43 208.56 258.8 220.29 221.52 170.08 177.99 142.06 189.16 125.34 217.68"/></g></svg>