<?xml version="1.0" standalone="no"?>
<!DOCTYPE svg PUBLIC "-//W3C//DTD SVG 20010904//EN"
 "http://www.w3.org/TR/2001/REC-SVG-20010904/DTD/svg10.dtd">
<svg version="1.0" xmlns="http://www.w3.org/2000/svg"
 width="512.000000pt" height="489.000000pt" viewBox="0 0 512.000000 489.000000"
 preserveAspectRatio="xMidYMid meet">

<g transform="translate(0.000000,489.000000) scale(0.100000,-0.100000)"
fill="#000000" stroke="none">
<path d="M3226 4811 c-4 -6 -12 -9 -17 -6 -14 9 -35 -17 -33 -42 2 -41 -13
-44 -25 -3 -7 24 -18 40 -27 40 -8 0 -12 -4 -9 -10 3 -5 2 -10 -2 -10 -5 0
-10 -12 -11 -27 -1 -16 -9 -33 -17 -39 -8 -6 -12 -14 -8 -18 4 -4 -6 0 -22 8
-26 14 -30 13 -41 -2 -8 -10 -9 -24 -3 -39 8 -21 7 -22 -17 -11 -22 10 -27 9
-36 -5 -6 -12 -16 -16 -28 -12 -19 6 -21 4 -33 -60 l-4 -20 -8 20 c-15 35 -65
65 -52 30 4 -8 1 -15 -6 -15 -8 0 -6 -4 3 -10 8 -5 11 -10 6 -10 -6 0 -5 -5 2
-12 17 -17 15 -25 -8 -31 -27 -7 -25 -23 3 -31 17 -4 22 -12 21 -33 -1 -28
-27 -53 -41 -40 -4 5 -3 11 2 15 13 9 18 32 7 32 -4 0 -13 -5 -20 -12 -9 -9
-12 -8 -12 5 0 9 -3 17 -7 18 -30 3 -47 9 -54 20 -6 10 -11 10 -23 -1 -9 -7
-19 -10 -22 -7 -8 8 6 47 17 47 14 0 11 46 -4 59 -8 6 -17 8 -20 4 -4 -3 -7
-1 -7 5 0 7 -5 12 -11 12 -8 0 -9 -11 -5 -32 6 -33 6 -33 -9 -10 -9 12 -21 20
-26 17 -5 -3 -6 2 -2 11 4 12 3 15 -5 10 -7 -4 -12 -1 -12 8 0 9 -6 13 -14 10
-7 -3 -16 2 -19 10 -12 31 -30 17 -24 -18 4 -28 3 -34 -9 -29 -8 3 -14 9 -14
14 0 6 -9 5 -20 -1 -11 -6 -21 -7 -21 -3 -1 4 -2 15 -3 23 -1 19 -45 20 -67 2
-13 -10 -18 -10 -29 3 -17 20 -30 10 -30 -25 0 -16 -4 -32 -10 -35 -5 -3 -10
-1 -10 5 0 6 -7 19 -16 27 -23 24 -38 -4 -19 -33 13 -20 12 -23 -11 -28 -14
-4 -22 -11 -19 -16 4 -6 11 -8 16 -5 5 4 9 -1 9 -9 0 -19 -17 -21 -22 -4 -3 7
-12 9 -22 5 -13 -5 -17 -14 -14 -32 3 -14 1 -25 -3 -25 -5 0 -9 9 -9 20 0 16
-26 40 -43 40 -7 0 5 -60 14 -66 5 -3 9 -13 9 -22 -1 -12 -5 -10 -15 8 -8 14
-14 21 -15 16 0 -5 -9 1 -19 13 -26 29 -39 20 -36 -24 2 -40 2 -41 -24 -18
-28 23 -47 24 -47 2 0 -11 4 -19 9 -19 4 0 5 -4 2 -10 -6 -9 8 -14 28 -11 4 0
7 -4 7 -10 0 -6 -6 -9 -12 -6 -7 2 -18 -3 -25 -12 -17 -22 -16 -34 1 -28 8 3
16 -2 19 -14 3 -10 1 -19 -4 -19 -5 0 -9 4 -9 8 0 14 -40 7 -57 -11 -27 -27
-3 -36 67 -23 33 6 34 5 16 -9 -11 -8 -25 -15 -32 -15 -11 0 -24 -21 -24 -39
0 -5 8 -7 18 -6 25 2 53 16 48 24 -3 4 -1 13 5 21 7 12 9 11 10 -5 1 -11 1
-27 0 -36 -1 -9 5 -19 14 -22 23 -10 18 -36 -10 -47 -14 -5 -25 -12 -25 -15 0
-12 28 -34 34 -28 3 4 6 -1 6 -10 0 -11 -8 -17 -21 -17 -19 0 -21 -4 -14 -36
4 -24 2 -39 -5 -44 -6 -4 -15 -23 -20 -44 -6 -29 -5 -36 7 -36 8 0 12 -3 10
-7 -3 -5 4 -17 14 -27 11 -12 19 -14 19 -7 0 7 5 9 10 6 6 -3 10 -15 10 -27 0
-14 5 -18 15 -14 9 3 18 -1 21 -9 5 -11 11 -12 24 -5 13 7 21 7 26 -1 4 -8 9
-7 15 2 6 10 9 11 9 2 0 -7 9 -13 20 -13 13 0 18 -5 14 -15 -4 -8 -1 -22 6
-30 9 -10 9 -15 1 -15 -6 0 -11 5 -11 11 0 5 -4 8 -9 4 -5 -3 -12 -1 -16 4 -3
6 -12 8 -21 4 -12 -4 -12 -8 -2 -20 10 -13 8 -14 -12 -11 -14 1 -25 8 -25 15
0 20 -14 26 -30 13 -8 -7 -15 -9 -15 -4 0 4 -10 -3 -21 -15 -16 -17 -19 -25
-10 -31 9 -5 8 -9 -5 -14 -10 -4 -20 -2 -24 4 -4 7 -25 -7 -55 -34 -56 -53
-64 -57 -35 -17 l20 30 -20 19 c-19 17 -19 21 -6 35 20 20 0 38 -29 26 -28
-11 -37 -11 -30 1 3 5 -3 18 -15 30 -15 15 -17 20 -5 20 12 0 12 3 -2 20 -21
24 -33 26 -33 4 0 -8 -4 -13 -9 -10 -5 4 -11 1 -13 -6 -3 -7 -11 1 -19 17 -9
20 -24 32 -44 36 -30 6 -22 14 20 21 12 2 21 12 23 27 l4 24 -29 -21 -29 -20
-16 20 c-17 21 -43 15 -34 -8 6 -16 -29 -20 -39 -4 -7 12 -36 14 -34 3 7 -45
-14 -71 -26 -33 -3 11 -13 20 -21 20 -8 0 -12 -4 -9 -10 10 -16 -31 -11 -64 7
-16 10 -33 14 -37 11 -10 -10 16 -39 28 -31 6 3 9 0 6 -8 -3 -8 -11 -14 -18
-14 -7 0 -16 -9 -21 -20 -4 -11 -8 -18 -10 -15 -2 5 -8 46 -11 68 -1 7 -7 11
-15 8 -7 -3 -13 1 -13 11 0 9 -3 13 -7 10 -3 -4 -12 -2 -20 4 -10 9 -13 8 -13
-3 0 -8 4 -18 10 -24 6 -6 6 -15 0 -24 -8 -12 -10 -11 -10 5 0 12 -5 26 -12
33 -16 16 -39 15 -37 0 3 -25 -3 -63 -8 -50 -7 18 -23 15 -24 -5 0 -14 -2 -15
-6 -3 -13 32 -63 62 -63 38 0 -5 0 -12 0 -17 0 -5 7 -17 16 -25 18 -18 7 -20
-30 -6 -31 11 -47 -7 -22 -25 15 -12 16 -14 1 -29 -15 -15 -15 -17 0 -22 12
-5 13 -9 4 -20 -6 -8 -15 -11 -20 -8 -5 3 -9 0 -9 -5 0 -6 6 -11 13 -11 7 0 8
-3 2 -8 -12 -8 -13 -37 -2 -48 4 -5 10 2 14 14 3 12 9 22 14 22 13 0 11 -28
-3 -32 -6 -2 -11 -20 -10 -39 1 -30 -1 -32 -12 -16 -14 18 -42 25 -31 7 3 -5
2 -10 -4 -10 -5 0 -13 -9 -16 -20 -4 -11 -11 -18 -16 -14 -5 3 -7 10 -4 15 4
5 -3 9 -14 9 -12 0 -21 7 -21 15 0 8 -9 15 -20 15 -11 0 -20 -6 -20 -13 0 -7
-9 -13 -20 -14 -11 -1 -20 4 -20 13 0 8 -4 14 -10 14 -5 0 -10 -5 -10 -11 0
-5 -4 -8 -9 -5 -5 3 -14 -1 -21 -9 -10 -12 -9 -16 4 -21 9 -3 13 -10 10 -15
-3 -5 1 -12 10 -15 29 -11 24 -29 -8 -30 -29 0 -32 2 -30 27 1 15 -4 30 -11
33 -16 6 -25 -26 -13 -48 13 -23 -4 -20 -25 4 -14 17 -20 18 -31 8 -14 -13
-12 -22 5 -24 5 -1 13 -2 19 -3 26 -3 -20 -91 -48 -91 -7 0 -10 -5 -7 -10 4
-6 15 -8 26 -5 14 5 17 2 13 -8 -6 -17 -38 -12 -55 9 -21 26 -38 16 -34 -18 3
-18 1 -28 -3 -22 -4 6 -17 16 -29 23 -18 9 -22 8 -22 -6 -1 -44 -7 -69 -18
-76 -18 -11 -16 -27 4 -49 9 -10 11 -18 5 -18 -6 0 -20 10 -31 22 -17 18 -23
19 -36 8 -16 -13 -12 -25 8 -25 7 0 12 -11 12 -25 0 -23 -4 -25 -40 -25 -22 0
-40 -4 -40 -10 0 -5 14 -10 30 -9 25 1 31 -3 33 -20 1 -13 -2 -16 -7 -8 -12
20 -44 -9 -35 -32 7 -18 8 -18 20 -1 14 19 34 12 34 -12 0 -13 3 -13 15 -3 12
10 15 9 15 -4 0 -11 5 -14 12 -10 7 5 9 2 5 -9 -3 -8 1 -21 9 -27 8 -7 14 -20
14 -29 1 -13 3 -13 15 3 15 20 15 20 15 0 0 -15 2 -16 10 -4 7 12 10 10 17 -8
l9 -23 14 26 c7 14 18 24 24 22 15 -5 16 -45 1 -51 -19 -7 -26 -46 -8 -46 10
0 13 -6 8 -17 -11 -31 -10 -35 8 -38 10 -2 21 3 24 11 3 8 9 14 14 14 5 0 4
-11 -1 -25 -6 -15 -6 -26 1 -30 5 -4 7 -11 4 -16 -4 -5 2 -9 12 -9 17 -1 17
-1 0 -11 -13 -8 -15 -14 -7 -30 6 -10 7 -19 3 -19 -4 0 5 -11 21 -25 30 -26
46 -31 46 -16 0 4 11 6 23 4 19 -4 23 -10 19 -29 -2 -14 0 -24 7 -24 18 0 52
40 45 52 -4 6 -3 8 4 5 5 -4 8 -17 4 -29 -4 -18 -2 -20 16 -16 20 6 27 -2 23
-24 0 -4 8 -10 19 -13 11 -4 20 -10 20 -15 0 -4 16 -3 35 3 38 11 47 27 15 27
-11 0 -20 5 -20 10 0 15 53 0 67 -19 11 -14 12 -14 13 -1 0 11 7 8 21 -9 13
-16 18 -33 15 -47 -4 -13 -2 -25 4 -29 5 -3 7 -12 3 -20 -4 -11 -1 -13 11 -9
9 3 16 2 16 -3 0 -11 43 -12 51 0 3 5 6 -12 6 -37 0 -25 -4 -46 -8 -46 -5 0
-6 7 -3 15 4 8 2 15 -4 15 -14 0 -25 -71 -13 -83 7 -7 13 -3 19 13 l9 24 12
-22 c6 -12 16 -22 22 -22 6 0 7 5 4 10 -3 6 1 10 9 10 9 0 16 7 16 16 0 9 6
14 13 11 6 -2 12 -14 12 -27 0 -13 6 -25 13 -28 6 -2 12 -11 12 -19 0 -13 3
-13 15 -3 12 10 15 9 15 -8 0 -11 3 -22 8 -25 4 -2 2 -3 -4 -1 -13 2 -38 -52
-29 -66 3 -6 -4 -10 -17 -10 -21 -1 -21 -2 -6 -14 10 -7 22 -24 27 -38 8 -22
7 -24 -12 -21 -18 4 -22 -1 -24 -26 -3 -39 -20 -71 -38 -71 -9 0 -12 8 -10 21
7 34 -4 42 -32 24 -14 -9 -27 -14 -31 -11 -3 3 -1 6 4 6 6 0 10 12 10 28 -1
16 4 26 12 24 18 -3 15 19 -4 33 -13 9 -14 16 -6 31 10 17 11 17 12 2 0 -23
35 -58 56 -58 15 0 14 3 -1 27 -10 16 -24 32 -32 36 -7 4 -13 13 -13 19 0 9 3
9 12 0 14 -14 38 -16 38 -3 0 5 -9 13 -20 16 -15 5 -19 12 -15 25 4 13 -1 22
-14 29 -25 14 -35 0 -27 -37 4 -15 3 -22 -1 -16 -8 11 -68 37 -93 41 -8 1 -21
-4 -29 -10 -12 -10 -13 -9 -3 10 7 12 12 31 12 42 0 25 -37 48 -53 32 -6 -6
-8 -11 -4 -11 4 0 3 -9 -3 -20 -12 -22 -32 -28 -25 -7 3 6 1 18 -4 26 -7 11
-13 9 -30 -8 -20 -20 -48 -21 -37 -2 3 4 -6 18 -19 29 -14 12 -25 17 -25 11 0
-6 -7 -9 -14 -6 -9 4 -17 -2 -21 -15 -5 -12 -10 -17 -17 -10 -13 13 -56 2 -60
-16 -3 -14 -5 -14 -20 2 -19 18 -40 22 -73 11 -16 -5 -24 0 -34 18 -9 16 -26
28 -48 32 -19 3 -37 13 -40 21 -4 11 -13 14 -29 10 -13 -4 -24 -2 -24 3 0 13
-25 20 -39 11 -10 -6 -11 -12 -1 -30 10 -20 10 -24 -6 -33 -10 -6 -29 -21 -42
-34 -18 -18 -31 -23 -49 -18 -25 6 -53 -9 -53 -27 0 -6 14 -8 33 -5 17 3 26 3
19 0 -6 -2 -10 -9 -6 -14 3 -5 1 -9 -5 -9 -6 0 -8 -6 -5 -14 3 -8 12 -12 20
-9 8 3 14 0 14 -6 0 -7 -7 -14 -15 -17 -12 -5 -13 -10 -4 -20 6 -8 18 -14 25
-14 8 0 14 -5 14 -11 0 -6 -7 -9 -15 -5 -8 3 -24 -4 -35 -16 -14 -15 -20 -18
-20 -7 0 11 -2 11 -8 1 -7 -10 -15 -10 -36 -2 -24 9 -27 8 -22 -5 3 -8 1 -15
-5 -15 -6 0 -7 -6 -2 -12 4 -7 8 -17 9 -23 1 -5 6 -19 10 -29 6 -15 4 -18 -8
-13 -9 3 -24 -1 -35 -8 -17 -14 -17 -14 4 -15 12 0 23 -6 26 -12 5 -15 -42
-68 -60 -68 -17 0 -17 -20 0 -21 6 0 3 -4 -8 -9 -11 -5 -14 -9 -6 -9 11 -1 11
-4 1 -16 -10 -12 -10 -15 4 -15 9 0 16 7 16 15 0 17 9 19 28 7 9 -6 6 -12 -13
-20 -15 -7 -25 -20 -25 -32 0 -24 13 -26 34 -5 8 8 17 15 20 15 13 0 5 -24
-11 -36 -17 -13 -17 -13 0 -14 10 0 20 -7 23 -15 4 -8 12 -15 20 -15 8 0 14
-4 14 -9 0 -16 -31 -41 -50 -41 -11 0 -18 -6 -16 -12 1 -7 1 -10 -1 -5 -3 4
-10 4 -15 1 -6 -4 -8 -3 -5 3 4 6 0 19 -8 29 -14 18 -14 18 -15 -3 0 -26 0
-26 -37 -12 -20 7 -24 12 -14 18 10 7 11 13 2 27 -6 11 -11 13 -11 6 0 -7 -5
-10 -11 -7 -6 4 -17 -2 -25 -14 -8 -12 -22 -21 -31 -21 -13 0 -13 3 -3 15 10
12 10 15 0 15 -8 0 -11 3 -7 6 3 4 -1 13 -9 22 -19 19 -36 4 -36 -32 0 -14 -7
-31 -14 -37 -11 -9 -14 -9 -14 0 0 18 -22 38 -41 38 -11 0 -16 -8 -15 -24 0
-12 5 -23 10 -23 5 0 3 -7 -4 -15 -7 -8 -18 -15 -25 -15 -7 0 -12 -10 -12 -22
-1 -13 -1 -36 -2 -53 l-1 -29 -16 22 c-17 25 -34 29 -34 7 0 -8 -4 -15 -9 -15
-13 0 -5 -61 9 -70 6 -4 11 -13 10 -21 -4 -29 1 -55 16 -74 13 -17 16 -18 24
-5 5 8 10 10 10 5 0 -6 9 -11 20 -12 23 -2 27 12 5 21 -8 3 -15 12 -15 21 0
12 4 11 20 -5 11 -11 25 -20 31 -20 6 0 8 -7 5 -16 -4 -11 -2 -15 6 -11 8 3
14 -5 14 -20 1 -13 4 -27 7 -29 8 -9 57 27 57 42 0 20 19 27 35 14 8 -7 15 -9
15 -5 0 4 6 2 14 -4 10 -8 16 -9 21 -1 3 6 11 8 16 5 5 -4 9 -2 9 4 0 6 11 6
29 1 25 -7 30 -5 33 11 3 16 9 13 44 -21 23 -21 45 -36 49 -32 5 4 5 1 1 -6
-4 -7 -13 -12 -19 -11 -24 3 -35 -1 -41 -17 -3 -8 -2 -12 4 -9 6 3 10 1 10 -4
0 -6 3 -10 8 -10 33 5 52 -3 53 -23 0 -13 3 -18 5 -12 3 7 15 9 26 6 18 -4 20
-2 15 14 -6 17 -5 16 11 -3 13 -14 23 -18 32 -13 8 5 21 5 31 0 9 -5 19 -7 21
-4 10 9 56 -19 52 -31 -3 -8 7 -17 23 -23 18 -7 22 -11 10 -11 -10 -1 -16 -5
-12 -10 3 -6 -4 -15 -15 -21 -21 -11 -29 -70 -9 -70 15 0 39 26 32 34 -4 3 1
6 10 6 10 0 17 -4 17 -9 0 -5 7 -17 16 -25 12 -13 18 -13 28 -3 8 6 11 19 9
27 -3 10 -1 9 7 -3 6 -9 14 -17 18 -17 12 0 31 59 21 64 -5 2 -4 3 3 2 7 -2
13 -13 12 -25 0 -14 5 -21 18 -21 10 0 21 -6 24 -14 3 -9 15 -13 30 -10 13 2
24 0 24 -6 0 -6 11 -8 25 -6 15 3 25 0 25 -7 0 -8 3 -8 11 0 6 6 17 9 24 7 7
-3 16 -1 20 5 3 6 15 11 26 11 16 0 19 -5 14 -20 -6 -18 -4 -19 18 -11 17 7
29 6 37 -2 10 -9 11 -9 6 1 -4 7 -1 15 8 18 9 3 13 10 10 15 -3 5 1 16 10 24
18 18 24 19 23 3 -1 -33 4 -49 13 -43 6 3 10 16 10 28 1 20 2 20 11 4 5 -9 18
-17 28 -17 10 0 23 -12 30 -27 9 -21 10 -25 1 -16 -15 14 -60 -3 -60 -24 0 -7
3 -12 8 -12 4 1 18 1 31 0 l24 -1 -21 -19 c-25 -21 -30 -46 -8 -38 8 3 17 -1
20 -9 3 -9 14 -14 23 -12 10 1 24 -1 31 -5 8 -5 12 -2 12 8 0 9 5 13 10 10 6
-3 10 -2 10 4 0 20 41 23 55 4 13 -16 14 -15 15 18 0 36 24 69 49 69 7 0 10 4
7 9 -3 5 1 11 9 15 8 3 18 -1 22 -8 20 -32 71 -19 77 21 4 26 36 30 36 4 0
-12 5 -21 10 -21 6 0 10 5 10 11 0 6 9 9 20 6 11 -3 20 -2 20 3 0 4 11 11 25
14 14 4 25 11 25 16 0 6 7 10 16 10 8 0 13 -4 10 -9 -3 -5 1 -14 9 -21 14 -11
19 -7 16 12 0 4 8 10 19 13 11 4 20 15 20 26 0 10 5 19 10 19 21 0 9 20 -12
21 -17 1 -19 2 -5 6 20 5 23 23 4 23 -25 0 -16 38 11 49 67 27 159 43 215 38
66 -6 71 -10 81 -50 6 -27 6 -28 -17 -12 -29 18 -77 6 -77 -20 0 -9 4 -13 10
-10 6 4 7 -1 3 -11 -5 -12 -3 -15 6 -9 18 11 32 -15 20 -37 -9 -16 -12 -17
-24 -4 -8 8 -15 22 -15 30 0 19 -5 20 -31 5 -17 -8 -23 -7 -35 8 -13 17 -15
17 -25 0 -5 -9 -14 -15 -20 -12 -5 4 -9 -1 -9 -9 0 -8 -7 -22 -16 -30 -9 -10
-11 -16 -4 -16 6 0 10 -5 8 -12 -6 -18 23 -47 41 -41 9 3 5 -4 -9 -15 -13 -12
-27 -17 -30 -13 -24 34 -74 5 -78 -46 -3 -31 7 -37 34 -21 7 5 9 -3 6 -23 -4
-28 -3 -30 20 -24 22 6 26 2 30 -19 4 -19 2 -23 -6 -17 -8 6 -15 2 -23 -15 -9
-19 -8 -24 2 -24 8 0 17 5 20 10 9 14 22 12 28 -3 3 -8 -3 -14 -15 -14 -22 -2
-48 -21 -48 -34 0 -14 29 -10 55 7 22 15 26 15 40 0 22 -22 41 -20 58 4 8 12
21 20 28 18 10 -2 13 5 11 21 -2 15 0 21 7 17 6 -4 11 -20 11 -37 0 -30 23
-41 34 -16 3 8 8 7 16 -5 7 -11 24 -18 43 -18 24 0 28 -3 17 -10 -10 -6 -11
-10 -3 -10 7 0 12 -3 10 -7 -1 -5 3 -8 8 -8 6 0 9 6 9 13 -1 6 3 12 8 12 6 0
8 -9 5 -21 -6 -23 1 -49 12 -49 4 0 13 11 19 25 7 14 8 25 2 25 -5 0 -7 7 -4
15 4 8 10 15 15 15 4 0 6 -6 3 -14 -3 -8 -1 -17 5 -21 7 -4 11 4 11 19 0 14 5
26 10 26 6 0 10 10 10 23 0 26 35 75 46 64 4 -4 2 -7 -4 -7 -7 0 -12 -7 -12
-15 0 -19 16 -20 23 -1 6 15 47 29 47 15 0 -5 7 -9 15 -9 9 0 15 7 13 17 -2
10 4 19 14 21 22 4 33 -39 44 -168 13 -148 9 -207 -20 -283 -14 -37 -33 -109
-41 -159 -20 -124 -46 -173 -118 -221 -38 -26 -64 -53 -76 -78 l-19 -39 433 0
432 0 -21 42 c-17 36 -22 68 -27 193 -4 95 -12 165 -21 190 -8 22 -18 60 -21
85 -10 70 8 371 23 403 8 15 45 52 84 81 39 29 91 70 114 90 52 42 80 49 60
14 -7 -13 -11 -29 -9 -37 1 -7 -2 -11 -6 -8 -5 3 -9 -3 -10 -14 -1 -14 4 -18
20 -15 12 3 25 5 30 5 4 1 7 10 7 20 0 10 7 22 16 25 25 10 34 7 28 -9 -4 -8
-12 -15 -19 -15 -7 0 -16 -7 -19 -16 -9 -23 -7 -36 4 -29 5 3 19 1 30 -5 18
-10 19 -13 5 -33 -9 -14 -11 -27 -6 -36 12 -19 42 -6 35 14 -5 11 -2 14 10 9
9 -3 14 -10 11 -14 -3 -5 2 -16 11 -24 14 -15 13 -16 -8 -16 -22 -1 -22 -1 -4
-15 11 -8 14 -15 8 -15 -7 0 -12 -7 -12 -15 0 -8 9 -15 21 -15 12 0 17 -4 14
-11 -4 -5 -4 -21 -1 -35 l7 -25 28 28 c16 16 25 32 21 37 -5 5 -2 15 6 24 8 8
18 11 22 7 4 -4 2 -10 -4 -12 -7 -2 -10 -13 -7 -24 3 -12 11 -18 19 -15 8 3
14 1 14 -4 0 -6 -11 -10 -24 -10 -15 0 -26 -7 -29 -20 -4 -15 0 -20 14 -20 10
0 19 -5 19 -11 0 -8 4 -8 14 0 11 9 15 9 19 -1 4 -10 6 -10 6 0 1 17 38 15 44
-2 4 -10 1 -13 -9 -9 -16 6 -46 -15 -39 -28 3 -4 18 -4 32 2 19 7 28 6 34 -2
8 -14 29 20 22 37 -2 7 10 17 27 22 27 10 43 1 21 -12 -4 -3 -8 -16 -7 -28 1
-16 7 -22 20 -20 11 2 15 -1 11 -7 -3 -6 1 -11 9 -11 9 0 16 7 16 15 0 22 17
18 23 -5 3 -13 0 -20 -9 -20 -8 0 -14 -4 -14 -10 0 -5 -7 -10 -15 -10 -8 0
-14 6 -12 12 1 7 -5 13 -13 13 -8 0 -16 -10 -18 -22 -3 -17 1 -20 18 -16 18 5
19 3 11 -20 -16 -40 8 -49 41 -16 16 16 23 31 18 34 -12 8 13 35 32 35 9 -1 7
-5 -5 -14 -10 -8 -15 -20 -11 -30 9 -24 28 -14 32 18 3 21 7 26 22 21 15 -5
21 0 27 22 4 15 6 34 5 41 -2 6 2 12 8 12 5 0 10 -5 10 -12 0 -9 3 -9 12 0 15
15 49 -3 41 -23 -5 -14 -7 -14 -17 0 -7 9 -16 12 -25 6 -18 -11 -5 -31 20 -31
12 0 19 -7 19 -19 0 -12 11 -23 30 -30 17 -5 30 -7 31 -3 0 4 2 15 4 25 2 9
-1 17 -6 17 -4 0 -6 7 -2 16 3 8 11 13 17 11 6 -2 19 -1 30 2 16 6 16 9 5 22
-18 19 -22 39 -8 39 15 0 -17 30 -33 30 -9 1 -7 5 5 14 10 8 15 20 11 30 -3 9
-1 16 5 16 6 0 11 -5 11 -11 0 -16 27 -40 42 -37 7 2 20 11 29 21 21 22 25 22
32 -3 6 -23 27 -27 27 -5 0 9 9 15 23 15 13 0 28 5 33 10 7 7 10 4 10 -12 -1
-31 26 -30 35 2 4 14 7 20 8 13 1 -7 10 -17 22 -23 17 -10 20 -9 17 7 -2 14 6
19 37 23 22 3 46 9 53 13 19 12 14 -4 -5 -19 -16 -11 -12 -12 26 -11 47 2 69
24 32 34 -20 5 -20 5 2 24 18 15 19 18 5 19 -9 0 -18 5 -20 12 -5 13 -88 18
-88 5 0 -4 -5 -5 -11 -2 -6 4 0 16 15 29 15 12 26 27 26 34 0 8 10 3 23 -10
22 -23 57 -33 57 -17 0 5 8 5 18 2 15 -6 15 -5 3 10 -12 15 -12 17 3 11 9 -3
23 -3 32 0 14 5 14 8 0 21 -8 8 -21 15 -30 15 -8 0 -17 4 -20 9 -3 4 8 7 26 5
l31 -4 -7 43 c-7 40 -6 41 9 22 16 -19 16 -19 11 7 -3 14 -1 28 4 30 7 2 5 11
-4 23 -13 17 -17 18 -25 5 -5 -8 -7 -18 -4 -23 3 -5 0 -8 -6 -6 -7 3 -12 8
-11 13 1 5 -4 12 -10 16 -17 11 -3 30 21 30 10 0 19 3 19 8 0 13 -19 37 -30
38 -5 1 -15 2 -21 3 -5 0 -7 6 -3 12 4 8 9 8 13 1 4 -7 12 -7 20 -3 10 7 9 10
-8 16 -12 3 -19 10 -16 15 3 5 -3 14 -14 20 -24 12 -38 -4 -21 -25 10 -12 7
-13 -16 -9 -34 6 -30 2 -37 41 -5 26 -3 33 13 38 37 12 12 53 -29 46 -7 -1 0
11 17 27 23 22 39 29 65 28 32 -1 34 -3 24 -21 -7 -13 -12 -16 -15 -7 -4 14
-32 17 -32 3 0 -5 9 -11 20 -14 13 -3 18 -11 14 -20 -3 -8 3 -22 12 -32 17
-16 18 -16 30 0 10 13 10 23 3 37 -10 18 -9 18 11 8 25 -13 64 -5 41 9 -11 7
-9 13 9 31 12 12 19 28 16 35 -3 9 0 12 9 9 8 -3 24 4 36 15 13 12 26 21 31
21 14 0 9 -18 -8 -24 -8 -3 -12 -11 -9 -17 5 -7 13 -5 24 5 11 10 21 12 27 6
7 -7 17 -5 30 5 16 13 17 16 4 25 -8 5 -21 8 -27 5 -7 -2 -13 -1 -13 3 0 12
44 47 60 48 8 1 30 2 48 3 29 1 32 4 32 32 0 28 -2 30 -17 18 -15 -13 -15 -12
-4 9 6 12 9 26 6 31 -10 17 28 5 40 -12 12 -17 36 -22 48 -10 4 3 2 12 -4 19
-13 16 -4 34 17 34 8 0 14 5 14 10 0 6 -4 10 -10 10 -5 0 -10 9 -10 20 0 11
-4 20 -10 20 -5 0 -10 5 -10 11 0 5 4 8 9 4 5 -3 12 -1 16 4 3 6 12 8 20 4 8
-3 15 0 15 7 0 6 -9 14 -21 17 -18 5 -19 11 -14 44 7 39 2 44 -32 40 -7 -1
-13 3 -13 9 0 5 0 13 0 18 0 4 4 7 9 7 5 0 12 3 15 6 9 8 -23 34 -42 34 -8 0
-17 5 -19 12 -3 7 3 9 16 6 12 -3 21 -1 21 6 0 6 -8 11 -19 11 -10 0 -21 9
-24 20 -3 12 -14 20 -26 20 -25 0 -27 -22 -5 -45 15 -14 13 -15 -17 -10 -42 8
-45 11 -29 30 10 12 10 15 0 15 -7 0 -19 -8 -27 -17 -13 -17 -14 -16 -8 7 12
49 11 55 -15 54 -14 -1 -31 -3 -39 -5 -7 -2 -16 2 -18 9 -3 6 3 12 12 12 9 0
14 4 10 9 -3 5 -1 12 4 16 6 3 8 12 5 20 -7 16 -33 9 -51 -14 -10 -14 -13 -14
-27 4 -9 12 -15 15 -16 7 0 -9 -7 -11 -20 -7 -11 3 -20 2 -20 -3 0 -5 -11 -12
-25 -14 -16 -3 -25 -1 -25 7 0 13 -28 30 -43 26 -5 -1 -6 3 -2 9 4 6 -3 9 -16
7 -21 -4 -41 -27 -22 -27 4 0 13 -8 20 -18 10 -17 8 -18 -12 -14 -19 3 -23 9
-20 31 1 14 3 33 4 40 1 11 4 12 12 4 12 -12 39 -7 39 8 0 5 -9 9 -21 9 -12 0
-23 8 -26 20 -5 19 -16 25 -37 21 -5 -1 -6 5 -2 14 3 9 6 21 6 26 0 5 7 9 15
9 8 0 16 5 16 10 6 42 4 45 -27 43 -25 -2 -31 1 -30 15 0 9 -6 17 -14 17 -8 0
-18 5 -22 10 -5 7 -14 6 -27 -2 -18 -11 -19 -10 -14 20 4 25 2 29 -7 20 -7 -6
-18 -9 -25 -7 -7 3 -16 1 -20 -5 -10 -16 -23 -13 -34 8 -9 16 -8 18 9 14 11
-3 20 0 20 6 0 5 6 8 14 5 11 -4 13 0 9 15 -3 12 -9 24 -14 27 -17 10 -9 31
16 42 30 14 38 15 32 5 -3 -5 5 -9 16 -10 12 -1 31 -4 42 -7 11 -2 23 -5 28
-5 4 -1 7 -5 7 -10 0 -5 -9 -7 -20 -4 -11 3 -20 0 -20 -6 0 -6 9 -11 20 -11
11 0 20 -7 20 -15 0 -9 9 -15 25 -15 28 0 35 27 10 36 -24 9 -18 23 8 18 50
-11 67 -11 78 2 13 16 39 19 39 4 0 -6 -5 -9 -12 -8 -6 2 -14 -5 -16 -16 -4
-17 -2 -17 18 -3 21 14 24 14 43 -3 11 -11 25 -16 31 -13 6 4 3 -5 -6 -19 -16
-24 -16 -28 -2 -42 8 -9 23 -16 31 -16 9 0 13 3 10 6 -3 4 -2 15 4 25 7 13 6
19 -1 19 -6 0 -8 4 -5 10 3 6 17 -1 31 -15 30 -30 38 -31 31 -6 -3 11 1 22 9
25 16 6 16 76 0 76 -6 0 -2 6 9 12 11 6 29 22 41 36 14 17 23 22 28 14 4 -7 2
-12 -3 -12 -6 0 -11 -10 -11 -22 l1 -23 18 23 c11 13 26 20 34 16 9 -3 20 2
26 15 13 23 14 42 4 39 -5 -2 -9 1 -10 5 -1 4 -9 19 -18 33 -9 14 -14 28 -11
32 3 3 6 1 6 -5 0 -13 42 -4 52 11 5 8 11 7 19 -1 6 -6 17 -9 24 -7 17 7 7 42
-16 55 -11 5 -19 15 -18 22 0 9 2 9 6 0 2 -7 11 -13 19 -13 17 0 17 0 -2 40
-9 18 -20 47 -24 65 -7 31 -6 32 21 29 25 -3 28 0 31 29 2 19 8 31 16 29 6 -1
12 2 12 8 0 5 6 7 14 4 10 -4 14 1 13 15 -1 12 -7 21 -13 21 -7 0 -14 5 -16
10 -2 6 -17 12 -33 14 -17 2 -32 4 -34 5 -2 0 4 9 13 20 15 17 15 19 1 25 -13
5 -14 8 -3 20 7 7 18 11 25 9 7 -3 10 2 7 14 -3 10 -23 26 -45 36 -26 11 -39
23 -39 36 0 11 -4 23 -10 26 -13 8 -13 35 0 35 6 0 9 -5 8 -12 -2 -6 5 -14 15
-16 16 -3 17 -1 7 17 -6 12 -7 27 -3 34 4 6 8 17 10 22 1 6 4 20 7 33 3 12 1
22 -4 22 -5 0 -7 7 -4 15 8 20 22 19 20 -1 0 -9 5 -19 13 -22 10 -3 12 2 7 22
-3 14 -2 26 3 26 12 0 20 35 11 50 -6 9 -12 9 -30 0 -18 -10 -24 -9 -36 7 -12
16 -15 16 -23 3 -6 -8 -16 -15 -23 -15 -8 0 -12 -11 -11 -28 2 -24 -2 -27 -27
-27 -16 0 -32 5 -35 10 -3 6 0 10 7 10 18 0 39 55 26 68 -6 6 -7 16 -2 24 15
23 13 38 -7 49 -17 8 -20 6 -25 -20 -5 -24 -9 -27 -19 -18 -7 7 -11 15 -8 20
2 4 -1 7 -6 7 -18 0 -26 -5 -23 -12 1 -5 -5 -8 -13 -8 -8 0 -15 -7 -15 -16 0
-8 -5 -12 -10 -9 -8 5 -7 11 1 21 6 7 8 21 5 30 -5 14 -7 14 -22 -1 -13 -13
-19 -14 -25 -4 -4 7 -6 16 -3 20 2 4 0 10 -5 13 -5 4 -15 -7 -22 -22 -10 -22
-18 -28 -36 -24 -14 3 -23 11 -23 22 0 22 -26 34 -34 14 -3 -8 -13 -14 -21
-14 -9 0 -14 4 -11 9 3 5 -1 11 -9 15 -9 3 -15 0 -15 -9 0 -8 -7 -15 -15 -15
-8 0 -15 -9 -15 -19 0 -23 -22 -40 -28 -23 -2 7 -8 9 -14 6 -5 -3 -9 2 -8 12
5 41 1 45 -24 28 -15 -9 -22 -21 -19 -30 3 -8 0 -14 -6 -14 -6 0 -12 7 -12 15
-1 8 -3 20 -4 25 -1 6 -3 15 -4 22 -1 15 -41 -31 -41 -49 0 -9 -7 -12 -25 -7
-20 5 -24 3 -19 -9 3 -9 2 -22 -2 -28 -5 -9 -10 -6 -15 9 -5 12 -8 23 -7 25 5
6 -37 45 -44 41 -17 -11 -7 34 12 51 23 21 12 35 -29 35 -23 0 -23 1 -8 18 19
21 23 72 6 72 -6 0 -3 7 5 16 9 8 16 19 16 24 0 4 8 6 19 3 15 -4 18 0 14 21
-3 14 -9 26 -14 26 -17 0 -9 32 11 48 19 15 19 19 6 37 -15 20 -15 20 -29 0
-9 -11 -13 -24 -10 -30 3 -5 -5 1 -18 15 -21 21 -24 22 -27 7 -4 -20 -13 -22
-30 -5 -9 9 -7 17 11 36 22 23 22 24 3 38 -17 12 -17 14 -4 14 9 0 20 5 23 10
7 11 -18 40 -35 40 -19 0 -37 24 -32 42 6 22 -14 24 -26 2 -7 -13 -13 -14 -28
-6 -17 10 -16 11 9 17 29 8 47 32 40 53 -4 10 -10 10 -28 -2 -22 -15 -23 -14
-21 17 1 27 -2 31 -19 29 -11 -2 -21 -8 -23 -13 -2 -5 -8 -9 -13 -9 -6 0 -8 4
-5 8 3 5 7 20 10 35 3 19 0 27 -10 27 -8 0 -14 -5 -14 -11 0 -8 -5 -7 -16 2
-13 11 -17 10 -25 -4 -6 -9 -17 -17 -24 -17 -18 0 -20 -16 -2 -23 6 -3 0 -6
-15 -6 -21 -1 -26 3 -21 15 5 14 2 16 -20 10 -33 -8 -36 5 -4 19 12 6 22 17
22 25 0 10 -8 14 -22 12 -13 -2 -23 2 -23 9 0 6 -8 9 -19 6 -21 -5 -37 18 -21
28 6 4 8 23 5 43 -5 42 7 68 25 57 9 -6 9 -9 1 -15 -7 -3 -9 -14 -5 -23 8 -23
24 -11 24 18 0 17 4 23 14 19 9 -3 17 6 24 25 13 37 -6 48 -36 20 -12 -10 -23
-19 -25 -19 -5 0 1 60 8 78 7 19 -14 54 -28 46 -9 -5 -8 -3 1 7 16 17 15 29
-2 29 -7 0 -16 11 -18 25 -3 16 -1 25 7 25 20 0 27 30 7 32 -47 4 -58 3 -64
-12 -4 -10 -7 -6 -7 12 -1 20 3 26 13 22 8 -3 17 -1 21 5 4 7 -4 11 -19 11
-14 0 -26 5 -26 10 0 6 -9 10 -19 10 -11 0 -23 9 -26 20 -8 26 -25 26 -32 -1
-6 -21 -6 -21 -24 2 -14 19 -19 20 -19 7 0 -14 -53 -43 -72 -39 -5 0 -8 -5 -8
-11 0 -7 -5 -5 -11 5 -5 9 -8 21 -5 26 3 5 -1 14 -9 21 -11 9 -15 9 -15 1 0
-7 -4 -10 -9 -6 -11 6 -25 -31 -16 -44 3 -5 1 -12 -4 -15 -10 -6 -61 49 -61
66 0 12 -21 6 -23 -7 -2 -21 -27 -37 -41 -26 -9 8 -16 7 -26 -2 -7 -6 -10 -7
-7 -1 9 16 -18 50 -27 35z m24 -71 c0 -11 -4 -20 -10 -20 -5 0 -10 9 -10 20 0
11 5 20 10 20 6 0 10 -9 10 -20z m400 -12 c0 -5 -9 -8 -20 -8 -11 0 -20 2 -20
4 0 2 -3 11 -6 20 -5 13 -2 13 20 3 14 -7 26 -15 26 -19z m-283 7 c0 -8 -4
-12 -9 -9 -4 3 -8 9 -8 15 0 5 4 9 8 9 5 0 9 -7 9 -15z m223 -1 c0 -8 -4 -12
-10 -9 -5 3 -10 10 -10 16 0 5 5 9 10 9 6 0 10 -7 10 -16z m140 -44 c0 -5 -2
-10 -4 -10 -3 0 -8 5 -11 10 -3 6 -1 10 4 10 6 0 11 -4 11 -10z m-610 -4 c0
-3 -4 -8 -10 -11 -5 -3 -10 -1 -10 4 0 6 5 11 10 11 6 0 10 -2 10 -4z m-78
-38 c-7 -7 -10 -5 -7 8 5 29 6 30 12 16 3 -8 1 -18 -5 -24z m108 2 c0 -5 -2
-10 -4 -10 -3 0 -8 5 -11 10 -3 6 -1 10 4 10 6 0 11 -4 11 -10z m-60 -19 c0
-5 -7 -11 -15 -15 -9 -3 -15 0 -15 9 0 8 7 15 15 15 8 0 15 -4 15 -9z m-107
-21 c-5 -19 -23 -29 -23 -12 0 7 20 32 26 32 1 0 0 -9 -3 -20z m-393 -5 c0 -8
-4 -15 -10 -15 -5 0 -10 7 -10 15 0 8 5 15 10 15 6 0 10 -7 10 -15z m100 -19
c0 -3 -4 -8 -10 -11 -5 -3 -10 -1 -10 4 0 6 5 11 10 11 6 0 10 -2 10 -4z
m-323 -48 c-3 -8 -6 -5 -6 6 -1 11 2 17 5 13 3 -3 4 -12 1 -19z m118 -18 c13
11 18 11 28 0 9 -10 9 -11 0 -6 -15 8 -37 -30 -29 -50 10 -25 -10 -15 -22 11
-15 32 -17 68 -3 46 8 -12 12 -13 26 -1z m80 1 c9 -16 -9 -20 -23 -5 -10 12
-10 14 2 14 8 0 17 -4 21 -9z m-63 -137 c-3 -15 -8 -22 -14 -16 -9 9 -1 42 12
42 4 0 5 -12 2 -26z m-82 -9 c0 -8 -4 -15 -10 -15 -5 0 -10 7 -10 15 0 8 5 15
10 15 6 0 10 -7 10 -15z m-230 -134 c0 -14 -18 -23 -31 -15 -8 4 -7 9 2 15 18
11 29 11 29 0z m20 -53 c0 -6 -3 -8 -7 -5 -3 4 -12 2 -20 -4 -13 -11 -19 2 -6
14 11 11 33 8 33 -5z m-75 -188 c3 -5 -1 -10 -9 -10 -9 0 -16 5 -16 10 0 6 4
10 9 10 6 0 13 -4 16 -10z m-383 -124 c4 3 9 1 13 -5 4 -7 -4 -11 -19 -11 -20
0 -26 5 -26 23 1 20 2 21 14 5 7 -10 15 -15 18 -12z m2432 9 c-7 -16 -24 -21
-24 -6 0 8 7 13 27 20 1 1 0 -6 -3 -14z m-44 -20 c-9 -10 -9 -15 -1 -15 6 0
11 -4 11 -10 0 -16 -20 -12 -27 6 -3 9 0 20 8 25 20 13 23 11 9 -6z m-2322
-47 c-3 -7 -13 -15 -23 -16 -15 -4 -16 -2 -4 12 17 19 32 21 27 4z m2310 -157
c-15 -5 -19 4 -11 24 6 18 7 18 13 -1 4 -10 3 -21 -2 -23z m31 -40 c-3 -6 -10
-7 -18 -2 -7 5 -10 14 -6 21 9 14 29 -2 24 -19z m55 -77 c3 -8 -2 -12 -15 -11
-10 1 -19 5 -19 9 0 4 -7 8 -15 8 -15 0 -20 12 -9 23 8 8 52 -13 58 -29z m374
-9 c-2 -25 -8 -47 -15 -49 -19 -8 -25 11 -13 34 6 11 8 30 5 40 -5 14 -2 20 9
20 13 0 16 -10 14 -45z m-3602 -42 c-10 -10 -19 5 -10 18 6 11 8 11 12 0 2 -7
1 -15 -2 -18z m44 17 c-8 -5 -19 -10 -25 -10 -5 0 -3 5 5 10 8 5 20 10 25 10
6 0 3 -5 -5 -10z m3154 -29 c-12 -8 -16 -51 -5 -51 5 0 14 7 21 15 7 8 19 15
28 15 10 0 6 -7 -11 -20 -27 -21 -67 -27 -67 -9 0 5 -4 7 -10 4 -5 -3 -7 0 -4
9 3 9 -4 19 -18 27 l-23 12 30 13 c30 12 79 0 59 -15z m766 5 c0 -3 -4 -8 -10
-11 -5 -3 -10 -1 -10 4 0 6 5 11 10 11 6 0 10 -2 10 -4z m-4010 -16 c0 -5 -4
-10 -9 -10 -6 0 -13 5 -16 10 -3 6 1 10 9 10 9 0 16 -4 16 -10z m60 6 c0 -3
-4 -8 -10 -11 -5 -3 -10 -1 -10 4 0 6 5 11 10 11 6 0 10 -2 10 -4z m-25 -36
c3 -5 2 -10 -4 -10 -5 0 -13 5 -16 10 -3 6 -2 10 4 10 5 0 13 -4 16 -10z
m3970 -430 c-3 -5 -12 -10 -18 -10 -7 0 -6 4 3 10 19 12 23 12 15 0z m-1892
-213 c-4 -7 -9 -21 -10 -31 -5 -32 -11 -30 -27 9 -22 51 -20 55 14 44 19 -7
27 -15 23 -22z m-75 -5 c15 -19 11 -34 -9 -38 -7 -1 -21 -3 -29 -5 -8 -2 -14
2 -12 9 1 7 -4 20 -13 28 -8 9 -15 20 -15 26 0 15 63 -1 78 -20z m1957 8 c3
-5 2 -10 -4 -10 -5 0 -13 5 -16 10 -3 6 -2 10 4 10 5 0 13 -4 16 -10z m-2335
-34 c0 -4 6 -14 15 -23 9 -8 13 -18 9 -22 -4 -3 -9 0 -11 7 -3 6 -12 12 -21
12 -12 0 -13 -3 -4 -12 15 -15 16 -38 2 -38 -5 0 -10 7 -10 15 0 8 -5 15 -11
15 -5 0 -7 5 -3 12 5 7 2 9 -7 6 -17 -7 -43 18 -29 27 6 3 10 1 10 -4 0 -6 9
-11 20 -11 23 0 27 15 5 24 -8 3 -15 10 -15 15 0 5 11 4 26 -3 14 -8 25 -17
24 -20z m60 -7 c-7 -11 -14 -18 -17 -15 -8 8 5 36 17 36 7 0 7 -6 0 -21z m204
-24 c-7 -16 -24 -21 -24 -6 0 8 7 13 27 20 1 1 0 -6 -3 -14z m64 -22 c-2 -9
-8 -18 -15 -20 -7 -3 -9 3 -6 16 6 25 26 28 21 4z m-475 -18 c-4 -11 -1 -13
13 -8 13 5 16 3 11 -10 -3 -8 -1 -18 6 -21 7 -2 8 -5 2 -5 -5 0 -23 11 -40 24
-24 21 -27 27 -15 34 18 12 31 5 23 -14z m701 6 c3 -4 -6 -6 -19 -3 -14 2 -25
6 -25 8 0 8 39 4 44 -5z m-54 -5 c0 -3 -4 -8 -10 -11 -5 -3 -10 -1 -10 4 0 6
5 11 10 11 6 0 10 -2 10 -4z m1770 -6 c0 -5 -4 -10 -10 -10 -5 0 -10 5 -10 10
0 6 5 10 10 10 6 0 10 -4 10 -10z m-3520 -4 c0 -2 -7 -9 -15 -16 -12 -10 -15
-10 -15 4 0 9 7 16 15 16 8 0 15 -2 15 -4z m3065 -10 c11 -11 8 -15 -21 -24
-39 -12 -41 -10 -17 18 21 24 21 24 38 6z m-3051 -14 c3 -5 -1 -9 -9 -9 -8 0
-12 4 -9 9 3 4 7 8 9 8 2 0 6 -4 9 -8z m2977 -1 c0 -4 2 -14 4 -23 2 -11 -3
-18 -13 -19 -43 -4 -60 -7 -70 -13 -10 -6 -8 37 3 54 5 7 75 8 76 1z m-2025
-38 c-10 -10 -19 5 -10 18 6 11 8 11 12 0 2 -7 1 -15 -2 -18z m51 -5 c-3 -8
-6 -5 -6 6 -1 11 2 17 5 13 3 -3 4 -12 1 -19z m48 12 c3 -5 1 -10 -4 -10 -6 0
-11 5 -11 10 0 6 2 10 4 10 3 0 8 -4 11 -10z m-35 -44 c0 -15 -24 -28 -34 -19
-7 7 13 33 25 33 5 0 9 -6 9 -14z m884 -9 c-1 -9 -2 -21 -3 -25 0 -4 -11 -8
-24 -8 -22 0 -23 1 -9 29 15 29 38 32 36 4z m809 16 c-17 -6 -16 -21 1 -38 11
-12 17 -11 35 1 11 8 21 22 21 30 0 8 4 14 9 14 11 0 21 -63 11 -70 -4 -3 -9
-15 -12 -27 -5 -18 -2 -23 13 -23 10 0 19 -5 19 -10 0 -6 -6 -10 -12 -9 -28 3
-35 -2 -33 -25 2 -14 -3 -33 -11 -43 -9 -12 -13 -13 -14 -5 0 16 -24 42 -38
42 -5 0 -15 7 -23 16 -10 13 -10 17 0 24 19 11 4 50 -20 50 -11 0 -17 5 -14
10 3 6 1 10 -4 10 -6 0 -11 5 -11 10 0 7 6 7 18 1 15 -8 22 -4 36 20 9 16 23
29 29 28 9 0 9 -2 0 -6z m-1661 -95 c-7 -7 -12 -8 -12 -2 0 6 3 14 7 17 3 4 9
5 12 2 2 -3 -1 -11 -7 -17z m533 1 c-8 -23 11 -59 30 -59 8 0 15 5 15 10 0 6
5 10 11 10 6 0 9 -7 5 -15 -3 -9 0 -15 9 -15 19 0 19 -3 -4 -49 -29 -55 -47
-68 -61 -41 -6 11 -15 18 -21 15 -5 -4 -7 -11 -4 -16 4 -5 1 -9 -4 -9 -18 0
-12 21 10 38 13 11 18 23 14 35 -10 23 -26 21 -32 -4 -6 -20 -7 -20 -18 -6 -6
9 -22 20 -36 25 l-23 9 24 13 c18 9 25 10 28 1 5 -14 32 -15 33 -1 1 6 2 16 3
23 1 6 -4 22 -11 33 -13 20 -12 22 12 22 20 0 24 -4 20 -19z m1225 17 c0 -3
-4 -8 -10 -11 -5 -3 -10 -1 -10 4 0 6 5 11 10 11 6 0 10 -2 10 -4z m-1640 -16
c0 -5 -2 -10 -4 -10 -3 0 -8 5 -11 10 -3 6 -1 10 4 10 6 0 11 -4 11 -10z
m-1780 -42 c0 -11 -28 -10 -35 1 -3 6 4 9 15 8 11 -1 20 -5 20 -9z m2480 -23
c5 3 14 4 20 0 13 -8 1 -35 -16 -35 -7 0 -21 -8 -31 -19 -10 -10 -30 -21 -45
-25 -25 -6 -26 -5 -18 21 19 64 39 82 67 60 7 -5 17 -6 23 -2z m790 1 c0 -7
10 -17 23 -21 14 -4 17 -8 9 -12 -7 -3 -22 3 -33 13 -21 19 -25 34 -9 34 6 0
10 -6 10 -14z m-1620 -13 c0 -9 10 -27 22 -40 12 -13 16 -23 10 -23 -6 0 -9
-11 -6 -26 3 -16 1 -23 -6 -19 -10 6 -13 -4 -12 -42 1 -13 -3 -23 -8 -23 -6 0
-10 4 -10 10 0 5 -10 18 -22 29 -17 17 -19 23 -8 36 7 8 10 24 7 35 -6 22 13
80 25 80 4 0 8 -8 8 -17z m-40 -4 c0 -14 -29 -17 -34 -4 -3 9 2 13 15 12 10
-1 19 -4 19 -8z m-220 -13 c0 -3 -4 -8 -10 -11 -5 -3 -10 -1 -10 4 0 6 5 11
10 11 6 0 10 -2 10 -4z m185 -35 c-4 -9 -8 -23 -10 -31 -2 -8 -4 -17 -5 -20 0
-3 -7 8 -14 25 -9 21 -9 33 -2 41 15 16 39 5 31 -15z m255 19 c0 -5 -2 -10 -4
-10 -3 0 -8 5 -11 10 -3 6 -1 10 4 10 6 0 11 -4 11 -10z m-1640 -28 c0 -9 -6
-12 -16 -8 -9 3 -25 6 -35 6 -33 0 -14 15 20 16 21 1 31 -4 31 -14z m30 -12
c0 -5 -2 -10 -4 -10 -3 0 -8 5 -11 10 -3 6 -1 10 4 10 6 0 11 -4 11 -10z
m1924 -14 c-3 -8 -14 -13 -25 -11 -21 4 -40 -16 -21 -23 7 -2 10 -8 6 -13 -3
-5 2 -9 10 -9 9 0 16 -4 16 -10 0 -22 -40 -9 -46 15 -8 32 2 59 19 52 8 -3 20
-1 28 4 19 12 19 11 13 -5z m-380 -23 c-2 -39 -14 -63 -30 -63 -8 0 -14 -4
-14 -8 0 -4 -8 -8 -19 -8 -11 0 -17 5 -14 13 3 7 9 13 14 13 5 0 9 7 9 15 0 8
5 15 10 15 6 0 10 -4 10 -10 0 -5 5 -10 11 -10 7 0 9 9 6 22 -4 12 -1 28 5 35
14 17 13 17 12 -14z m658 7 c10 0 18 -5 18 -11 0 -6 -9 -9 -20 -6 -10 3 -21 0
-23 -7 -3 -8 -8 -8 -17 1 -7 6 -10 19 -6 29 5 13 9 15 18 6 7 -7 20 -12 30
-12z m-1070 -4 c12 8 70 -54 62 -67 -3 -5 -9 -7 -14 -4 -4 3 -13 -2 -20 -10
-7 -8 -9 -15 -4 -15 5 0 1 -5 -8 -11 -12 -7 -23 -6 -38 3 -22 14 -25 24 -9 33
6 5 3 12 -9 21 -20 14 -20 14 1 39 12 13 24 20 25 14 2 -5 8 -6 14 -3z m-1469
-13 c-7 -3 -11 -10 -9 -16 1 -7 1 -9 -1 -4 -3 4 -12 7 -20 7 -12 0 -13 3 -3
14 6 8 19 12 28 9 9 -4 11 -8 5 -10z m1587 -3 c8 -5 11 -10 5 -10 -5 0 -17 5
-25 10 -8 5 -10 10 -5 10 6 0 17 -5 25 -10z m117 -4 c-3 -7 0 -19 6 -25 8 -8
8 -11 0 -11 -7 0 -15 5 -18 10 -7 12 0 40 11 40 3 0 4 -6 1 -14z m-34 -13 c-7
-2 -10 -10 -7 -18 3 -7 1 -16 -4 -19 -19 -11 -23 26 -5 39 10 8 20 11 23 8 3
-3 0 -8 -7 -10z m275 -15 c-6 -17 -36 -34 -44 -25 -4 4 1 14 12 22 23 18 37
19 32 3z m-283 -111 c16 -34 21 -54 14 -58 -8 -4 -8 -13 0 -28 7 -12 9 -26 6
-31 -3 -6 1 -10 9 -10 9 0 16 5 16 12 0 6 2 9 5 7 2 -3 2 -14 -1 -25 -5 -19
-8 -19 -80 -5 -41 7 -74 18 -74 22 0 4 11 6 24 3 24 -4 50 16 29 23 -6 2 -9
13 -6 23 3 12 -1 22 -11 26 -9 3 -16 14 -16 23 -1 13 -3 13 -16 -4 -15 -20
-15 -19 -12 5 2 14 9 24 17 22 15 -3 41 16 41 30 0 6 -11 8 -25 6 -29 -6 -29
-5 -13 21 11 18 14 18 41 5 18 -10 37 -34 52 -67z m-315 53 c0 -5 -5 -10 -11
-10 -5 0 -7 5 -4 10 3 6 8 10 11 10 2 0 4 -4 4 -10z m110 -33 c10 -12 18 -23
17 -24 -1 -1 -23 -4 -49 -7 -36 -4 -47 -2 -52 10 -3 9 -3 21 1 27 4 7 0 8 -12
3 -14 -5 -16 -4 -6 7 17 21 80 11 101 -16z m60 23 c0 -5 -5 -10 -11 -10 -5 0
-7 5 -4 10 3 6 8 10 11 10 2 0 4 -4 4 -10z m226 -17 c-10 -10 -19 5 -10 18 6
11 8 11 12 0 2 -7 1 -15 -2 -18z m213 -10 c0 -25 -1 -26 -9 -8 -12 27 -12 35
0 35 6 0 10 -12 9 -27z m-34 7 c-4 -6 1 -22 9 -35 9 -14 13 -25 9 -26 -5 0 0
-3 9 -7 13 -5 15 -11 7 -22 -8 -11 -12 -12 -16 -2 -2 6 -9 10 -14 6 -5 -3 -9
2 -9 10 0 9 -4 16 -8 16 -5 0 -7 14 -6 30 1 20 -3 30 -12 30 -8 0 -14 -7 -14
-15 0 -19 -16 -20 -23 -1 -8 19 -4 21 38 24 24 2 34 -1 30 -8z m-69 -43 c8 3
14 0 14 -6 0 -6 -7 -11 -15 -11 -8 0 -15 -7 -15 -15 0 -9 21 -20 55 -30 31 -9
53 -21 49 -26 -3 -6 -12 -8 -20 -5 -8 3 -17 -1 -20 -9 -4 -8 -19 -15 -35 -15
-21 0 -27 4 -23 15 4 9 1 15 -7 15 -8 0 -27 11 -43 23 l-29 23 25 20 c13 10
28 28 33 39 8 19 9 19 12 -2 3 -14 9 -20 19 -16z m-109 8 c8 -9 13 -19 9 -22
-7 -7 -36 16 -36 28 0 13 10 11 27 -6z m2145 1 c11 -16 10 -26 -3 -26 -10 0
-39 24 -39 33 0 9 36 3 42 -7z m-2496 -39 c1 -7 5 -20 9 -29 4 -10 3 -18 -3
-18 -12 0 -33 56 -25 64 8 7 16 0 19 -17z m68 2 c-8 -13 -21 -11 -27 5 -4 10
0 12 14 9 10 -3 16 -9 13 -14z m-119 -17 c-6 -7 -34 11 -29 19 3 5 11 3 19 -4
7 -6 12 -13 10 -15z m1195 21 c-1 -15 -25 -38 -43 -41 -16 -3 -15 0 4 22 22
25 39 34 39 19z m-1073 -34 c7 -7 22 -12 34 -13 12 0 24 -7 27 -13 2 -9 -9
-13 -37 -13 -23 0 -41 4 -41 9 0 5 -3 16 -6 25 -7 19 7 21 23 5z m-130 -11
c-2 -7 0 -21 5 -30 6 -13 5 -18 -6 -18 -10 0 -13 6 -9 17 4 11 3 14 -5 9 -14
-8 -15 -5 -6 18 7 19 28 22 21 4z m-1467 -2 c0 -3 -4 -8 -10 -11 -5 -3 -10 -1
-10 4 0 6 5 11 10 11 6 0 10 -2 10 -4z m3057 -23 c10 -9 9 -12 -2 -17 -8 -3
-17 -1 -20 4 -3 6 -15 6 -30 0 -21 -8 -25 -7 -25 10 0 15 6 19 33 17 17 -1 38
-7 44 -14z m-427 -12 c0 -12 -29 -41 -40 -41 -12 0 -23 20 -15 28 3 3 10 0 14
-7 6 -9 11 -10 15 -2 4 6 4 16 1 21 -3 6 1 10 9 10 9 0 16 -4 16 -9z m240 -15
c0 -8 -9 -14 -19 -13 -15 1 -17 4 -9 14 14 17 28 16 28 -1z m63 -32 c-27 -25
-28 -30 -8 -50 20 -20 19 -26 -10 -47 l-25 -18 0 70 c0 64 1 69 20 64 14 -4
20 0 20 11 0 14 3 14 13 4 11 -10 10 -16 -10 -34z m84 11 c0 -8 -6 -15 -12
-15 -7 0 -18 7 -25 15 -10 13 -9 15 12 15 15 0 25 -6 25 -15z m-1283 -3 c3 -5
-1 -9 -9 -9 -8 0 -12 4 -9 9 3 4 7 8 9 8 2 0 6 -4 9 -8z m-64 -11 c0 -18 -18
-21 -30 -6 -10 13 -9 15 9 15 11 0 21 -4 21 -9z m1200 -52 c0 -66 -10 -93 -40
-109 -17 -9 -18 -7 -13 24 7 45 -12 55 -32 16 -8 -16 -11 -30 -6 -30 5 0 7 -9
4 -20 -3 -11 -12 -20 -20 -20 -13 0 -13 3 -3 15 10 13 9 15 -9 15 -12 0 -20 4
-16 9 5 10 -12 26 -29 26 -18 0 -16 22 5 49 18 23 23 25 37 14 13 -11 15 -10
10 14 -4 19 -1 25 9 21 7 -3 11 -9 8 -13 -10 -17 15 -21 31 -6 8 9 20 16 25
16 5 0 9 9 9 20 0 11 7 20 15 20 12 0 15 -13 15 -61z m-1067 44 c4 -3 -1 -11
-10 -18 -15 -11 -14 -14 5 -33 12 -12 22 -23 22 -24 0 -6 -61 -1 -67 5 -3 4
-1 7 5 7 7 0 12 7 12 15 0 8 -5 15 -10 15 -6 0 -13 -7 -16 -15 -8 -19 -28 -19
-43 -1 -9 11 -6 14 16 14 16 0 34 8 43 20 15 22 31 27 43 15z m1157 -3 c0 -5
-4 -10 -10 -10 -5 0 -10 5 -10 10 0 6 5 10 10 10 6 0 10 -4 10 -10z m-933 -15
c0 -8 -6 -15 -14 -15 -17 0 -17 17 0 23 6 3 12 6 13 6 0 1 1 -6 1 -14z m43
-14 c-9 -19 -30 -29 -30 -16 0 7 34 42 38 39 2 -1 -1 -12 -8 -23z m-159 -18
c52 -28 57 -34 36 -51 -10 -9 -18 -6 -31 9 -12 15 -21 18 -28 11 -14 -14 -38
-4 -38 17 0 13 2 13 9 2 5 -8 16 -11 26 -8 21 9 10 27 -16 27 -10 0 -19 5 -19
10 0 15 7 13 61 -17z m1064 7 c-3 -5 -12 -7 -20 -3 -21 7 -19 13 6 13 11 0 18
-4 14 -10z m-405 -20 c0 -9 -60 -19 -77 -13 -26 10 -12 18 32 20 25 1 45 -2
45 -7z m60 -4 c0 -10 -7 -12 -22 -8 -21 5 -21 6 -2 13 10 4 20 8 22 8 1 1 2
-5 2 -13z m-131 -43 c1 5 8 2 16 -6 8 -9 26 -14 40 -13 34 4 32 -9 -4 -24 -24
-9 -27 -15 -18 -25 7 -7 15 -11 19 -9 4 2 9 0 13 -5 3 -6 -6 -18 -20 -27 -20
-13 -28 -14 -40 -4 -25 20 -29 50 -8 65 17 13 17 14 1 20 -11 5 -18 17 -17 34
0 23 1 24 9 6 5 -11 9 -16 9 -12z m-734 9 c15 -11 16 -30 1 -35 -20 -8 -37 8
-30 26 7 19 14 21 29 9z m272 -79 c-16 -16 -17 -16 -17 0 0 10 -5 14 -15 11
-18 -7 -19 0 -3 26 13 20 13 20 33 0 18 -19 18 -21 2 -37z m-227 23 c0 -3 -4
-8 -10 -11 -5 -3 -10 -1 -10 4 0 6 5 11 10 11 6 0 10 -2 10 -4z m-68 -17 c3
-9 21 -15 51 -18 4 -1 7 -4 7 -8 0 -11 -82 -10 -97 0 -24 15 -14 28 29 36 3 0
8 -4 10 -10z m-219 -43 c-4 -5 1 -7 10 -3 10 3 17 2 17 -2 0 -5 -7 -11 -15
-15 -13 -5 -20 5 -16 27 0 4 -4 7 -10 7 -5 0 -7 5 -3 11 4 8 9 7 15 -2 4 -7 5
-17 2 -23z m397 14 c0 -5 -4 -10 -10 -10 -5 0 -10 5 -10 10 0 6 5 10 10 10 6
0 10 -4 10 -10z m-325 -24 c20 5 23 3 18 -14 -2 -11 0 -23 6 -26 6 -4 11 -2
11 4 0 8 6 8 21 0 15 -8 24 -8 33 -1 8 6 21 9 30 5 18 -7 22 -24 6 -24 -5 0
-10 -7 -10 -16 0 -8 4 -13 9 -10 5 4 11 1 13 -6 4 -10 10 -10 30 -1 23 10 28
8 49 -20 13 -18 23 -35 21 -39 -1 -5 3 -8 8 -8 6 0 10 -5 10 -10 0 -7 -6 -7
-19 -1 -24 13 -33 4 -20 -21 5 -10 7 -23 4 -28 -8 -13 -35 -13 -35 1 0 5 -6 7
-12 4 -7 -4 -5 0 5 8 18 15 18 15 -2 22 -12 3 -21 12 -21 20 0 7 -10 12 -25
11 -14 0 -25 -4 -25 -8 0 -5 -12 -8 -26 -8 -19 0 -25 4 -20 15 3 9 0 15 -9 15
-8 0 -15 -4 -15 -10 0 -5 -4 -10 -9 -10 -5 0 -7 10 -4 23 4 17 2 19 -5 8 -9
-12 -17 -8 -46 25 -31 34 -34 40 -19 51 8 7 16 25 16 40 0 15 2 22 4 16 3 -8
14 -11 28 -7z m307 -10 c-2 -11 1 -22 7 -25 14 -9 -15 -51 -35 -51 -17 0 -19
16 -1 23 9 4 8 8 -3 16 -8 6 -10 11 -4 11 7 0 9 11 6 26 -4 21 -1 25 14 22 12
-2 18 -11 16 -22z m2472 -2 c3 -8 2 -12 -4 -9 -6 3 -10 10 -10 16 0 14 7 11
14 -7z m-2524 -14 c0 -5 -4 -10 -10 -10 -5 0 -10 5 -10 10 0 6 5 10 10 10 6 0
10 -4 10 -10z m808 -35 c-2 -34 -18 -51 -18 -20 0 8 -4 15 -9 15 -5 0 -11 -7
-15 -15 -3 -8 -12 -15 -20 -15 -9 0 -19 -14 -24 -32 -4 -18 -12 -33 -17 -33
-14 0 -16 47 -3 63 17 20 89 72 100 72 5 0 8 -16 6 -35z m-668 -7 c0 -10 -3
-17 -7 -17 -21 3 -33 -2 -33 -16 0 -8 -4 -15 -10 -15 -13 0 -13 13 1 44 13 28
49 31 49 4z m2360 18 c0 -3 -4 -8 -10 -11 -5 -3 -10 -1 -10 4 0 6 5 11 10 11
6 0 10 -2 10 -4z m-2880 -47 c0 -6 10 -25 22 -41 18 -26 19 -33 7 -42 -8 -6
-14 -17 -15 -23 -2 -29 -5 -33 -19 -33 -18 0 -20 17 -3 22 7 3 9 12 5 22 -8
22 -27 12 -27 -15 0 -12 -7 -19 -20 -19 -11 0 -20 -4 -20 -10 0 -5 -7 -7 -15
-4 -9 4 -15 19 -15 36 0 16 -4 27 -9 23 -5 -3 -12 -1 -15 4 -4 5 -2 12 3 15 5
4 12 2 16 -4 12 -19 27 -10 23 15 -4 20 -2 23 11 16 22 -11 41 -3 34 16 -3 8
0 19 8 24 19 12 29 11 29 -2z m2279 -46 c-1 -5 -1 -15 0 -23 1 -13 3 -13 14 0
7 9 29 15 53 16 l42 0 -2 -37 c0 -20 -5 -36 -10 -36 -5 1 -11 -4 -14 -12 -3
-10 2 -13 23 -8 18 3 34 -1 43 -9 12 -13 10 -14 -16 -9 -31 5 -88 -28 -77 -46
4 -5 1 -9 -5 -9 -7 0 -10 -6 -7 -14 9 -22 -3 -26 -22 -8 -19 19 -17 48 5 56
18 7 18 36 1 36 -7 0 -18 -5 -24 -11 -7 -7 -10 -4 -9 13 1 14 -5 23 -14 24
-26 1 -50 16 -50 31 0 11 7 13 30 8 29 -6 30 -5 24 19 -4 16 -2 26 5 26 6 0
10 -3 10 -7z m204 -7 c4 -10 0 -12 -14 -9 -22 6 -26 23 -5 23 8 0 16 -6 19
-14z m22 -55 c3 -5 1 -12 -5 -16 -5 -3 -10 1 -10 9 0 18 6 21 15 7z m-1875
-108 c0 -77 -16 -173 -30 -173 -4 0 -31 21 -60 47 -53 48 -53 48 -36 113 3 8
5 17 6 20 0 3 7 -10 15 -27 8 -18 19 -33 25 -33 9 0 15 22 11 44 -1 5 5 4 13
-4 14 -11 16 -9 16 14 0 14 5 26 10 26 6 0 10 5 10 10 0 6 -7 10 -15 10 -16 0
-10 30 9 42 18 12 26 -14 26 -89z m-312 53 c17 -6 22 -13 19 -27 -3 -10 -1
-19 4 -19 5 0 9 -5 9 -11 0 -6 -10 -9 -22 -7 -13 2 -22 9 -20 16 1 6 -3 12 -9
12 -5 0 -8 4 -4 9 3 5 -4 12 -15 16 -11 3 -20 10 -20 14 0 9 26 8 58 -3z
m-338 -21 c-7 -9 -15 -13 -18 -10 -3 2 1 11 8 20 7 9 15 13 18 10 3 -2 -1 -11
-8 -20z m1091 -52 c-14 -11 -14 -12 0 -13 8 0 20 5 27 12 9 9 17 6 37 -12 23
-21 23 -24 7 -36 -9 -7 -14 -16 -10 -20 5 -4 16 0 26 9 10 10 21 14 24 11 10
-9 48 15 48 30 0 8 7 17 16 20 8 3 12 11 8 17 -4 7 -1 10 6 7 8 -2 16 -10 18
-18 3 -7 0 -10 -6 -6 -6 3 -14 1 -18 -5 -3 -6 -1 -15 5 -19 9 -5 8 -10 -4 -20
-25 -20 -18 -36 15 -34 71 5 40 -32 -82 -96 -80 -42 -109 -48 -125 -27 -6 6
-13 70 -16 141 l-5 129 23 -29 c21 -26 21 -30 6 -41z m-1151 47 c0 -5 -5 -10
-11 -10 -5 0 -7 5 -4 10 3 6 8 10 11 10 2 0 4 -4 4 -10z m315 0 c3 -5 1 -10
-4 -10 -6 0 -11 5 -11 10 0 6 2 10 4 10 3 0 8 -4 11 -10z m2215 -4 c0 -9 -7
-12 -21 -9 -16 4 -17 8 -7 14 19 13 28 11 28 -5z m-176 -11 c-4 -8 -8 -15 -10
-15 -2 0 -4 7 -4 15 0 8 4 15 10 15 5 0 7 -7 4 -15z m193 -55 c-14 -21 -15
-21 -19 4 -6 31 12 53 25 31 5 -9 3 -23 -6 -35z m-87 24 c0 -2 -9 -4 -21 -4
-11 0 -18 4 -14 10 5 8 35 3 35 -6z m-2424 -19 c-50 -25 -64 -26 -51 -5 9 15
44 29 75 29 20 0 15 -5 -24 -24z m1339 -5 c3 -5 1 -10 -4 -10 -6 0 -11 5 -11
10 0 6 2 10 4 10 3 0 8 -4 11 -10z m290 -10 c-3 -5 0 -10 7 -10 8 0 6 -5 -5
-11 -24 -14 -34 -4 -17 16 14 17 25 20 15 5z m685 1 c0 -6 -9 -9 -20 -8 -11 1
-20 5 -20 9 0 4 9 8 20 8 11 0 20 -4 20 -9z m-1994 -48 c-11 -11 -17 4 -9 23
7 18 8 18 11 1 2 -10 1 -21 -2 -24z m1264 8 c-15 -29 -13 -33 23 -29 30 3 32
1 29 -25 -2 -21 0 -27 9 -21 7 4 9 3 6 -3 -14 -23 -90 -33 -149 -20 -51 11
-55 14 -44 29 10 13 114 81 134 87 1 1 -2 -8 -8 -18z m115 -47 c13 -5 14 -8 3
-15 -20 -13 -38 -11 -38 6 0 16 9 19 35 9z m-2782 -51 c-6 -15 -19 -9 -33 17
-9 16 -7 17 14 7 13 -6 21 -17 19 -24z m-59 3 c-3 -9 -10 -13 -15 -10 -5 3 -3
11 4 19 15 16 19 13 11 -9z m3009 -12 c28 -26 36 -39 28 -47 -8 -8 -11 -6 -11
6 0 10 -8 17 -20 17 -25 0 -26 -15 -2 -25 16 -6 16 -7 -1 -20 -11 -8 -25 -11
-33 -8 -8 3 -14 -1 -14 -11 0 -9 -4 -16 -10 -16 -5 0 -7 -6 -4 -14 8 -20 -12
-29 -37 -15 -17 9 -89 64 -137 104 -2 2 18 11 43 21 38 14 48 15 55 4 10 -16
30 -5 30 17 0 10 6 14 19 10 10 -2 25 -1 32 4 20 12 20 12 62 -27z m-1384 4
c10 -12 16 -30 13 -41 -4 -14 -7 -16 -14 -5 -7 10 -11 10 -22 -4 -7 -10 -16
-18 -18 -18 -9 0 -6 50 3 56 4 2 6 11 2 19 -8 23 17 18 36 -7z m1041 -58 c0
-5 -9 -9 -20 -7 -31 5 -36 17 -7 17 15 0 27 -4 27 -10z m166 -58 c65 -42 102
-78 68 -66 -10 4 -25 11 -31 17 -7 5 -13 6 -13 3 0 -4 -9 -2 -19 3 -14 8 -22
7 -31 -4 -7 -8 -9 -15 -6 -15 4 0 0 -7 -9 -16 -13 -14 -21 -15 -41 -5 -14 6
-23 15 -19 20 3 5 1 12 -5 16 -5 3 -10 17 -10 31 0 23 2 24 15 10 8 -8 15 -20
15 -26 0 -6 5 -8 10 -5 6 3 10 2 10 -4 0 -6 6 -8 14 -5 19 7 14 34 -12 54 -19
16 -20 30 -2 30 4 0 33 -17 66 -38z m-101 -102 c-3 -5 -12 -10 -18 -10 -7 0
-6 4 3 10 19 12 23 12 15 0z m905 -65 c0 -8 -4 -15 -10 -15 -5 0 -10 7 -10 15
0 8 5 15 10 15 6 0 10 -7 10 -15z m-875 -5 c17 -7 17 -9 3 -9 -10 -1 -18 -5
-18 -11 0 -5 -6 -10 -14 -10 -9 0 -12 7 -9 20 6 22 9 23 38 10z m122 -88 c3
-22 2 -22 -23 -6 -19 13 -22 19 -12 25 19 13 31 6 35 -19z m273 -27 c0 -20
-42 -37 -52 -21 -8 12 18 36 39 36 7 0 13 -7 13 -15z m120 -55 c0 -5 -4 -10
-10 -10 -5 0 -10 5 -10 10 0 6 5 10 10 10 6 0 10 -4 10 -10z"/>
<path d="M2977 2414 c-9 -10 2 -24 19 -24 8 0 14 7 14 15 0 15 -21 21 -33 9z"/>
<path d="M2426 2113 c-12 -12 -5 -23 14 -23 11 0 20 4 20 9 0 11 -26 22 -34
14z"/>
<path d="M3059 1382 c-28 -18 -29 -45 -1 -35 23 8 52 39 45 47 -9 9 -16 7 -44
-12z"/>
<path d="M5010 1955 c0 -9 5 -15 11 -13 6 2 11 8 11 13 0 5 -5 11 -11 13 -6 2
-11 -4 -11 -13z"/>
<path d="M5017 1932 c-20 -4 -21 -9 -4 -26 18 -18 46 -26 52 -16 9 14 -28 46
-48 42z"/>
<path d="M260 1455 c0 -8 7 -15 15 -15 8 0 15 7 15 15 0 8 -7 15 -15 15 -8 0
-15 -7 -15 -15z"/>
<path d="M1507 1113 c-7 -11 -2 -46 8 -63 13 -22 33 -9 31 20 0 17 -6 30 -13
30 -6 0 -13 5 -15 12 -3 8 -6 9 -11 1z"/>
<path d="M3400 1050 c0 -5 5 -10 10 -10 6 0 10 5 10 10 0 6 -4 10 -10 10 -5 0
-10 -4 -10 -10z"/>
<path d="M2006 905 c-3 -9 0 -15 9 -15 16 0 20 16 6 24 -5 3 -11 -1 -15 -9z"/>
</g>
</svg>
