<?xml version="1.0" encoding="UTF-8" ?>
<!DOCTYPE svg PUBLIC "-//W3C//DTD SVG 1.1//EN" "http://www.w3.org/Graphics/SVG/1.1/DTD/svg11.dtd">
<svg width="960pt" height="540pt" viewBox="0 0 960 540" version="1.1" xmlns="http://www.w3.org/2000/svg">
<g id="#ffffffff">
<path fill="#ffffff" opacity="1.00" d=" M 380.36 402.43 C 380.87 402.95 380.87 402.95 380.36 402.43 Z" />
<path fill="#ffffff" opacity="1.00" d=" M 382.18 402.35 C 382.69 402.87 382.69 402.87 382.18 402.35 Z" />
</g>
<g id="#000000ff">
<path fill="#000000" opacity="1.00" d=" M 470.22 19.03 C 471.77 19.13 473.32 19.22 474.88 19.31 C 475.88 21.85 475.51 24.53 474.55 27.02 C 479.69 29.70 485.87 31.41 490.34 34.77 C 489.46 40.18 491.49 44.46 493.24 49.30 C 493.73 49.43 494.71 49.70 495.20 49.83 C 494.41 53.60 493.40 57.32 492.55 61.08 C 497.37 63.25 499.90 69.53 497.35 74.30 C 500.75 74.91 504.21 75.29 507.65 74.80 C 509.15 79.78 507.62 85.62 504.30 89.57 C 510.46 91.31 518.04 98.31 515.44 105.20 C 519.39 106.85 519.72 111.33 520.39 114.99 C 523.37 115.26 525.63 116.89 525.86 120.02 C 523.05 121.73 520.72 124.10 518.57 126.56 C 520.86 126.79 523.15 127.02 525.44 127.30 C 525.31 132.07 527.87 135.89 531.69 138.51 C 524.33 145.38 534.34 154.04 532.12 162.62 C 531.35 162.17 530.57 161.71 529.81 161.26 C 529.68 161.63 529.41 162.37 529.27 162.75 C 530.61 164.85 531.76 167.07 532.63 169.41 C 529.22 171.79 525.85 174.22 522.25 176.28 C 523.04 177.26 523.84 178.23 524.65 179.21 C 523.77 181.72 523.10 184.30 522.54 186.90 C 520.19 187.34 518.11 188.50 516.29 190.01 C 520.66 197.82 529.45 193.14 535.92 191.17 C 536.95 191.67 537.97 192.18 539.01 192.70 C 541.77 180.90 551.18 186.35 554.66 194.33 C 549.67 197.38 546.96 203.66 550.52 208.85 C 551.34 208.50 552.16 208.15 552.99 207.80 C 556.01 209.72 559.51 210.58 562.80 211.90 C 562.90 217.41 557.37 217.83 553.28 216.85 C 554.04 224.68 553.48 232.49 550.54 239.84 C 546.61 240.29 542.68 240.80 538.88 241.92 C 539.92 244.13 541.06 246.30 542.21 248.47 C 541.52 248.57 540.15 248.77 539.46 248.87 C 547.96 255.99 550.24 264.39 561.26 267.44 C 561.15 265.83 561.03 264.23 560.89 262.63 C 563.06 262.63 565.24 262.62 567.41 262.61 C 568.80 259.24 571.41 256.20 575.43 257.36 C 578.24 261.60 574.22 264.70 572.00 267.95 C 572.88 268.66 573.78 269.35 574.67 270.07 C 576.42 266.07 581.74 258.02 585.70 264.36 C 584.55 273.15 573.01 275.29 572.43 284.73 C 577.34 284.27 585.81 282.55 586.38 289.54 C 588.60 289.04 590.83 288.58 593.07 288.23 C 595.59 297.19 584.07 298.84 581.15 304.99 C 582.01 305.46 582.87 305.94 583.75 306.41 C 585.73 300.74 595.07 295.85 594.94 305.21 C 594.06 305.38 593.20 305.56 592.34 305.75 C 592.24 307.79 592.09 309.84 591.90 311.88 C 586.86 313.48 573.22 309.96 575.97 318.64 C 575.51 319.42 575.04 320.20 574.58 320.99 C 575.16 321.29 576.31 321.88 576.89 322.18 C 578.04 320.96 579.18 319.73 580.34 318.51 C 581.27 319.15 582.22 319.79 583.17 320.42 C 591.40 316.20 590.48 326.43 590.78 331.74 C 588.43 332.68 586.07 333.59 583.67 334.40 C 579.95 329.52 572.38 337.87 571.15 342.32 C 574.68 340.94 579.55 335.59 581.93 341.25 C 580.87 346.92 574.43 350.96 574.26 357.10 C 579.76 359.01 582.96 353.02 587.25 350.78 C 591.76 354.93 597.12 345.61 600.01 352.24 C 598.96 356.26 595.58 359.10 593.44 362.56 C 591.26 362.51 589.08 362.48 586.90 362.48 C 586.36 365.74 584.07 368.17 581.78 370.38 C 582.78 371.36 583.79 372.33 584.82 373.29 C 584.03 377.56 584.47 381.99 587.90 385.06 C 591.60 382.47 596.45 382.82 595.92 388.37 C 591.97 390.40 586.23 393.83 584.61 387.34 C 583.88 388.64 583.14 389.93 582.39 391.22 C 578.35 391.39 573.91 392.36 572.82 396.87 C 574.12 397.16 575.44 397.45 576.76 397.74 C 576.33 398.69 575.89 399.64 575.46 400.60 C 576.18 401.36 576.90 402.11 577.62 402.88 C 576.55 405.27 575.50 407.68 574.81 410.21 C 579.19 400.25 589.03 407.34 586.60 416.19 C 589.32 418.79 591.06 422.15 592.06 425.76 C 588.18 429.29 585.06 433.55 581.10 437.00 C 582.02 438.57 582.94 440.16 583.86 441.74 C 584.51 441.41 585.16 441.09 585.82 440.78 C 588.27 443.16 591.48 443.67 594.62 442.42 C 595.07 439.64 595.74 436.90 596.49 434.19 C 607.59 432.67 601.86 449.77 594.83 450.91 C 595.98 451.49 597.14 452.07 598.31 452.65 C 598.35 453.88 598.39 455.12 598.45 456.36 C 605.24 454.56 609.96 467.71 601.71 468.45 C 599.83 465.63 598.58 459.80 594.20 461.26 C 592.10 466.53 585.94 469.80 580.42 468.16 C 580.60 467.17 580.78 466.18 580.96 465.20 C 576.52 465.78 569.34 467.87 572.09 473.80 C 571.14 474.50 570.18 475.18 569.23 475.87 C 566.10 470.48 561.34 458.91 553.73 465.58 C 554.11 466.04 554.87 466.97 555.25 467.44 C 554.63 468.78 553.98 470.11 553.38 471.47 C 554.25 472.03 555.13 472.61 556.02 473.19 C 555.76 474.43 555.51 475.68 555.26 476.93 C 556.28 476.75 557.32 476.57 558.36 476.40 C 557.51 478.16 556.62 479.89 555.71 481.62 C 554.73 481.38 553.75 481.16 552.78 480.93 C 552.72 479.85 552.66 478.76 552.61 477.69 C 550.85 476.93 549.06 476.25 547.22 475.70 C 536.55 473.90 523.28 467.52 514.16 476.41 C 516.67 478.52 519.83 482.41 515.14 483.96 C 513.47 481.73 511.67 479.61 509.75 477.60 C 508.39 479.72 510.08 481.31 511.60 482.67 C 506.85 492.35 500.61 479.81 498.14 474.90 C 496.93 475.39 495.73 475.89 494.53 476.39 C 493.57 475.03 492.23 474.10 490.71 473.47 C 490.83 475.51 491.01 477.55 491.14 479.60 C 492.17 479.54 493.21 479.49 494.25 479.44 C 494.63 481.60 493.48 483.43 492.21 485.05 C 491.66 484.72 490.56 484.04 490.02 483.70 C 489.94 482.58 489.88 481.47 489.84 480.36 C 488.71 480.54 487.58 480.73 486.45 480.92 C 486.58 479.51 486.71 478.10 486.85 476.69 C 483.40 476.51 480.15 475.28 477.00 473.96 C 476.58 482.50 477.62 491.00 477.55 499.53 C 473.60 500.60 469.39 501.09 465.60 499.18 C 467.56 489.66 463.06 481.57 462.13 472.69 C 463.13 472.71 464.13 472.73 465.14 472.76 C 465.68 469.30 466.00 465.82 465.97 462.33 C 464.66 461.83 463.36 461.33 462.06 460.84 C 463.00 459.20 463.94 457.57 464.88 455.94 C 464.13 454.68 463.39 453.42 462.65 452.16 C 462.09 453.14 461.54 454.14 460.99 455.14 C 459.46 454.91 457.94 454.69 456.42 454.48 C 453.44 457.79 450.37 461.01 447.66 464.55 C 447.86 468.59 445.78 472.49 447.36 476.49 C 446.36 477.66 445.33 478.80 444.30 479.95 C 445.09 480.97 445.87 481.98 446.66 483.01 C 444.90 482.71 443.13 482.42 441.38 482.11 C 441.87 481.39 442.36 480.68 442.85 479.98 C 440.33 477.95 439.00 474.98 437.96 472.00 C 425.03 478.22 415.63 488.27 415.06 503.06 C 408.15 505.30 408.44 496.78 411.61 493.08 C 408.44 493.57 405.22 493.24 402.25 491.99 C 402.63 489.49 403.24 487.04 404.01 484.64 C 405.01 484.74 406.01 484.84 407.02 484.95 C 407.77 484.24 408.52 483.55 409.28 482.86 C 410.15 483.18 411.03 483.50 411.92 483.83 C 412.20 483.09 412.49 482.37 412.78 481.65 C 416.96 480.24 421.99 482.06 425.53 479.02 C 420.54 472.65 404.94 475.99 407.17 465.10 C 410.63 466.73 414.15 468.26 417.87 469.20 C 417.72 467.31 417.30 465.47 416.55 463.74 C 417.88 463.13 419.27 462.64 420.71 462.36 C 420.70 463.05 420.67 464.44 420.66 465.13 C 424.29 464.60 426.94 462.03 429.43 459.55 C 416.43 450.27 407.44 464.94 397.20 470.42 C 397.33 469.96 397.59 469.03 397.72 468.56 C 395.65 468.14 393.79 467.15 392.09 465.96 C 391.26 466.52 390.45 467.09 389.65 467.67 C 387.62 465.93 386.95 463.33 386.41 460.83 C 384.27 460.78 382.13 460.75 379.99 460.73 C 381.04 459.30 382.11 457.89 383.18 456.48 C 372.79 454.28 364.30 460.29 355.23 463.85 C 353.59 461.54 351.60 458.66 354.36 456.37 C 351.13 454.60 347.90 452.75 344.28 451.94 C 344.00 450.86 343.73 449.78 343.47 448.72 C 334.74 445.05 326.68 451.40 317.85 451.29 C 318.72 443.20 320.87 435.01 319.76 426.52 C 322.39 424.95 325.37 425.91 328.07 426.70 C 327.11 425.03 326.13 423.37 325.13 421.74 C 329.22 419.53 330.54 415.35 329.64 410.96 C 331.85 411.26 334.04 411.65 336.21 412.13 C 336.15 415.71 335.76 419.47 333.13 422.16 C 334.05 422.78 334.98 423.40 335.92 424.03 C 337.71 420.82 338.75 417.29 340.16 413.92 C 334.31 407.48 351.23 399.57 351.30 409.42 C 353.93 408.51 356.71 408.08 359.50 408.24 C 362.24 404.60 365.33 400.41 370.18 399.76 C 370.29 400.34 370.49 401.51 370.59 402.09 C 371.34 401.55 372.08 401.00 372.84 400.46 C 374.59 401.43 376.35 402.38 378.13 403.30 C 376.91 400.79 375.59 398.33 374.21 395.91 C 376.08 390.13 380.68 384.90 386.65 389.66 C 386.30 386.20 383.31 384.28 380.47 382.87 C 380.07 381.82 379.67 380.77 379.28 379.73 C 371.05 376.10 362.40 378.89 353.78 378.42 C 352.65 370.31 347.70 362.65 348.76 354.71 C 344.13 354.69 339.96 352.55 338.09 348.15 C 341.00 344.82 345.52 345.45 349.47 345.32 C 352.22 349.24 355.62 352.62 358.86 356.12 C 359.89 354.95 360.93 353.78 361.99 352.62 C 357.82 348.81 349.36 342.05 354.80 336.66 C 354.34 335.81 353.88 334.97 353.42 334.14 C 355.30 332.68 357.50 331.78 359.79 331.18 C 360.44 334.04 361.00 336.92 361.32 339.85 C 361.76 340.17 362.63 340.81 363.07 341.13 C 366.04 335.59 360.90 329.44 364.82 324.29 C 367.95 325.34 371.11 326.29 374.36 326.90 C 373.26 319.06 366.09 316.63 359.95 313.71 C 361.65 304.56 375.47 314.26 374.22 301.93 C 368.40 303.04 353.08 307.27 358.82 296.32 C 360.08 296.43 361.34 296.55 362.61 296.64 C 365.07 294.19 368.46 293.41 371.77 292.90 C 370.65 290.02 368.89 287.44 366.38 285.62 C 366.20 286.00 365.86 286.78 365.68 287.16 C 358.97 285.75 350.24 283.92 354.26 275.03 C 352.54 267.27 362.07 268.44 362.20 275.26 C 361.54 276.09 360.89 276.92 360.25 277.75 C 361.42 278.47 362.60 279.20 363.78 279.93 C 365.66 277.81 368.04 276.25 370.79 275.51 C 369.12 269.69 363.53 265.30 361.76 259.11 C 365.47 255.00 369.59 257.46 370.44 262.34 C 371.08 262.32 371.72 262.31 372.37 262.30 C 372.28 263.21 372.20 264.13 372.12 265.04 C 374.78 265.62 377.50 265.93 380.23 265.90 C 374.80 262.31 373.23 256.17 372.95 250.03 C 370.92 249.72 368.88 249.45 366.84 249.23 C 370.78 241.74 354.70 228.98 369.18 229.44 C 368.83 224.56 370.50 220.02 375.87 219.23 C 377.49 222.24 376.10 229.75 381.34 228.14 C 388.15 222.51 377.24 212.92 383.09 208.89 C 379.32 206.17 380.02 202.10 382.96 199.00 C 374.64 197.54 371.18 179.59 382.46 184.18 C 382.88 187.13 383.44 190.07 384.19 192.97 C 394.67 192.86 393.14 175.37 403.12 178.96 C 402.30 184.07 407.19 183.39 410.59 182.80 C 413.22 184.89 413.98 188.64 416.68 190.80 C 415.06 192.61 413.47 194.44 411.88 196.28 C 415.31 198.36 419.94 197.63 422.58 201.10 C 421.59 193.39 425.19 186.18 422.91 179.03 C 419.09 178.33 415.25 177.71 411.44 176.92 C 411.43 175.40 411.40 173.88 411.37 172.37 C 412.51 171.83 413.65 171.29 414.81 170.76 C 413.57 169.72 412.34 168.69 411.11 167.67 C 411.97 165.87 412.96 164.14 414.11 162.52 C 416.56 163.91 419.29 164.66 422.03 165.27 C 420.14 162.49 418.01 159.28 421.08 156.49 C 420.48 155.58 419.88 154.68 419.28 153.78 C 419.48 152.27 419.69 150.76 419.91 149.26 C 419.42 149.31 418.45 149.40 417.97 149.45 C 419.22 146.80 420.76 144.05 420.22 141.01 C 415.55 139.35 410.92 134.68 414.99 129.92 C 414.08 128.62 413.17 127.32 412.28 126.02 C 413.12 124.68 413.96 123.33 414.79 121.98 C 411.74 119.27 411.27 115.14 409.56 111.66 C 415.06 104.20 420.12 96.64 430.13 103.08 C 429.22 105.59 430.16 108.05 431.43 110.24 C 432.54 107.29 433.81 104.40 435.55 101.76 C 434.17 98.42 433.29 94.54 437.17 92.52 C 432.30 89.60 431.73 85.71 434.77 80.89 C 432.13 76.51 433.29 69.62 439.76 71.67 C 440.26 70.81 440.76 69.96 441.26 69.10 C 437.85 66.30 433.35 62.51 436.65 57.78 C 432.22 55.68 426.11 52.26 431.61 47.27 C 435.60 50.00 440.31 49.53 444.75 48.42 C 444.42 46.51 444.19 44.59 444.08 42.66 C 440.30 42.28 439.67 38.57 440.51 35.47 C 445.18 34.55 448.73 31.15 453.06 29.38 C 454.21 23.66 459.36 26.18 462.18 29.14 C 465.43 26.26 467.91 22.68 470.22 19.03 M 434.95 112.95 C 435.61 114.09 436.28 115.23 436.96 116.37 C 437.30 114.95 437.63 113.52 437.96 112.09 C 436.95 112.38 435.95 112.66 434.95 112.95 M 434.92 123.69 C 434.02 126.00 435.07 128.00 437.06 129.28 C 438.12 127.00 436.36 125.22 434.92 123.69 M 514.77 132.11 C 514.95 137.94 520.90 131.50 514.77 132.11 M 521.26 147.80 C 520.35 150.34 519.94 153.02 519.93 155.71 C 521.15 155.43 522.39 155.15 523.63 154.87 C 523.76 152.26 523.28 149.63 521.26 147.80 M 520.23 165.25 C 519.73 167.50 519.28 169.77 519.00 172.06 C 520.58 169.93 521.87 167.61 523.01 165.22 C 522.32 165.23 520.93 165.24 520.23 165.25 M 394.08 207.36 C 394.43 204.23 394.32 201.06 393.84 197.95 C 390.94 200.73 390.52 204.84 394.08 207.36 M 386.76 214.21 C 388.76 219.20 392.87 211.46 386.76 214.21 M 393.06 218.39 C 393.74 217.22 394.40 216.03 395.06 214.85 C 391.82 212.79 391.30 216.18 393.06 218.39 M 394.65 218.32 C 396.64 220.21 398.58 222.22 399.87 224.67 C 402.12 224.67 404.36 224.72 406.61 224.84 C 405.86 223.17 405.16 221.49 404.46 219.81 C 403.62 220.40 402.78 221.00 401.96 221.60 C 399.52 220.51 397.08 219.43 394.65 218.32 M 394.95 236.70 C 397.32 237.76 399.79 238.60 402.34 239.13 C 402.53 236.58 402.94 234.06 403.73 231.63 C 399.31 229.06 395.19 231.67 394.95 236.70 M 373.75 232.85 C 373.79 234.64 373.87 236.43 374.05 238.22 C 375.08 237.29 376.12 236.37 377.03 235.32 C 375.94 234.48 374.84 233.66 373.75 232.85 M 530.13 271.25 C 526.00 275.53 535.49 272.70 530.13 271.25 M 575.26 291.40 C 574.90 292.53 574.54 293.66 574.19 294.79 C 578.93 296.01 584.27 296.23 585.74 290.50 C 582.32 291.41 578.78 291.86 575.26 291.40 M 562.85 307.14 C 561.55 310.07 561.42 313.29 561.49 316.44 C 562.72 316.30 563.95 316.16 565.19 316.02 C 564.73 313.37 564.68 310.66 565.30 308.03 C 564.48 307.72 563.67 307.42 562.85 307.14 M 571.19 325.33 C 567.73 329.69 575.92 326.45 571.19 325.33 M 374.88 325.32 C 374.95 326.98 375.05 328.65 375.16 330.31 C 376.29 329.53 377.44 328.76 378.57 327.97 C 377.49 326.87 376.36 325.81 374.88 325.32 M 525.78 327.08 C 524.92 328.56 524.07 330.05 523.24 331.54 C 525.36 331.39 527.43 330.83 529.42 330.09 C 528.23 329.04 527.02 328.04 525.78 327.08 M 555.38 330.16 C 551.69 334.21 561.17 331.63 555.38 330.16 M 368.70 354.28 C 370.25 355.16 371.92 355.80 373.67 356.20 C 373.71 354.75 373.75 353.30 373.79 351.86 C 372.07 352.63 370.37 353.41 368.70 354.28 M 559.50 362.92 C 562.17 362.92 564.84 362.72 567.46 362.14 C 566.68 358.70 565.69 355.33 564.45 352.04 C 559.89 353.81 560.22 358.89 559.50 362.92 M 398.23 359.87 C 399.06 362.09 399.99 364.28 401.01 366.43 C 401.69 365.11 402.36 363.78 403.03 362.46 C 401.44 361.57 399.84 360.70 398.23 359.87 M 356.62 362.89 C 356.91 364.58 357.18 366.28 357.44 367.99 C 358.54 368.45 359.64 368.93 360.75 369.41 C 361.07 370.92 361.39 372.44 361.71 373.96 C 363.25 373.29 364.80 372.65 366.36 372.01 C 365.35 371.73 364.35 371.46 363.35 371.20 C 363.55 367.98 363.01 364.80 362.05 361.74 C 360.26 362.22 358.45 362.59 356.62 362.89 M 567.96 360.82 C 568.01 362.48 568.11 364.15 568.21 365.81 C 569.20 365.48 570.20 365.16 571.20 364.83 C 570.38 363.30 569.49 361.74 567.96 360.82 M 564.29 367.75 C 563.52 369.46 563.09 371.28 562.93 373.14 C 564.68 371.80 564.94 369.74 564.29 367.75 M 376.20 375.99 C 372.83 380.09 381.39 376.96 376.20 375.99 M 577.32 389.11 C 573.81 393.08 582.48 390.25 577.32 389.11 M 567.00 407.01 C 569.52 405.82 571.30 403.70 572.13 401.05 C 569.01 401.53 567.41 404.08 567.00 407.01 M 380.36 402.43 C 380.87 402.95 380.87 402.95 380.36 402.43 M 382.18 402.35 C 382.69 402.87 382.69 402.87 382.18 402.35 M 375.42 403.86 C 379.66 405.76 377.83 410.95 381.77 412.94 C 382.29 412.66 383.35 412.11 383.87 411.83 C 383.42 410.77 382.98 409.72 382.54 408.67 C 384.80 408.97 387.05 409.31 389.32 409.59 C 387.51 403.22 380.99 402.80 375.42 403.86 M 361.22 409.17 C 360.91 409.44 360.28 409.97 359.97 410.23 C 360.17 414.53 357.71 417.81 353.35 418.32 C 354.62 420.31 355.87 422.32 357.13 424.33 C 358.94 423.51 360.76 422.67 362.55 421.80 C 359.93 418.09 360.57 414.29 364.84 412.38 C 363.64 411.30 362.43 410.23 361.22 409.17 M 392.18 410.73 C 390.31 416.31 397.39 411.56 392.18 410.73 M 571.66 415.60 C 571.58 416.76 571.49 417.93 571.42 419.10 C 573.00 418.77 574.60 418.44 576.19 418.10 C 576.11 417.34 575.93 415.81 575.85 415.05 C 574.44 415.23 573.05 415.41 571.66 415.60 M 387.55 425.09 C 388.19 422.95 388.67 420.77 388.92 418.55 C 386.33 419.94 386.10 422.78 387.55 425.09 M 569.81 425.69 C 571.11 426.46 572.43 427.20 573.77 427.93 C 574.21 426.62 574.66 425.32 575.10 424.02 C 573.26 424.31 571.46 424.82 569.81 425.69 M 331.85 429.73 C 334.12 429.43 336.37 429.04 338.63 428.64 C 338.66 428.04 338.74 426.84 338.77 426.24 C 335.81 425.93 333.21 426.96 331.85 429.73 M 363.47 429.20 C 361.68 434.16 368.56 429.11 363.47 429.20 M 394.27 432.18 C 394.01 437.28 399.24 430.13 394.27 432.18 M 364.13 432.90 C 363.68 434.70 363.24 436.51 362.87 438.34 C 364.53 437.12 366.07 435.74 367.45 434.20 C 366.34 433.76 365.23 433.32 364.13 432.90 M 513.19 433.14 C 512.15 437.77 517.81 432.13 513.19 433.14 M 330.68 435.25 C 331.12 436.59 331.57 437.94 332.04 439.29 C 332.84 438.21 333.64 437.14 334.44 436.06 C 333.18 435.78 331.93 435.51 330.68 435.25 M 358.48 435.25 C 357.81 441.16 364.53 433.97 358.48 435.25 M 492.12 437.36 C 489.82 442.74 497.75 437.10 492.12 437.36 M 569.18 437.58 C 569.69 439.87 570.32 442.13 571.04 444.37 C 572.99 441.70 572.61 438.66 569.18 437.58 M 456.89 441.78 C 456.77 442.28 456.52 443.29 456.40 443.80 C 456.95 444.69 457.51 445.58 458.08 446.48 C 458.41 445.88 459.09 444.69 459.42 444.09 C 458.58 443.31 457.73 442.54 456.89 441.78 M 577.95 443.45 C 573.62 448.42 581.76 447.40 577.95 443.45 M 377.20 444.31 C 372.78 447.18 381.41 447.23 377.20 444.31 M 383.56 446.22 C 382.54 451.81 389.03 445.87 383.56 446.22 M 429.04 447.17 C 425.93 450.63 433.67 448.33 429.04 447.17 M 435.74 451.90 C 437.84 451.80 439.96 451.67 442.07 451.53 C 441.40 447.20 435.50 446.95 435.74 451.90 M 573.29 447.63 C 573.28 448.44 573.27 450.05 573.26 450.86 C 573.99 450.86 575.43 450.87 576.16 450.87 C 575.44 449.59 574.85 448.05 573.29 447.63 M 507.80 449.15 C 509.56 450.84 511.89 451.59 514.20 450.52 C 512.11 449.86 509.97 449.40 507.80 449.15 M 541.14 457.64 C 543.01 458.53 544.89 459.44 546.72 460.43 C 547.01 459.64 547.30 458.85 547.61 458.06 C 549.79 457.52 552.03 456.72 553.11 454.57 C 550.26 453.39 547.15 451.86 544.09 453.25 C 543.87 452.67 543.44 451.51 543.22 450.93 C 542.28 453.08 541.64 455.35 541.14 457.64 M 443.97 459.39 C 444.30 458.31 444.64 457.25 444.98 456.18 C 449.26 459.46 453.69 457.17 455.19 452.38 C 450.94 451.78 436.77 454.42 443.97 459.39 M 483.01 453.23 C 483.17 455.75 484.86 457.38 487.11 458.24 C 488.06 456.80 489.03 455.37 489.99 453.94 C 487.68 453.58 485.34 453.36 483.01 453.23 M 392.65 455.97 C 394.81 458.01 397.40 459.50 400.04 460.84 C 402.51 459.10 406.14 456.19 407.63 460.61 C 409.19 459.37 410.77 458.14 412.34 456.91 C 405.87 455.52 399.23 455.09 392.65 455.97 M 426.83 455.10 C 427.82 458.24 431.50 457.61 434.09 457.91 C 431.93 456.40 429.47 455.34 426.83 455.10 M 587.77 456.36 C 588.53 458.43 589.96 460.11 591.83 461.30 C 591.45 459.61 591.02 457.94 590.61 456.28 C 589.90 456.30 588.48 456.34 587.77 456.36 M 485.73 463.07 C 490.19 467.44 494.33 462.19 496.27 458.24 C 492.29 458.64 488.97 460.94 485.73 463.07 M 513.67 458.05 C 514.51 461.58 511.10 464.29 507.88 462.66 C 507.69 463.00 507.32 463.68 507.14 464.02 C 509.43 465.21 511.81 466.24 514.23 467.17 C 514.34 465.91 514.45 464.65 514.57 463.40 C 516.05 463.41 517.54 463.44 519.04 463.48 C 516.89 462.05 515.01 460.26 513.67 458.05 M 442.59 460.96 C 442.94 462.71 443.28 464.47 443.63 466.24 C 445.50 464.58 447.04 462.60 448.32 460.47 C 446.40 460.58 444.49 460.75 442.59 460.96 M 435.23 462.36 C 430.85 463.69 430.17 469.97 434.31 471.87 C 439.76 472.63 440.35 463.18 435.23 462.36 M 483.42 464.50 C 483.01 465.52 482.62 466.54 482.24 467.57 C 484.76 468.30 487.33 468.83 489.93 469.17 C 488.63 467.38 487.28 465.63 485.90 463.91 C 485.28 464.06 484.04 464.35 483.42 464.50 M 520.08 464.84 C 520.15 466.34 520.22 467.85 520.31 469.36 C 522.42 468.96 522.61 466.59 523.31 464.96 C 522.50 464.93 520.89 464.87 520.08 464.84 M 525.55 470.86 C 526.96 470.97 528.38 471.08 529.81 471.18 C 530.28 469.93 530.76 468.69 531.23 467.45 C 531.78 467.44 532.88 467.43 533.43 467.42 C 532.94 466.63 532.45 465.85 531.96 465.08 C 529.59 466.73 527.21 468.45 525.55 470.86 M 499.66 467.45 C 500.09 469.28 500.47 471.14 500.75 473.01 C 502.15 471.93 503.58 470.89 505.03 469.88 C 503.21 469.12 501.42 468.31 499.66 467.45 M 421.38 468.80 C 421.03 469.40 420.34 470.59 419.99 471.18 C 421.34 471.35 422.70 471.51 424.07 471.69 C 423.13 470.75 422.25 469.78 421.38 468.80 M 426.08 471.55 C 424.31 476.03 430.65 471.14 426.08 471.55 M 427.26 475.58 C 428.89 475.67 430.53 475.58 432.13 475.22 C 431.41 474.33 430.68 473.44 429.95 472.56 C 429.04 473.55 428.14 474.56 427.26 475.58 Z" />
</g>
</svg>
