<?xml version="1.0" encoding="UTF-8" ?>
<!DOCTYPE svg PUBLIC "-//W3C//DTD SVG 1.1//EN" "http://www.w3.org/Graphics/SVG/1.1/DTD/svg11.dtd">
<svg width="960pt" height="540pt" viewBox="0 0 960 540" version="1.1" xmlns="http://www.w3.org/2000/svg">
<g id="#ffffffff">
</g>
<g id="#000000ff">
<path fill="#000000" opacity="1.00" d=" M 422.65 50.80 C 427.14 46.97 438.01 36.31 437.51 49.24 C 441.94 43.50 448.64 48.75 451.09 53.61 C 460.04 54.02 465.85 62.61 471.92 67.22 C 472.52 60.29 477.27 55.76 484.34 57.56 C 484.32 52.14 485.48 45.02 492.75 46.96 C 492.78 52.53 495.47 57.12 500.22 59.97 C 497.09 62.26 493.59 63.98 490.49 66.32 C 493.81 65.60 497.23 65.46 500.57 66.19 C 500.92 67.44 501.28 68.68 501.64 69.93 C 499.50 71.73 497.34 73.52 495.29 75.41 C 499.17 76.81 502.24 74.25 505.00 71.88 C 506.38 72.51 507.77 73.15 509.17 73.81 C 511.52 77.94 514.18 82.65 512.37 87.54 C 515.54 88.59 518.88 88.71 522.18 88.61 C 523.20 86.17 524.34 83.77 525.74 81.52 C 526.61 83.67 527.43 85.85 528.21 88.04 C 528.97 86.56 529.73 85.08 530.52 83.61 C 537.68 82.73 544.95 83.83 552.07 82.46 C 552.56 84.80 552.40 87.23 550.75 89.09 C 551.25 90.64 551.74 92.18 552.24 93.73 C 549.82 94.46 547.39 95.14 544.97 95.82 C 544.33 103.09 534.89 109.79 527.96 106.43 C 527.37 108.46 526.77 110.48 526.21 112.51 C 524.34 112.37 522.47 112.18 520.62 111.98 C 520.49 113.90 520.33 115.82 520.16 117.74 C 523.61 117.43 528.34 116.31 529.48 120.76 C 537.46 121.64 539.14 129.66 543.46 134.86 C 543.95 130.40 543.88 125.86 545.13 121.50 C 546.61 122.02 548.10 122.53 549.60 123.02 C 549.20 124.09 548.81 125.16 548.42 126.23 C 552.80 123.20 558.42 124.26 562.93 121.68 C 563.21 124.09 563.62 126.51 564.65 128.73 C 565.16 127.33 565.63 125.92 566.08 124.51 C 569.39 124.42 572.69 124.22 575.99 123.85 C 577.21 126.48 579.15 128.64 581.44 130.40 C 581.26 136.21 576.50 139.53 572.41 142.83 C 571.38 141.91 570.36 140.99 569.35 140.07 C 569.00 142.31 568.35 144.50 567.11 146.41 C 568.18 151.13 563.99 154.21 560.17 155.82 C 564.74 160.02 558.41 167.78 566.64 169.84 C 566.84 172.86 566.96 175.89 567.10 178.92 C 567.94 179.17 568.79 179.43 569.65 179.69 C 570.84 177.37 572.41 175.01 575.28 174.78 C 576.35 178.23 579.05 180.23 582.52 180.83 C 583.18 179.64 583.84 178.44 584.50 177.24 C 590.75 178.34 587.04 185.42 586.21 189.43 C 590.94 186.92 595.10 189.69 592.21 194.86 C 603.36 201.35 582.06 208.38 593.54 211.42 C 593.64 212.45 593.73 213.48 593.84 214.52 C 595.38 214.58 596.93 214.63 598.48 214.70 C 597.75 216.71 597.35 218.82 597.74 220.95 C 600.04 220.71 602.35 220.43 604.66 220.19 C 605.77 221.82 606.86 223.46 607.96 225.11 C 610.51 222.80 612.71 220.13 614.50 217.19 C 615.78 217.75 617.06 218.34 618.32 218.98 C 616.72 224.25 622.47 225.72 625.29 228.81 C 627.83 233.07 624.26 239.58 619.04 238.84 C 618.62 239.72 618.22 240.61 617.82 241.51 C 619.76 241.47 621.69 241.45 623.64 241.48 C 623.35 243.04 623.03 244.59 622.70 246.15 C 629.34 249.94 641.70 249.98 633.59 260.56 C 631.06 259.84 628.54 259.12 626.03 258.35 C 625.70 260.84 625.02 263.30 623.55 265.38 C 622.00 264.34 620.46 263.30 618.93 262.24 C 617.60 263.44 616.27 264.65 614.95 265.85 C 610.18 265.45 606.29 260.69 601.39 263.19 C 599.93 260.10 596.72 260.98 594.10 261.75 C 594.71 262.56 595.35 263.37 595.98 264.18 C 593.56 273.26 602.02 267.94 606.15 265.72 C 606.15 269.61 604.41 273.10 602.07 276.10 C 605.79 276.24 610.16 277.98 608.01 282.41 C 601.23 282.78 595.49 285.85 591.73 277.88 C 590.26 284.52 595.86 290.45 593.23 296.83 C 590.70 297.10 588.17 297.38 585.64 297.63 C 585.75 299.28 585.88 300.94 586.04 302.59 C 585.28 303.34 584.54 304.10 583.80 304.85 C 586.49 308.11 584.54 311.44 582.24 314.21 C 582.39 314.59 582.69 315.35 582.84 315.73 C 586.02 313.56 590.38 311.03 593.67 314.50 C 594.02 317.76 589.08 319.08 587.00 321.12 C 592.94 322.33 596.78 316.11 600.09 312.17 C 599.24 311.06 598.41 309.95 597.59 308.84 C 600.84 307.44 604.26 306.51 607.80 306.25 C 608.32 307.79 608.84 309.33 609.46 310.85 C 612.80 307.12 611.90 301.50 614.28 297.20 C 615.55 297.08 616.82 296.97 618.10 296.86 C 618.43 299.40 618.49 301.96 618.65 304.52 C 621.77 302.90 622.27 300.00 620.83 296.97 C 622.87 294.49 624.52 291.73 625.85 288.81 C 629.92 288.93 632.66 284.10 636.80 285.90 C 636.57 287.84 636.32 289.78 636.08 291.72 C 638.54 292.17 641.00 292.68 643.43 293.31 C 643.66 295.84 644.03 298.36 644.51 300.86 C 643.88 301.72 643.27 302.59 642.66 303.47 C 641.80 303.04 640.95 302.62 640.10 302.20 C 639.02 305.80 635.37 305.54 632.34 305.09 C 631.74 309.63 633.45 313.88 636.83 316.94 C 635.84 317.94 634.87 318.95 633.91 319.96 C 632.76 318.65 631.62 317.33 630.48 316.01 C 629.62 317.66 628.82 319.33 628.04 321.02 C 629.55 321.22 631.08 321.41 632.62 321.60 C 632.93 322.69 633.26 323.78 633.60 324.87 C 627.83 328.37 623.15 320.24 617.10 322.47 C 620.82 325.75 628.62 327.23 625.96 333.95 C 622.01 330.86 618.29 327.33 613.53 325.52 C 612.95 326.05 612.37 326.58 611.80 327.11 C 615.94 331.34 627.82 332.51 620.65 340.65 C 619.43 340.17 618.21 339.70 616.99 339.29 C 618.40 340.75 619.87 342.17 621.44 343.48 C 621.18 344.76 620.92 346.05 620.69 347.34 C 618.41 346.57 611.05 340.82 614.81 346.06 C 620.83 349.14 625.90 353.50 624.92 360.99 C 626.57 360.47 628.22 359.94 629.87 359.41 C 631.06 363.70 631.78 368.15 631.30 372.61 C 633.41 374.09 635.56 375.53 637.66 377.04 C 636.67 378.72 635.64 380.37 634.61 382.01 C 637.23 386.32 635.11 391.15 634.34 395.65 C 633.51 395.98 632.69 396.32 631.88 396.66 C 625.45 394.42 621.03 389.20 615.31 385.89 C 615.64 381.51 615.47 377.12 615.02 372.76 C 610.39 374.26 605.65 371.32 601.06 373.18 C 600.91 371.88 600.75 370.59 600.60 369.29 C 601.52 368.70 602.44 368.10 603.36 367.51 C 602.43 361.74 605.14 356.45 608.06 351.68 C 605.50 349.42 602.09 348.98 598.81 349.05 C 600.75 350.73 603.30 351.40 605.44 352.79 C 602.50 355.64 600.46 359.21 599.11 363.05 C 593.83 365.09 586.60 366.48 584.27 372.26 C 585.09 377.50 586.70 384.41 580.47 387.16 C 579.21 385.27 577.98 383.37 576.75 381.47 C 574.43 382.72 572.11 384.01 569.68 385.03 C 568.99 383.99 568.35 382.94 567.71 381.89 C 566.83 383.80 565.54 385.46 563.55 386.29 C 562.51 383.08 561.63 379.58 558.62 377.61 C 559.75 383.85 560.43 391.19 566.04 395.21 C 569.56 392.70 572.86 389.90 576.07 387.01 C 576.38 388.24 576.69 389.48 577.02 390.73 C 575.65 392.08 574.29 393.44 572.95 394.82 C 574.49 394.69 576.04 394.55 577.59 394.42 C 578.01 395.17 578.44 395.92 578.88 396.68 C 576.73 398.42 574.64 400.21 572.60 402.07 C 575.20 404.54 578.64 404.97 582.07 404.74 C 583.98 408.36 590.69 411.68 585.64 415.86 C 588.10 416.89 589.81 418.91 590.70 421.40 C 590.12 421.68 588.97 422.23 588.39 422.51 C 589.11 425.25 589.49 428.11 588.99 430.93 C 577.90 429.27 566.70 423.51 565.50 411.02 C 565.08 410.99 564.25 410.94 563.83 410.92 C 562.83 413.31 561.80 415.68 560.74 418.05 C 554.60 412.28 555.00 401.17 559.79 394.42 C 557.34 391.38 554.82 388.39 551.93 385.76 C 551.78 387.47 551.68 389.19 551.59 390.91 C 550.01 390.16 548.42 389.42 546.83 388.72 C 546.85 386.35 546.80 383.98 546.53 381.63 C 541.92 382.73 538.18 379.02 533.76 378.49 C 537.86 382.84 539.41 388.52 539.60 394.36 C 535.63 401.15 536.61 412.22 543.47 417.05 C 541.09 421.65 543.21 426.56 543.13 431.22 C 538.61 432.79 534.06 435.20 531.96 439.85 C 528.43 439.88 525.62 437.55 522.53 436.22 C 525.81 440.98 519.83 453.96 517.62 443.34 C 514.30 447.84 508.82 444.34 506.47 440.71 C 500.96 448.62 486.82 444.09 485.64 434.92 C 487.06 432.11 488.16 429.15 487.61 425.94 C 486.44 426.15 485.28 426.38 484.13 426.61 C 484.70 423.42 485.18 420.22 485.72 417.04 C 484.30 417.53 482.88 418.04 481.46 418.53 C 483.94 445.51 479.45 473.11 485.95 499.81 C 476.93 501.91 467.14 502.48 458.20 499.84 C 459.81 473.97 462.11 446.02 462.00 419.22 C 460.55 418.48 459.10 417.76 457.66 417.03 C 458.14 414.64 458.64 412.26 459.10 409.87 C 455.82 409.52 452.54 409.21 449.26 409.00 C 448.95 409.38 448.34 410.13 448.03 410.50 C 451.39 417.56 452.38 426.35 447.31 432.91 C 456.71 442.38 435.38 454.51 434.34 442.00 C 426.05 444.20 416.87 461.06 408.88 449.96 C 407.88 454.49 403.41 455.96 399.80 457.90 C 407.61 463.22 402.72 468.77 395.21 469.72 C 393.35 468.53 391.47 467.40 389.53 466.37 C 388.01 460.29 384.85 453.89 389.00 448.05 C 387.82 448.81 386.65 449.58 385.49 450.36 C 384.41 449.41 383.32 448.48 382.22 447.57 C 383.80 445.54 385.45 443.56 387.16 441.64 C 384.57 435.20 392.02 432.17 392.24 426.29 C 389.49 426.16 386.74 426.17 384.00 426.45 C 382.56 419.03 374.86 418.57 371.65 412.94 C 370.33 414.30 369.03 415.68 367.74 417.07 C 365.24 411.77 359.43 410.86 354.76 408.36 C 353.48 409.22 352.20 410.08 350.91 410.93 C 350.42 407.16 351.06 403.36 352.67 399.92 C 351.73 399.54 350.80 399.16 349.87 398.78 C 347.71 401.31 346.96 404.35 349.15 407.15 C 349.03 407.89 348.79 409.38 348.68 410.12 C 346.20 410.02 343.74 409.73 341.28 409.45 C 341.45 408.08 341.62 406.71 341.80 405.35 C 334.69 405.91 327.40 405.83 322.03 400.20 C 322.73 399.35 323.43 398.51 324.14 397.67 C 323.54 396.45 322.93 395.24 322.33 394.04 C 323.83 391.17 326.64 389.76 329.82 389.69 C 329.61 388.14 329.40 386.59 329.21 385.05 C 331.72 383.28 334.55 383.39 337.16 384.90 C 337.87 383.75 338.56 382.59 339.25 381.43 C 340.63 381.65 342.02 381.87 343.41 382.09 C 342.82 383.79 342.31 385.53 341.85 387.28 C 346.50 383.29 352.13 382.18 358.09 382.59 C 356.40 379.79 354.12 376.89 354.95 373.41 C 357.04 373.64 359.13 373.90 361.22 374.14 C 361.76 370.93 360.81 367.81 359.40 364.95 C 360.34 363.25 361.31 361.56 362.30 359.88 C 361.57 359.25 360.84 358.61 360.12 357.98 C 358.72 358.62 357.32 359.27 355.92 359.91 C 353.44 358.02 352.07 355.36 352.67 352.20 C 349.45 351.73 346.23 351.28 343.01 350.79 C 342.62 346.28 342.71 341.76 342.71 337.25 C 339.23 340.25 342.76 347.02 337.85 350.52 C 336.34 345.96 332.82 343.38 328.69 346.89 C 322.30 345.15 317.90 340.07 312.94 336.04 C 313.51 334.51 314.11 332.99 314.69 331.46 C 314.15 331.70 313.06 332.16 312.52 332.40 C 311.37 334.99 310.16 337.55 308.85 340.06 C 307.67 339.35 306.50 338.64 305.32 337.93 C 306.05 335.44 306.79 332.96 307.51 330.48 C 303.71 337.75 290.94 338.58 296.11 328.29 C 293.58 322.14 301.17 308.91 309.30 313.93 C 309.53 312.75 309.72 311.56 309.99 310.39 C 308.67 310.13 307.36 309.87 306.05 309.61 C 306.81 304.59 311.97 303.22 316.02 301.63 C 314.78 299.34 313.49 297.09 312.16 294.87 C 314.76 292.68 317.12 290.20 319.22 287.52 C 317.58 287.16 315.94 286.81 314.30 286.49 C 313.73 282.49 314.41 278.48 314.28 274.48 C 310.65 273.35 306.51 273.60 303.43 270.88 C 303.86 269.87 304.30 268.86 304.73 267.84 C 307.17 267.68 308.25 265.84 308.64 263.61 C 306.65 264.39 304.65 265.14 302.62 265.82 C 302.41 259.59 300.95 251.69 309.82 252.19 C 309.24 250.15 308.64 248.13 308.11 246.08 C 320.59 242.78 321.51 260.89 322.00 269.23 C 325.76 267.02 328.56 263.66 329.28 259.27 C 327.23 258.11 325.19 256.96 323.16 255.79 C 323.78 252.19 325.69 249.04 329.45 248.17 C 330.53 249.95 331.63 251.71 332.78 253.44 C 333.82 247.96 333.94 241.87 329.05 238.10 C 329.49 236.96 329.92 235.82 330.36 234.68 C 334.68 237.06 338.83 240.30 344.12 239.20 C 341.44 235.78 336.63 231.24 342.82 228.73 C 345.91 233.25 349.51 237.43 352.01 242.33 C 351.99 233.71 357.07 227.13 365.67 232.66 C 367.11 230.82 368.92 229.34 370.98 228.25 C 365.02 227.90 357.44 225.09 359.87 217.64 C 350.09 221.55 342.90 211.29 341.17 202.76 C 343.51 202.29 345.86 201.85 348.21 201.39 C 347.64 197.73 349.05 194.20 353.31 195.75 C 354.30 194.08 355.35 192.46 356.54 190.93 C 355.71 189.90 354.87 188.88 354.04 187.85 C 353.05 188.41 352.07 188.99 351.09 189.56 C 349.28 183.67 342.35 181.60 340.78 175.48 C 342.82 174.03 344.89 172.63 346.96 171.22 C 346.10 169.00 345.26 166.76 344.43 164.53 C 345.70 163.50 346.96 162.44 348.18 161.34 C 340.21 153.28 355.59 151.19 355.86 143.31 C 357.09 143.66 358.32 144.01 359.56 144.37 C 357.18 151.06 362.20 157.43 368.97 157.99 C 368.76 159.95 368.52 161.90 368.29 163.85 C 370.33 164.06 372.36 164.32 374.39 164.58 C 375.30 163.76 376.22 162.95 377.13 162.14 C 375.52 161.62 373.91 161.11 372.30 160.61 C 372.65 159.27 373.01 157.93 373.37 156.59 C 376.98 156.56 380.19 154.88 376.92 151.51 C 377.31 147.78 375.62 143.83 371.25 144.53 C 369.69 141.79 367.32 138.35 370.32 135.67 C 366.21 130.18 366.60 123.63 367.27 117.20 C 370.75 115.42 374.54 114.29 378.48 114.52 C 378.28 117.25 378.03 119.98 377.84 122.72 C 380.02 121.96 382.24 121.32 384.46 120.70 C 385.13 124.08 386.56 127.40 389.73 129.13 C 389.83 131.88 389.82 134.63 389.85 137.39 C 391.55 135.03 393.38 132.69 395.90 131.16 C 397.08 132.73 398.46 134.12 399.80 135.55 C 400.13 133.84 400.38 132.13 400.57 130.40 C 403.24 128.09 406.02 125.65 407.51 122.37 C 402.29 120.48 401.56 114.59 400.11 109.99 C 398.55 101.28 409.22 94.89 404.74 86.12 C 407.87 84.13 411.09 82.05 412.94 78.71 C 416.19 72.38 425.17 79.92 428.78 75.09 C 426.42 72.06 420.11 71.35 420.07 65.95 C 422.15 66.17 424.23 66.43 426.31 66.66 C 425.00 64.87 423.41 63.33 421.54 62.15 C 421.67 58.34 422.11 54.56 422.65 50.80 M 447.94 61.09 C 449.18 62.02 450.43 62.95 451.68 63.87 C 451.96 62.50 452.26 61.12 452.55 59.75 C 451.01 60.19 449.47 60.64 447.94 61.09 M 495.14 94.23 C 495.24 94.76 495.44 95.83 495.54 96.36 C 496.12 96.47 497.29 96.69 497.88 96.80 C 497.90 95.53 497.92 94.27 497.95 93.00 C 497.00 93.41 496.07 93.82 495.14 94.23 M 518.20 119.20 C 514.74 121.44 521.63 121.38 518.20 119.20 M 544.14 138.07 C 545.30 139.07 546.45 140.07 547.61 141.09 C 547.53 139.65 547.46 138.21 547.41 136.78 C 546.31 137.21 545.22 137.64 544.14 138.07 M 382.33 149.23 C 382.25 149.90 382.08 151.24 382.00 151.92 C 383.47 151.23 384.75 150.19 386.22 149.49 C 384.92 149.40 383.62 149.31 382.33 149.23 M 527.77 167.49 C 529.36 168.07 530.98 168.59 532.60 169.12 C 532.67 168.30 532.80 166.67 532.86 165.85 C 531.16 166.39 529.46 166.93 527.77 167.49 M 527.20 172.86 C 523.73 164.09 518.04 172.80 527.20 172.86 M 530.81 174.73 C 533.69 174.89 536.58 174.91 539.46 174.76 C 536.85 172.01 533.50 172.32 530.81 174.73 M 576.23 183.24 C 573.41 187.55 581.65 185.72 576.23 183.24 M 535.77 196.29 C 537.42 195.96 539.58 196.02 540.20 194.06 C 538.46 194.31 536.03 193.95 535.77 196.29 M 358.43 195.86 C 360.24 196.90 362.07 197.91 363.90 198.92 C 364.54 197.58 365.17 196.25 365.81 194.91 C 363.34 195.18 360.88 195.51 358.43 195.86 M 405.13 197.69 C 404.29 203.83 410.90 198.49 405.13 197.69 M 392.25 198.98 C 388.18 203.47 398.18 200.84 392.25 198.98 M 587.96 203.72 C 589.08 202.46 590.19 201.17 591.28 199.85 C 587.21 198.13 582.74 200.68 587.96 203.72 M 532.36 201.32 C 531.99 206.96 537.79 199.28 532.36 201.32 M 385.12 205.60 C 382.72 211.49 390.85 206.18 385.12 205.60 M 357.59 209.70 C 357.37 210.95 357.16 212.21 356.95 213.47 C 358.09 212.10 359.19 210.68 360.28 209.26 C 359.61 209.37 358.27 209.59 357.59 209.70 M 379.27 209.36 C 375.80 213.57 384.09 212.27 379.27 209.36 M 378.15 214.15 C 378.19 215.37 378.22 216.59 378.26 217.81 C 378.79 217.66 379.85 217.36 380.38 217.21 C 380.48 216.76 380.69 215.85 380.80 215.40 C 379.91 214.98 379.03 214.56 378.15 214.15 M 366.20 216.96 C 366.26 218.41 366.35 219.87 366.45 221.33 C 367.06 221.52 368.27 221.90 368.88 222.08 C 368.00 220.37 367.11 218.65 366.20 216.96 M 384.02 229.90 C 385.04 230.60 386.06 231.30 387.09 232.00 C 387.95 231.23 388.81 230.46 389.69 229.71 C 388.84 228.78 388.00 227.85 387.17 226.92 C 386.11 227.91 385.07 228.91 384.02 229.90 M 401.16 231.28 C 395.59 234.84 406.30 234.00 401.16 231.28 M 605.34 236.26 C 605.11 241.51 610.12 234.02 605.34 236.26 M 361.73 241.34 C 362.02 243.94 362.97 246.39 364.85 248.27 C 366.49 245.69 367.93 242.99 369.18 240.21 C 366.69 240.58 364.21 240.95 361.73 241.34 M 613.77 245.62 C 615.46 245.44 617.17 245.23 618.87 244.99 C 618.57 244.39 617.97 243.20 617.67 242.61 C 616.25 243.46 615.13 244.71 613.77 245.62 M 392.23 247.65 C 390.17 253.16 397.52 248.16 392.23 247.65 M 582.76 249.82 C 590.68 255.86 582.92 263.09 582.37 270.25 C 590.21 265.92 593.76 254.45 584.91 249.08 C 584.19 249.32 583.47 249.57 582.76 249.82 M 376.53 260.97 C 376.49 262.28 376.44 263.58 376.38 264.89 C 378.27 264.88 380.15 264.86 382.04 264.85 C 381.70 263.13 381.29 261.43 380.83 259.75 C 379.39 260.14 377.96 260.55 376.53 260.97 M 317.63 279.20 C 316.53 284.47 322.50 278.08 317.63 279.20 M 325.12 280.90 C 321.68 285.01 330.27 281.85 325.12 280.90 M 580.08 281.29 C 576.20 285.57 585.46 282.87 580.08 281.29 M 529.36 284.76 C 529.61 286.06 529.87 287.36 530.13 288.66 C 531.34 288.33 532.56 288.01 533.78 287.69 C 533.37 286.88 532.95 286.07 532.55 285.26 C 531.48 285.09 530.42 284.92 529.36 284.76 M 581.96 288.93 C 583.19 294.58 588.53 288.94 581.96 288.93 M 323.16 295.26 C 324.80 293.53 325.69 291.32 325.97 288.98 C 324.80 290.96 323.85 293.06 323.16 295.26 M 326.57 294.04 C 326.32 299.19 331.52 292.42 326.57 294.04 M 334.19 298.27 C 330.73 302.87 339.95 300.72 334.19 298.27 M 602.93 318.22 C 605.65 316.50 605.92 313.48 604.99 310.66 C 603.22 312.81 602.13 315.42 602.93 318.22 M 395.18 312.27 C 389.07 313.74 398.92 316.96 395.18 312.27 M 318.19 313.26 C 314.54 317.35 323.74 315.05 318.19 313.26 M 618.89 314.06 C 621.14 315.41 623.59 316.40 626.19 316.86 C 624.12 315.13 621.51 314.38 618.89 314.06 M 565.22 317.54 C 564.67 318.43 564.14 319.32 563.60 320.22 C 566.16 322.69 569.78 322.95 573.08 323.62 C 573.13 321.90 573.24 320.20 573.27 318.49 C 570.55 318.52 567.86 318.16 565.22 317.54 M 401.13 319.36 C 399.24 324.78 406.78 319.06 401.13 319.36 M 601.26 329.55 C 602.06 326.98 602.51 324.32 602.72 321.65 C 600.39 323.78 599.71 326.69 601.26 329.55 M 594.14 327.32 C 589.77 330.18 598.38 330.26 594.14 327.32 M 306.18 328.10 C 305.03 332.71 310.82 327.18 306.18 328.10 M 395.48 338.02 C 393.46 341.21 391.09 344.19 388.26 346.71 C 389.41 351.25 392.36 354.98 396.80 356.64 C 396.61 355.86 396.43 355.07 396.25 354.30 C 397.24 354.30 398.22 354.32 399.22 354.33 C 399.17 351.35 398.91 348.37 398.87 345.38 C 397.49 345.62 396.11 345.84 394.73 346.04 C 396.06 344.28 397.57 342.68 399.22 341.22 C 398.03 340.08 396.68 339.14 395.48 338.02 M 378.06 346.67 C 379.25 347.05 380.45 347.42 381.65 347.80 C 382.27 345.88 382.95 343.98 383.68 342.10 C 382.76 341.33 381.85 340.55 380.94 339.79 C 378.77 341.50 377.86 343.95 378.06 346.67 M 367.74 341.20 C 368.52 344.25 370.44 346.79 372.39 349.18 C 372.25 346.65 372.13 344.12 372.29 341.60 C 370.77 341.46 369.25 341.32 367.74 341.20 M 399.05 363.80 C 401.24 362.37 403.44 360.93 405.70 359.60 C 405.94 356.92 406.16 354.24 406.39 351.57 C 402.71 354.96 396.58 357.81 399.05 363.80 M 505.00 356.68 C 505.97 360.33 507.48 363.95 510.54 366.34 C 510.47 364.68 510.38 363.02 510.29 361.37 C 511.19 361.03 512.09 360.70 513.00 360.38 C 512.46 360.13 511.39 359.63 510.86 359.38 C 509.70 356.94 507.66 355.54 505.00 356.68 M 589.47 355.99 C 589.07 357.73 588.67 359.46 588.21 361.19 C 589.49 360.65 590.77 360.10 592.05 359.56 C 591.17 358.38 590.34 357.17 589.47 355.99 M 369.23 364.29 C 369.24 364.86 369.26 366.01 369.27 366.58 C 370.02 366.90 370.77 367.22 371.52 367.54 C 373.03 366.11 374.54 364.69 376.03 363.24 C 373.76 363.59 371.50 363.93 369.23 364.29 M 605.63 368.77 C 606.48 368.77 608.19 368.76 609.04 368.76 C 609.09 366.74 609.09 364.72 608.99 362.71 C 607.32 364.38 606.32 366.53 605.63 368.77 M 620.15 370.04 C 620.55 370.90 620.97 371.76 621.40 372.63 C 622.98 372.68 624.57 372.73 626.18 372.75 C 624.58 371.06 622.37 370.39 620.15 370.04 M 374.42 372.41 C 374.73 377.49 380.03 369.39 374.42 372.41 M 506.12 372.11 C 502.01 376.07 510.86 373.36 506.12 372.11 M 361.52 374.22 C 362.36 376.81 364.54 378.28 367.03 379.06 C 366.15 377.35 365.20 375.69 364.28 374.01 C 363.59 374.06 362.21 374.17 361.52 374.22 M 374.16 376.17 C 374.20 376.77 374.28 377.95 374.32 378.54 C 375.18 378.97 376.04 379.40 376.91 379.83 C 377.68 378.92 378.46 378.00 379.24 377.10 C 378.84 376.62 378.05 375.66 377.66 375.18 C 376.49 375.51 375.32 375.84 374.16 376.17 M 552.69 384.20 C 554.10 385.52 555.54 386.82 557.00 388.09 C 556.57 386.83 556.14 385.58 555.71 384.33 C 554.95 384.30 553.45 384.24 552.69 384.20 M 624.20 385.32 C 622.07 390.71 629.86 385.00 624.20 385.32 M 518.72 397.46 C 516.12 399.84 512.79 401.06 509.81 402.85 C 512.29 403.76 514.91 404.19 517.55 404.35 C 518.63 402.73 519.78 401.16 520.96 399.61 C 520.24 398.85 519.52 398.11 518.72 397.46 M 502.43 399.22 C 501.79 403.70 498.02 405.66 493.91 406.31 C 493.33 408.92 492.49 411.46 491.53 413.95 C 493.69 414.54 495.85 415.14 498.02 415.75 C 496.58 412.97 495.39 410.05 495.00 406.92 C 499.61 405.72 504.60 409.78 508.07 404.87 C 506.93 402.68 505.78 400.49 504.67 398.29 C 503.91 398.59 503.17 398.90 502.43 399.22 M 447.27 405.29 C 447.27 403.74 447.29 402.19 447.31 400.65 C 446.45 401.77 445.60 402.90 444.75 404.04 C 447.25 407.68 451.79 406.61 455.58 406.88 C 455.46 404.85 455.39 402.83 455.34 400.80 C 451.96 400.65 449.66 403.33 447.27 405.29 M 513.78 411.85 C 514.99 411.73 516.20 411.62 517.42 411.50 C 517.92 409.98 518.43 408.47 518.96 406.96 C 518.40 406.72 517.28 406.23 516.72 405.99 C 515.72 407.93 514.69 409.86 513.78 411.85 M 515.90 416.36 C 518.26 418.38 521.11 419.64 524.08 420.49 C 525.08 418.32 526.06 416.14 526.99 413.94 C 525.85 414.62 524.74 415.32 523.62 416.02 C 521.07 414.88 518.34 414.96 515.90 416.36 M 490.74 416.09 C 491.60 418.38 493.98 419.08 496.01 420.01 C 496.30 419.06 496.59 418.12 496.89 417.19 C 494.85 416.73 492.80 416.33 490.74 416.09 M 487.08 422.06 C 487.91 423.72 488.74 425.39 489.60 427.05 C 490.00 425.79 490.40 424.54 490.81 423.30 C 489.56 422.88 488.32 422.46 487.08 422.06 M 410.55 425.24 C 411.25 427.27 412.12 429.24 412.99 431.21 C 414.00 430.82 415.02 430.43 416.04 430.05 C 414.22 428.43 412.39 426.82 410.55 425.24 Z" />
</g>
</svg>
