<?xml version="1.0" encoding="UTF-8" ?>
<!DOCTYPE svg PUBLIC "-//W3C//DTD SVG 1.1//EN" "http://www.w3.org/Graphics/SVG/1.1/DTD/svg11.dtd">
<svg width="900pt" height="900pt" viewBox="0 0 900 900" version="1.1" xmlns="http://www.w3.org/2000/svg">
<g id="#ffffffff">
<path fill="#ffffff" opacity="1.00" d=" M 391.55 207.54 C 392.78 204.49 396.90 204.63 399.54 205.42 C 402.53 207.53 403.33 211.58 403.81 215.00 C 403.77 221.94 406.30 228.48 407.80 235.16 C 411.65 244.74 415.66 255.68 425.42 260.72 C 429.30 262.26 430.22 267.66 427.65 270.72 C 424.98 273.38 420.94 273.76 417.58 275.15 C 417.80 277.96 418.15 280.85 419.53 283.36 C 424.66 291.95 430.97 299.93 438.99 306.00 C 441.73 308.92 447.16 309.63 447.93 314.09 C 448.09 318.43 444.21 320.97 440.74 322.59 C 442.10 324.97 443.91 327.74 442.48 330.53 C 440.90 335.88 434.49 335.91 430.13 337.52 C 434.91 344.99 440.79 351.69 446.76 358.22 C 450.99 362.19 456.06 365.13 461.06 368.02 C 465.32 370.32 464.59 376.50 461.67 379.61 C 455.20 382.78 447.95 383.75 441.01 385.45 C 443.58 390.27 448.14 393.31 451.98 396.98 C 456.71 402.43 464.36 404.50 468.48 410.55 C 470.20 413.97 468.09 417.42 465.89 419.99 C 470.69 425.23 477.56 427.63 483.08 431.92 C 484.97 435.16 484.47 440.81 480.44 442.31 C 472.81 445.40 464.71 447.11 456.59 448.31 C 460.24 452.03 464.01 455.62 467.43 459.56 C 472.89 464.88 478.86 469.69 485.30 473.78 C 491.14 477.31 495.80 483.07 502.88 484.20 C 501.94 479.81 499.15 475.06 501.81 470.72 C 504.55 466.34 508.53 462.73 512.83 459.89 C 515.51 458.00 518.93 459.00 521.44 460.65 C 524.68 462.81 528.57 463.44 532.20 464.69 C 535.12 462.82 537.80 460.59 540.72 458.70 C 543.33 457.04 544.90 454.17 547.55 452.58 C 551.71 451.08 556.28 450.99 560.63 451.56 C 564.65 452.04 567.29 455.48 569.37 458.62 C 571.34 461.70 574.07 464.46 574.95 468.11 C 575.64 471.11 574.22 474.00 573.21 476.76 C 576.30 480.34 579.13 484.17 582.39 487.62 C 585.09 490.47 589.72 490.57 592.09 493.84 C 593.38 496.18 593.19 499.00 593.47 501.59 C 599.81 501.63 607.25 503.26 610.81 509.05 C 614.24 515.66 610.23 522.86 609.83 529.69 C 612.92 532.44 615.69 535.52 618.19 538.82 C 622.66 538.43 628.03 539.18 630.46 543.47 C 631.50 546.41 631.50 549.72 630.67 552.71 C 629.13 555.96 626.79 558.74 624.86 561.76 C 630.40 564.36 636.49 566.67 640.53 571.48 C 642.42 576.00 640.21 580.64 637.38 584.16 C 638.53 586.76 639.80 589.73 638.47 592.54 C 635.99 597.96 630.93 602.18 625.08 603.47 C 624.91 608.72 625.92 614.38 623.15 619.16 C 621.14 622.46 623.11 627.19 619.83 629.83 C 615.77 633.47 611.12 636.40 607.16 640.18 C 603.21 643.81 598.70 647.65 593.07 647.87 C 588.76 647.05 585.50 643.89 581.84 641.72 C 578.04 643.14 575.01 646.34 570.86 646.98 C 567.81 647.73 565.12 645.82 562.73 644.23 C 560.42 642.58 557.59 642.04 554.93 641.29 C 553.68 642.60 552.33 643.82 551.29 645.31 C 550.22 658.54 550.20 671.83 550.06 685.09 C 550.09 691.83 541.63 696.53 535.82 693.12 C 533.83 691.37 532.99 688.64 532.86 686.07 C 532.52 678.36 533.76 670.71 533.87 663.02 C 534.07 657.00 533.87 650.98 533.83 644.96 C 528.45 642.85 522.96 645.47 517.45 645.26 C 514.88 649.10 510.95 652.56 506.02 652.28 C 499.90 651.80 493.77 650.91 487.86 649.21 C 487.01 651.21 486.69 653.55 485.17 655.20 C 480.31 657.23 474.86 655.65 470.29 653.60 C 464.56 650.65 459.65 646.42 454.33 642.85 C 454.23 646.50 452.71 649.80 451.22 653.05 C 451.50 656.86 454.38 660.07 454.05 663.97 C 454.17 668.48 448.44 671.08 444.70 669.18 C 440.18 667.41 435.28 666.49 431.17 663.81 C 426.05 660.83 420.67 658.33 415.58 655.30 C 409.84 651.39 405.38 645.60 398.94 642.74 C 394.84 643.43 391.84 646.82 387.75 647.52 C 385.83 648.00 383.77 648.04 381.99 648.97 C 374.70 654.05 368.03 660.31 359.60 663.50 C 355.30 665.20 350.85 667.43 346.09 666.88 C 343.40 666.83 341.95 664.10 341.35 661.82 C 340.29 656.03 342.11 650.28 342.06 644.48 C 336.14 648.89 330.65 654.46 323.22 656.17 C 319.56 657.58 314.39 659.48 311.89 655.15 C 309.82 650.19 312.40 644.71 312.19 639.55 C 299.65 645.90 285.05 649.35 271.17 645.79 C 267.80 644.76 264.13 645.34 260.83 644.14 C 258.34 642.10 258.70 638.25 259.49 635.47 C 262.13 632.01 266.57 630.58 270.20 628.38 C 269.39 626.65 268.14 625.01 268.03 623.06 C 269.05 619.31 272.09 616.64 275.24 614.62 C 273.42 613.86 271.17 613.65 269.80 612.11 C 268.58 610.03 268.69 607.14 270.37 605.35 C 274.06 600.59 280.09 598.47 283.75 593.69 C 286.19 590.40 289.69 588.19 292.91 585.76 C 289.64 584.57 286.42 583.26 283.37 581.59 C 280.57 580.03 277.21 579.39 274.85 577.14 C 273.23 574.68 273.88 571.04 276.38 569.41 C 284.16 563.49 292.20 557.92 300.30 552.45 C 297.22 552.06 292.53 551.31 293.06 547.13 C 294.56 540.85 301.29 538.63 305.26 534.25 C 309.88 528.40 316.79 524.99 321.50 519.16 C 315.92 516.98 309.63 516.03 304.84 512.21 C 301.63 509.56 303.11 505.00 304.89 501.97 C 302.53 501.09 299.64 501.02 297.82 499.13 C 295.71 495.82 297.81 491.76 300.90 489.97 C 306.09 486.97 311.01 483.51 315.45 479.46 C 321.75 474.09 328.11 468.50 332.47 461.37 C 335.10 456.70 338.61 452.61 341.26 447.95 C 334.79 447.35 328.41 445.98 322.03 444.81 C 318.82 444.43 315.85 440.73 317.55 437.59 C 321.12 430.33 330.28 428.51 334.22 421.46 C 332.69 419.74 330.42 418.32 330.04 415.89 C 330.07 412.54 332.64 410.05 334.89 407.90 C 342.73 400.61 350.33 392.94 356.45 384.11 C 349.97 384.13 343.02 384.26 337.34 380.66 C 334.21 378.51 334.05 373.30 336.90 370.85 C 340.50 367.12 344.53 363.79 347.75 359.70 C 350.33 356.28 353.75 353.54 355.89 349.80 C 358.43 345.48 361.60 341.58 364.33 337.39 C 360.99 336.04 356.64 335.68 354.47 332.48 C 352.79 329.07 355.55 326.03 357.56 323.56 C 354.37 323.00 350.21 322.40 349.22 318.72 C 348.45 314.79 351.96 311.90 354.28 309.27 C 359.24 303.21 365.10 297.81 369.06 290.99 C 371.49 285.86 375.79 281.84 377.54 276.35 C 373.64 275.74 369.56 275.59 365.88 274.10 C 362.56 272.29 361.97 267.32 364.85 264.83 C 372.51 256.99 379.88 248.67 384.80 238.78 C 387.12 233.27 388.30 227.42 389.62 221.62 C 390.41 216.95 390.27 212.12 391.55 207.54 M 396.91 209.94 C 396.04 221.97 393.86 234.26 387.82 244.87 C 385.33 249.25 383.02 253.81 379.53 257.51 C 375.84 261.46 371.89 265.17 368.48 269.38 C 373.92 270.07 379.45 269.74 384.69 268.07 C 383.92 270.49 383.38 273.00 383.52 275.55 C 383.67 279.79 380.66 283.16 378.77 286.69 C 372.32 297.98 363.49 307.58 354.89 317.23 C 359.73 318.32 364.68 318.79 369.64 318.73 C 366.36 322.62 362.67 326.15 359.61 330.22 C 364.53 331.21 369.53 331.67 374.55 331.35 C 370.37 339.60 364.53 346.79 359.62 354.59 C 353.93 362.47 346.76 369.10 340.02 376.05 C 348.77 379.47 358.34 378.82 367.32 376.76 C 363.18 383.11 359.69 389.92 354.55 395.57 C 348.88 402.69 342.08 408.77 335.97 415.49 C 339.26 416.65 342.67 417.43 346.14 417.93 C 343.15 421.01 340.03 423.96 337.07 427.07 C 332.94 431.47 327.92 434.90 323.63 439.14 C 332.62 441.81 342.05 442.07 351.34 441.32 C 348.62 446.52 345.72 451.62 342.37 456.44 C 338.79 461.52 335.99 467.17 331.58 471.63 C 323.04 480.64 313.72 489.21 302.78 495.22 C 308.44 497.06 314.29 498.21 320.21 498.83 C 316.05 501.82 311.95 504.91 307.84 507.98 C 315.80 512.35 324.90 513.42 333.76 514.60 C 331.17 517.39 328.54 520.15 325.78 522.78 C 317.34 530.53 309.25 538.68 300.06 545.57 C 304.05 547.92 308.94 547.29 313.37 547.84 C 303.71 558.03 291.61 565.46 280.13 573.38 C 281.07 574.30 282.15 575.07 283.37 575.62 C 290.23 578.85 297.62 580.90 305.14 581.90 C 299.77 587.31 293.74 591.98 288.28 597.29 C 284.15 601.22 279.50 604.55 275.18 608.26 C 279.25 609.66 283.48 610.52 287.76 611.00 C 283.46 615.24 278.76 619.05 274.47 623.30 C 277.77 624.12 281.11 624.83 284.43 625.61 C 278.02 630.25 271.00 633.95 264.54 638.50 C 270.89 640.17 277.39 641.67 284.01 641.55 C 295.74 641.76 306.93 636.80 316.29 630.03 C 317.99 637.23 318.06 644.68 317.26 652.00 C 322.59 650.64 328.01 648.92 332.29 645.33 C 337.75 641.42 339.87 634.09 346.47 631.61 C 348.37 641.28 347.46 651.18 347.29 660.96 C 357.43 660.62 365.71 654.23 373.51 648.47 C 376.58 646.17 379.57 643.52 383.40 642.60 C 389.56 640.93 395.41 638.32 401.10 635.45 C 404.91 639.16 408.88 642.70 413.10 645.95 C 423.24 654.50 435.56 660.44 448.49 663.31 C 446.48 658.19 444.77 652.95 443.73 647.54 C 445.26 647.28 446.80 647.03 448.35 646.78 C 448.26 641.76 448.29 636.74 448.62 631.74 C 457.10 637.82 465.31 644.39 474.62 649.19 C 474.61 645.95 474.70 642.72 474.93 639.49 C 468.68 638.50 464.28 633.26 462.65 627.41 C 462.08 624.22 458.84 623.18 456.68 621.27 C 453.15 618.30 451.19 614.01 448.98 610.06 C 447.00 606.53 446.49 602.09 448.33 598.39 C 449.75 595.17 453.01 593.46 455.77 591.55 C 453.96 589.35 451.71 587.08 451.80 584.01 C 451.17 578.84 455.03 574.91 457.54 570.86 C 455.71 567.71 453.52 564.61 452.86 560.95 C 452.31 558.23 453.35 555.28 455.44 553.48 C 460.40 549.75 466.19 546.97 470.49 542.45 C 471.27 539.71 469.15 536.78 469.08 533.91 C 468.49 529.50 472.20 526.35 475.35 523.97 C 471.48 519.35 467.26 514.93 464.44 509.54 C 472.41 509.53 480.39 509.50 488.28 508.21 C 486.33 504.15 483.42 499.44 486.05 494.98 C 488.05 490.18 493.58 489.43 498.14 489.19 C 492.47 486.29 487.36 482.48 482.07 478.97 C 475.28 474.20 468.56 469.19 463.01 462.98 C 456.71 456.13 449.83 449.66 444.99 441.63 C 456.48 443.60 468.65 441.81 478.98 436.34 C 473.75 432.84 468.12 429.83 463.50 425.50 C 460.81 422.96 458.11 420.45 455.40 417.93 C 458.31 416.66 461.21 415.36 464.02 413.87 C 455.64 406.99 446.07 401.32 439.32 392.65 C 435.43 387.30 431.24 382.14 427.82 376.45 C 437.78 380.35 449.51 379.57 458.77 374.15 C 451.60 369.14 444.03 364.42 438.36 357.63 C 431.47 349.24 424.51 340.71 419.84 330.83 C 425.91 332.40 432.39 331.83 438.02 329.02 C 434.15 325.66 430.05 322.59 425.98 319.50 C 431.46 319.66 436.86 318.38 441.78 315.95 C 435.53 310.30 428.54 305.36 423.36 298.64 C 420.07 294.50 417.06 290.11 414.41 285.53 C 411.07 280.11 411.77 273.43 409.32 267.68 C 413.36 270.56 419.92 270.44 422.98 266.32 C 419.22 263.00 414.69 260.39 411.91 256.08 C 407.23 248.58 403.34 240.53 401.03 231.97 C 398.80 224.80 398.13 217.31 396.91 209.94 M 542.05 464.05 C 538.10 466.21 535.34 469.80 533.09 473.61 C 531.03 471.70 529.13 469.58 526.77 468.06 C 524.66 468.39 522.87 469.60 521.05 470.60 C 520.07 468.36 519.23 466.00 517.67 464.09 C 514.41 464.23 512.17 466.92 509.93 468.94 C 508.32 470.72 506.20 472.47 505.83 474.97 C 506.48 478.35 508.88 481.81 507.32 485.29 C 505.94 488.09 504.09 490.68 501.91 492.92 C 499.08 495.30 494.93 494.14 491.76 495.76 C 490.40 496.86 489.99 498.83 490.57 500.44 C 491.91 504.00 495.04 506.55 496.40 510.10 C 497.20 515.20 491.30 517.35 489.46 521.42 C 488.24 523.39 487.98 526.53 485.27 527.03 C 481.67 528.51 476.66 528.25 474.55 532.09 C 474.31 535.50 475.93 538.68 476.25 542.04 C 476.12 544.90 473.88 547.11 471.67 548.66 C 466.86 552.03 462.03 555.40 457.32 558.93 C 458.85 562.78 461.44 566.13 462.79 570.04 C 462.46 575.20 457.03 578.60 457.14 583.82 C 458.60 587.33 461.39 590.07 463.41 593.26 C 459.99 595.51 455.99 597.09 453.23 600.21 C 451.49 602.34 452.26 605.30 453.56 607.45 C 455.72 611.13 457.50 615.25 460.75 618.14 C 462.81 618.81 465.01 618.71 467.15 618.94 C 467.35 623.48 467.34 628.70 471.07 631.97 C 473.98 635.30 478.42 632.06 481.96 631.79 C 481.34 637.13 479.26 642.34 479.96 647.79 C 480.65 645.99 481.24 644.16 481.88 642.35 C 486.10 644.33 490.81 644.57 495.30 645.59 C 499.16 646.13 503.01 647.03 506.92 647.04 C 511.74 646.47 512.92 639.59 517.97 639.79 C 522.15 640.02 526.13 638.86 530.08 637.67 C 533.21 638.68 536.12 640.25 539.26 641.25 C 539.16 650.18 539.65 659.13 538.85 668.04 C 538.56 674.57 537.88 681.13 538.37 687.66 C 540.48 687.82 542.57 687.53 544.64 687.17 C 544.73 673.09 545.48 659.02 545.70 644.95 C 545.57 641.06 550.12 639.68 551.32 636.39 C 552.52 632.85 553.16 629.13 554.68 625.70 C 556.49 621.63 557.94 617.02 561.82 614.40 C 560.76 621.82 556.12 628.02 553.84 635.05 C 557.88 636.70 562.27 637.59 565.95 640.03 C 567.39 640.75 568.86 642.16 570.61 641.61 C 574.40 640.54 576.97 637.33 580.28 635.39 C 585.58 635.87 588.66 641.87 593.99 642.44 C 597.58 641.92 600.30 639.20 602.95 636.95 C 607.57 632.61 612.82 629.02 617.63 624.89 C 614.61 622.12 611.38 619.59 608.51 616.67 C 612.07 616.45 615.65 616.50 619.22 616.54 C 619.84 611.00 619.75 605.41 619.53 599.86 C 624.60 598.08 630.68 596.59 633.26 591.32 C 634.77 589.00 631.79 587.43 630.67 585.76 C 632.04 583.05 633.62 580.42 634.53 577.51 C 635.13 575.56 635.09 573.02 633.14 571.85 C 628.31 568.58 622.71 566.72 617.57 564.00 C 619.93 558.42 625.18 554.18 626.20 548.10 C 625.95 542.80 619.88 544.41 616.39 544.69 C 612.84 539.79 607.88 536.01 604.60 530.97 C 604.35 525.00 607.26 519.31 606.69 513.35 C 606.01 509.13 601.30 507.73 597.67 507.28 C 594.68 506.62 591.27 507.15 588.63 505.40 C 588.02 502.49 587.99 499.49 587.68 496.55 C 584.53 495.13 581.16 493.88 578.77 491.27 C 574.45 486.78 570.66 481.81 566.79 476.93 C 567.95 474.08 570.94 471.01 569.16 467.82 C 567.48 464.63 565.35 461.70 563.11 458.90 C 560.31 455.17 555.08 456.37 551.15 457.05 C 547.78 458.88 545.48 462.23 542.05 464.05 M 476.57 515.22 C 477.79 518.39 480.01 520.96 482.98 522.62 C 484.13 519.35 485.96 516.41 488.23 513.80 C 484.38 514.55 480.48 515.04 476.57 515.22 Z" />
<path fill="#ffffff" opacity="1.00" d=" M 550.68 459.21 C 553.71 459.42 557.14 458.58 559.89 460.12 C 562.88 462.98 565.61 466.25 567.51 469.94 C 566.26 472.35 564.45 474.43 563.34 476.92 C 566.80 481.96 571.01 486.43 574.71 491.29 C 577.33 494.91 581.23 497.20 585.18 499.13 C 585.54 502.53 583.93 507.37 587.58 509.44 C 592.42 510.44 598.03 508.33 602.27 511.72 C 604.05 512.75 603.72 515.07 603.64 516.81 C 603.27 522.14 600.96 527.27 601.36 532.65 C 603.03 535.24 605.81 536.85 607.76 539.22 C 610.32 541.92 612.11 545.54 615.45 547.40 C 618.17 547.85 620.95 547.44 623.70 547.51 C 621.95 554.03 616.20 558.47 614.52 564.98 C 615.84 566.97 618.17 567.82 620.26 568.75 C 624.60 570.55 628.87 572.54 632.93 574.93 C 631.15 579.27 628.80 583.33 626.25 587.25 C 627.87 588.33 629.50 589.41 631.11 590.54 C 626.90 594.60 620.98 595.60 615.55 597.05 C 617.14 602.40 617.87 607.98 617.18 613.56 C 612.88 613.08 608.56 613.49 604.62 615.36 C 605.93 617.59 607.28 619.80 608.51 622.08 C 603.79 625.04 597.92 624.87 593.16 627.77 C 589.02 625.38 584.25 625.05 579.58 625.24 C 579.56 621.80 579.58 618.37 579.47 614.94 C 574.11 613.98 569.24 616.73 564.22 618.06 C 563.31 615.26 562.65 612.39 562.11 609.51 C 556.30 609.59 550.78 607.47 544.99 607.35 C 542.59 607.31 539.69 606.84 538.58 604.40 C 537.59 601.70 537.65 598.77 537.18 595.98 C 534.85 596.29 533.12 598.01 531.27 599.28 C 528.36 601.48 525.10 603.15 521.75 604.58 C 518.91 598.93 522.18 592.97 523.03 587.26 C 523.36 584.51 524.86 580.79 522.24 578.72 C 518.12 577.60 513.89 579.02 509.78 579.44 C 509.56 577.31 509.49 575.17 509.20 573.05 C 508.77 570.16 506.82 567.47 507.53 564.46 C 508.44 559.14 510.52 553.82 509.62 548.34 C 509.44 546.82 507.90 545.97 506.55 545.70 C 502.88 544.98 499.06 545.42 495.43 544.48 C 492.25 543.28 489.35 540.04 490.24 536.43 C 491.13 531.30 491.86 525.94 494.20 521.24 C 495.96 517.88 501.73 516.65 500.82 512.19 C 499.84 507.19 495.52 503.90 492.62 499.99 C 496.99 498.72 501.87 497.65 504.83 493.86 C 507.22 490.77 509.63 487.56 511.03 483.88 C 511.02 480.89 509.35 478.21 509.19 475.25 C 510.37 471.79 513.61 469.66 516.18 467.30 C 517.43 470.26 518.47 473.31 519.64 476.31 C 521.72 474.58 523.84 472.90 525.99 471.25 C 528.53 473.52 530.94 475.91 533.27 478.40 C 536.25 472.98 540.21 468.17 545.12 464.40 C 546.91 464.95 548.70 465.56 550.50 466.13 C 550.58 463.82 550.53 461.51 550.68 459.21 Z" />
<path fill="#ffffff" opacity="1.00" d=" M 495.37 554.39 C 497.18 551.64 499.18 548.90 502.17 547.34 C 500.51 552.45 496.81 556.47 493.88 560.87 C 489.10 567.93 484.26 575.04 480.95 582.94 C 476.35 595.10 466.92 604.43 460.24 615.39 C 459.23 612.52 458.53 609.24 460.61 606.64 C 471.44 588.74 483.57 571.66 495.37 554.39 Z" />
<path fill="#ffffff" opacity="1.00" d=" M 493.09 590.09 C 498.08 583.95 501.70 576.69 507.60 571.31 C 507.21 573.95 506.50 576.63 504.58 578.59 C 500.05 583.64 497.69 590.15 493.37 595.35 C 484.93 605.70 480.16 618.78 470.28 627.99 C 470.16 624.63 470.05 620.97 472.16 618.14 C 475.15 613.82 478.62 609.83 481.30 605.30 C 484.59 599.75 489.05 595.07 493.09 590.09 Z" />
<path fill="#ffffff" opacity="1.00" d=" M 455.77 607.60 C 454.47 602.61 458.07 598.33 462.69 596.99 C 461.44 601.10 459.36 605.06 455.77 607.60 Z" />
<path fill="#ffffff" opacity="1.00" d=" M 509.93 612.96 C 512.76 609.25 515.34 605.24 519.06 602.33 C 513.10 616.25 504.86 629.08 496.50 641.68 C 493.86 641.58 491.23 641.56 488.60 641.61 C 495.42 631.85 502.79 622.48 509.93 612.96 Z" />
<path fill="#ffffff" opacity="1.00" d=" M 516.52 620.49 C 519.42 614.93 522.58 609.30 527.17 604.93 C 525.01 610.90 521.29 616.30 516.52 620.49 Z" />
<path fill="#ffffff" opacity="1.00" d=" M 527.73 617.72 C 530.41 613.10 532.90 608.28 536.60 604.38 C 537.80 612.51 532.11 618.90 528.54 625.56 C 526.25 629.29 524.66 633.53 521.62 636.74 C 520.04 636.71 518.46 636.59 516.90 636.50 C 520.26 630.10 524.17 624.01 527.73 617.72 Z" />
<path fill="#ffffff" opacity="1.00" d=" M 576.38 629.29 C 578.37 626.40 582.29 628.57 585.06 628.72 C 580.22 632.08 575.57 635.71 570.83 639.20 C 572.43 635.76 574.35 632.48 576.38 629.29 Z" />
<path fill="#ffffff" opacity="1.00" d=" M 599.14 627.51 C 600.84 627.61 602.54 627.73 604.26 627.88 C 603.71 633.15 599.98 637.06 595.35 639.24 C 595.77 635.10 597.51 631.28 599.14 627.51 Z" />
</g>
<g id="#000000ff">
<path fill="#202738" opacity="1.00" d=" M 396.91 209.94 C 398.13 217.31 398.80 224.80 401.03 231.97 C 403.34 240.53 407.23 248.58 411.91 256.08 C 414.69 260.39 419.22 263.00 422.98 266.32 C 419.92 270.44 413.36 270.56 409.32 267.68 C 411.77 273.43 411.07 280.11 414.41 285.53 C 417.06 290.11 420.07 294.50 423.36 298.64 C 428.54 305.36 435.53 310.30 441.78 315.95 C 436.86 318.38 431.46 319.66 425.98 319.50 C 430.05 322.59 434.15 325.66 438.02 329.02 C 432.39 331.83 425.91 332.40 419.84 330.83 C 424.51 340.71 431.47 349.24 438.36 357.63 C 444.03 364.42 451.60 369.14 458.77 374.15 C 449.51 379.57 437.78 380.35 427.82 376.45 C 431.24 382.14 435.43 387.30 439.32 392.65 C 446.07 401.32 455.64 406.99 464.02 413.87 C 461.21 415.36 458.31 416.66 455.40 417.93 C 458.11 420.45 460.81 422.96 463.50 425.50 C 468.12 429.83 473.75 432.84 478.98 436.34 C 468.65 441.81 456.48 443.60 444.99 441.63 C 449.83 449.66 456.71 456.13 463.01 462.98 C 468.56 469.19 475.28 474.20 482.07 478.97 C 487.36 482.48 492.47 486.29 498.14 489.19 C 493.58 489.43 488.05 490.18 486.05 494.98 C 483.42 499.44 486.33 504.15 488.28 508.21 C 480.39 509.50 472.41 509.53 464.44 509.54 C 467.26 514.93 471.48 519.35 475.35 523.97 C 472.20 526.35 468.49 529.50 469.08 533.91 C 469.15 536.78 471.27 539.71 470.49 542.45 C 466.19 546.97 460.40 549.75 455.44 553.48 C 453.35 555.28 452.31 558.23 452.86 560.95 C 453.52 564.61 455.71 567.71 457.54 570.86 C 455.03 574.91 451.17 578.84 451.80 584.01 C 451.71 587.08 453.96 589.35 455.77 591.55 C 453.01 593.46 449.75 595.17 448.33 598.39 C 446.49 602.09 447.00 606.53 448.98 610.06 C 451.19 614.01 453.15 618.30 456.68 621.27 C 458.84 623.18 462.08 624.22 462.65 627.41 C 464.28 633.26 468.68 638.50 474.93 639.49 C 474.70 642.72 474.61 645.95 474.62 649.19 C 465.31 644.39 457.10 637.82 448.62 631.74 C 448.29 636.74 448.26 641.76 448.35 646.78 C 446.80 647.03 445.26 647.28 443.73 647.54 C 444.77 652.95 446.48 658.19 448.49 663.31 C 435.56 660.44 423.24 654.50 413.10 645.95 C 408.88 642.70 404.91 639.16 401.10 635.45 C 395.41 638.32 389.56 640.93 383.40 642.60 C 379.57 643.52 376.58 646.17 373.51 648.47 C 365.71 654.23 357.43 660.62 347.29 660.96 C 347.46 651.18 348.37 641.28 346.47 631.61 C 339.87 634.09 337.75 641.42 332.29 645.33 C 328.01 648.92 322.59 650.64 317.26 652.00 C 318.06 644.68 317.99 637.23 316.29 630.03 C 306.93 636.80 295.74 641.76 284.01 641.55 C 277.39 641.67 270.89 640.17 264.54 638.50 C 271.00 633.95 278.02 630.25 284.43 625.61 C 281.11 624.83 277.77 624.12 274.47 623.30 C 278.76 619.05 283.46 615.24 287.76 611.00 C 283.48 610.52 279.25 609.66 275.18 608.26 C 279.50 604.55 284.15 601.22 288.28 597.29 C 293.74 591.98 299.77 587.31 305.14 581.90 C 297.62 580.90 290.23 578.85 283.37 575.62 C 282.15 575.07 281.07 574.30 280.13 573.38 C 291.61 565.46 303.71 558.03 313.37 547.84 C 308.94 547.29 304.05 547.92 300.06 545.57 C 309.25 538.68 317.34 530.53 325.78 522.78 C 328.54 520.15 331.17 517.39 333.76 514.60 C 324.90 513.42 315.80 512.35 307.84 507.98 C 311.95 504.91 316.05 501.82 320.21 498.83 C 314.29 498.21 308.44 497.06 302.78 495.22 C 313.72 489.21 323.04 480.64 331.58 471.63 C 335.99 467.17 338.79 461.52 342.37 456.44 C 345.72 451.62 348.62 446.52 351.34 441.32 C 342.05 442.07 332.62 441.81 323.63 439.14 C 327.92 434.90 332.94 431.47 337.07 427.07 C 340.03 423.96 343.15 421.01 346.14 417.93 C 342.67 417.43 339.26 416.65 335.97 415.49 C 342.08 408.77 348.88 402.69 354.55 395.57 C 359.69 389.92 363.18 383.11 367.32 376.76 C 358.34 378.82 348.77 379.47 340.02 376.05 C 346.76 369.10 353.93 362.47 359.62 354.59 C 364.53 346.79 370.37 339.60 374.55 331.35 C 369.53 331.67 364.53 331.21 359.61 330.22 C 362.67 326.15 366.36 322.62 369.64 318.73 C 364.68 318.79 359.73 318.32 354.89 317.23 C 363.49 307.58 372.32 297.98 378.77 286.69 C 380.66 283.16 383.67 279.79 383.52 275.55 C 383.38 273.00 383.92 270.49 384.69 268.07 C 379.45 269.74 373.92 270.07 368.48 269.38 C 371.89 265.17 375.84 261.46 379.53 257.51 C 383.02 253.81 385.33 249.25 387.82 244.87 C 393.86 234.26 396.04 221.97 396.91 209.94 Z" />
</g>
<g id="#010101ff">
<path fill="#202738" opacity="1.00" d=" M 542.05 464.05 C 545.48 462.23 547.78 458.88 551.15 457.05 C 555.08 456.37 560.31 455.17 563.11 458.90 C 565.35 461.70 567.48 464.63 569.16 467.82 C 570.94 471.01 567.95 474.08 566.79 476.93 C 570.66 481.81 574.45 486.78 578.77 491.27 C 581.16 493.88 584.53 495.13 587.68 496.55 C 587.99 499.49 588.02 502.49 588.63 505.40 C 591.27 507.15 594.68 506.62 597.67 507.28 C 601.30 507.73 606.01 509.13 606.69 513.35 C 607.26 519.31 604.35 525.00 604.60 530.97 C 607.88 536.01 612.84 539.79 616.39 544.69 C 619.88 544.41 625.95 542.80 626.20 548.10 C 625.18 554.18 619.93 558.42 617.57 564.00 C 622.71 566.72 628.31 568.58 633.14 571.85 C 635.09 573.02 635.13 575.56 634.53 577.51 C 633.62 580.42 632.04 583.05 630.67 585.76 C 631.79 587.43 634.77 589.00 633.26 591.32 C 630.68 596.59 624.60 598.08 619.53 599.86 C 619.75 605.41 619.84 611.00 619.22 616.54 C 615.65 616.50 612.07 616.45 608.51 616.67 C 611.38 619.59 614.61 622.12 617.63 624.89 C 612.82 629.02 607.57 632.61 602.95 636.95 C 600.30 639.20 597.58 641.92 593.99 642.44 C 588.66 641.87 585.58 635.87 580.28 635.39 C 576.97 637.33 574.40 640.54 570.61 641.61 C 568.86 642.16 567.39 640.75 565.95 640.03 C 562.27 637.59 557.88 636.70 553.84 635.05 C 556.12 628.02 560.76 621.82 561.82 614.40 C 557.94 617.02 556.49 621.63 554.68 625.70 C 553.16 629.13 552.52 632.85 551.32 636.39 C 550.12 639.68 545.57 641.06 545.70 644.95 C 545.48 659.02 544.73 673.09 544.64 687.17 C 542.57 687.53 540.48 687.82 538.37 687.66 C 537.88 681.13 538.56 674.57 538.85 668.04 C 539.65 659.13 539.16 650.18 539.26 641.25 C 536.12 640.25 533.21 638.68 530.08 637.67 C 526.13 638.86 522.15 640.02 517.97 639.79 C 512.92 639.59 511.74 646.47 506.92 647.04 C 503.01 647.03 499.16 646.13 495.30 645.59 C 490.81 644.57 486.10 644.33 481.88 642.35 C 481.24 644.16 480.65 645.99 479.96 647.79 C 479.26 642.34 481.34 637.13 481.96 631.79 C 478.42 632.06 473.98 635.30 471.07 631.97 C 467.34 628.70 467.35 623.48 467.15 618.94 C 465.01 618.71 462.81 618.81 460.75 618.14 C 457.50 615.25 455.72 611.13 453.56 607.45 C 452.26 605.30 451.49 602.34 453.23 600.21 C 455.99 597.09 459.99 595.51 463.41 593.26 C 461.39 590.07 458.60 587.33 457.14 583.82 C 457.03 578.60 462.46 575.20 462.79 570.04 C 461.44 566.13 458.85 562.78 457.32 558.93 C 462.03 555.40 466.86 552.03 471.67 548.66 C 473.88 547.11 476.12 544.90 476.25 542.04 C 475.93 538.68 474.31 535.50 474.55 532.09 C 476.66 528.25 481.67 528.51 485.27 527.03 C 487.98 526.53 488.24 523.39 489.46 521.42 C 491.30 517.35 497.20 515.20 496.40 510.10 C 495.04 506.55 491.91 504.00 490.57 500.44 C 489.99 498.83 490.40 496.86 491.76 495.76 C 494.93 494.14 499.08 495.30 501.91 492.92 C 504.09 490.68 505.94 488.09 507.32 485.29 C 508.88 481.81 506.48 478.35 505.83 474.97 C 506.20 472.47 508.32 470.72 509.93 468.94 C 512.17 466.92 514.41 464.23 517.67 464.09 C 519.23 466.00 520.07 468.36 521.05 470.60 C 522.87 469.60 524.66 468.39 526.77 468.06 C 529.13 469.58 531.03 471.70 533.09 473.61 C 535.34 469.80 538.10 466.21 542.05 464.05 M 550.68 459.21 C 550.53 461.51 550.58 463.82 550.50 466.13 C 548.70 465.56 546.91 464.95 545.12 464.40 C 540.21 468.17 536.25 472.98 533.27 478.40 C 530.94 475.91 528.53 473.52 525.99 471.25 C 523.84 472.90 521.72 474.58 519.64 476.31 C 518.47 473.31 517.43 470.26 516.18 467.30 C 513.61 469.66 510.37 471.79 509.19 475.25 C 509.35 478.21 511.02 480.89 511.03 483.88 C 509.63 487.56 507.22 490.77 504.83 493.86 C 501.87 497.65 496.99 498.72 492.62 499.99 C 495.52 503.90 499.84 507.19 500.82 512.19 C 501.73 516.65 495.96 517.88 494.20 521.24 C 491.86 525.94 491.13 531.30 490.24 536.43 C 489.35 540.04 492.25 543.28 495.43 544.48 C 499.06 545.42 502.88 544.98 506.55 545.70 C 507.90 545.97 509.44 546.82 509.62 548.34 C 510.52 553.82 508.44 559.14 507.53 564.46 C 506.82 567.47 508.77 570.16 509.20 573.05 C 509.49 575.17 509.56 577.31 509.78 579.44 C 513.89 579.02 518.12 577.60 522.24 578.72 C 524.86 580.79 523.36 584.51 523.03 587.26 C 522.18 592.97 518.91 598.93 521.75 604.58 C 525.10 603.15 528.36 601.48 531.27 599.28 C 533.12 598.01 534.85 596.29 537.18 595.98 C 537.65 598.77 537.59 601.70 538.58 604.40 C 539.69 606.84 542.59 607.31 544.99 607.35 C 550.78 607.47 556.30 609.59 562.11 609.51 C 562.65 612.39 563.31 615.26 564.22 618.06 C 569.24 616.73 574.11 613.98 579.47 614.94 C 579.58 618.37 579.56 621.80 579.58 625.24 C 584.25 625.05 589.02 625.38 593.16 627.77 C 597.92 624.87 603.79 625.04 608.51 622.08 C 607.28 619.80 605.93 617.59 604.62 615.36 C 608.56 613.49 612.88 613.08 617.18 613.56 C 617.87 607.98 617.14 602.40 615.55 597.05 C 620.98 595.60 626.90 594.60 631.11 590.54 C 629.50 589.41 627.87 588.33 626.25 587.25 C 628.80 583.33 631.15 579.27 632.93 574.93 C 628.87 572.54 624.60 570.55 620.26 568.75 C 618.17 567.82 615.84 566.97 614.52 564.98 C 616.20 558.47 621.95 554.03 623.70 547.51 C 620.95 547.44 618.17 547.85 615.45 547.40 C 612.11 545.54 610.32 541.92 607.76 539.22 C 605.81 536.85 603.03 535.24 601.36 532.65 C 600.96 527.27 603.27 522.14 603.64 516.81 C 603.72 515.07 604.05 512.75 602.27 511.72 C 598.03 508.33 592.42 510.44 587.58 509.44 C 583.93 507.37 585.54 502.53 585.18 499.13 C 581.23 497.20 577.33 494.91 574.71 491.29 C 571.01 486.43 566.80 481.96 563.34 476.92 C 564.45 474.43 566.26 472.35 567.51 469.94 C 565.61 466.25 562.88 462.98 559.89 460.12 C 557.14 458.58 553.71 459.42 550.68 459.21 M 477.61 534.02 C 477.93 535.77 478.32 537.50 478.73 539.25 C 481.37 536.31 483.74 533.10 485.41 529.49 C 482.58 530.52 479.61 531.65 477.61 534.02 M 475.78 549.77 C 472.22 554.19 467.39 557.27 462.62 560.21 C 463.41 562.16 464.25 564.09 465.09 566.03 C 472.05 558.91 477.95 550.87 483.98 542.97 C 486.91 539.09 488.67 534.42 489.04 529.57 C 483.80 535.75 481.17 543.69 475.78 549.77 M 484.26 546.26 C 479.20 552.55 474.34 559.01 469.43 565.42 C 466.50 568.78 464.87 573.08 465.54 577.57 C 463.80 579.50 459.33 581.55 461.20 584.55 C 461.97 586.66 464.36 587.07 466.25 587.67 C 466.47 585.48 466.24 583.17 467.22 581.14 C 471.62 571.93 477.54 563.58 483.09 555.05 C 485.67 550.96 489.29 547.32 490.11 542.38 C 487.91 543.25 485.68 544.27 484.26 546.26 M 491.52 550.60 C 484.91 560.03 477.77 569.15 472.31 579.33 C 470.07 583.31 467.55 587.23 466.47 591.73 C 472.49 585.76 476.27 578.01 481.22 571.21 C 486.23 563.07 492.63 555.77 496.71 547.09 C 494.78 547.91 492.68 548.73 491.52 550.60 M 495.37 554.39 C 483.57 571.66 471.44 588.74 460.61 606.64 C 458.53 609.24 459.23 612.52 460.24 615.39 C 466.92 604.43 476.35 595.10 480.95 582.94 C 484.26 575.04 489.10 567.93 493.88 560.87 C 496.81 556.47 500.51 552.45 502.17 547.34 C 499.18 548.90 497.18 551.64 495.37 554.39 M 504.08 549.92 C 497.78 558.19 492.38 567.10 486.89 575.92 C 485.38 578.31 484.07 580.83 483.10 583.50 C 485.35 581.59 487.21 579.28 488.81 576.81 C 493.15 570.23 497.46 563.60 502.64 557.64 C 504.83 555.16 506.79 552.50 508.38 549.60 C 506.90 549.46 504.94 548.00 504.08 549.92 M 496.34 570.32 C 488.87 580.85 481.27 591.28 473.86 601.85 C 470.87 606.21 467.23 610.34 465.87 615.58 C 470.81 612.59 473.42 607.26 476.82 602.82 C 483.38 593.98 489.49 584.81 495.74 575.76 C 500.04 569.38 506.78 563.93 507.22 555.68 C 503.08 560.16 499.94 565.42 496.34 570.32 M 495.73 579.72 C 492.78 583.78 489.43 587.65 487.59 592.38 C 491.49 589.32 494.27 585.17 497.22 581.26 C 500.02 577.43 502.89 573.60 504.86 569.27 C 501.10 572.06 498.49 576.01 495.73 579.72 M 493.09 590.09 C 489.05 595.07 484.59 599.75 481.30 605.30 C 478.62 609.83 475.15 613.82 472.16 618.14 C 470.05 620.97 470.16 624.63 470.28 627.99 C 480.16 618.78 484.93 605.70 493.37 595.35 C 497.69 590.15 500.05 583.64 504.58 578.59 C 506.50 576.63 507.21 573.95 507.60 571.31 C 501.70 576.69 498.08 583.95 493.09 590.09 M 502.72 585.27 C 504.62 583.74 506.15 581.80 507.18 579.59 C 505.10 580.95 503.61 582.96 502.72 585.27 M 512.69 583.66 C 510.00 587.40 507.92 591.53 505.33 595.33 C 500.96 602.20 495.08 608.05 491.42 615.39 C 489.21 619.88 486.14 623.87 483.98 628.39 C 488.07 624.85 490.66 620.03 493.67 615.63 C 499.84 606.48 506.14 597.42 512.16 588.17 C 513.76 585.62 515.79 583.35 518.35 581.74 C 516.89 586.09 513.89 589.63 511.37 593.39 C 503.93 604.27 496.57 615.20 489.05 626.02 C 486.30 629.78 483.88 633.90 483.12 638.57 C 487.46 634.28 490.44 628.90 493.98 623.99 C 500.34 614.66 507.38 605.75 512.79 595.80 C 514.57 592.37 517.18 589.51 520.03 586.95 C 521.78 585.57 521.81 583.04 520.87 581.20 C 517.96 579.78 514.43 581.08 512.69 583.66 M 501.20 592.19 C 494.45 601.82 487.24 611.15 481.38 621.38 C 479.31 625.31 475.37 627.64 472.59 631.00 C 475.66 630.45 479.16 629.88 481.13 627.16 C 485.66 621.43 488.77 614.77 492.55 608.56 C 498.32 599.58 506.96 592.15 509.88 581.55 C 506.33 584.52 503.83 588.45 501.20 592.19 M 511.52 602.47 C 506.31 611.10 500.38 619.26 494.36 627.33 C 491.46 631.68 487.85 635.60 485.74 640.43 C 490.04 637.04 492.46 632.02 495.75 627.77 C 500.35 621.72 505.36 615.98 509.76 609.77 C 514.08 603.89 519.70 598.05 519.56 590.22 C 516.27 593.88 514.10 598.32 511.52 602.47 M 455.77 607.60 C 459.36 605.06 461.44 601.10 462.69 596.99 C 458.07 598.33 454.47 602.61 455.77 607.60 M 528.49 608.54 C 524.02 616.19 517.75 622.56 512.98 629.99 C 510.68 634.44 509.05 639.21 507.14 643.83 C 509.40 642.22 511.46 640.28 512.84 637.85 C 518.55 628.23 524.21 618.57 530.15 609.09 C 532.20 605.59 535.60 602.72 536.04 598.46 C 532.09 600.56 530.71 604.98 528.49 608.54 M 509.93 612.96 C 502.79 622.48 495.42 631.85 488.60 641.61 C 491.23 641.56 493.86 641.58 496.50 641.68 C 504.86 629.08 513.10 616.25 519.06 602.33 C 515.34 605.24 512.76 609.25 509.93 612.96 M 516.52 620.49 C 521.29 616.30 525.01 610.90 527.17 604.93 C 522.58 609.30 519.42 614.93 516.52 620.49 M 527.73 617.72 C 524.17 624.01 520.26 630.10 516.90 636.50 C 518.46 636.59 520.04 636.71 521.62 636.74 C 524.66 633.53 526.25 629.29 528.54 625.56 C 532.11 618.90 537.80 612.51 536.60 604.38 C 532.90 608.28 530.41 613.10 527.73 617.72 M 472.63 613.17 C 474.94 611.12 476.76 608.58 478.16 605.83 C 475.74 607.79 473.77 610.26 472.63 613.17 M 512.67 621.42 C 517.24 616.94 520.49 611.22 522.76 605.28 C 517.77 609.41 515.24 615.65 512.67 621.42 M 543.59 613.58 C 540.93 619.82 537.53 625.83 536.05 632.51 C 538.86 629.66 540.76 626.13 542.66 622.67 C 545.17 618.05 548.10 613.64 550.00 608.72 C 547.47 609.71 544.54 610.73 543.59 613.58 M 534.69 621.68 C 532.52 626.00 529.93 630.13 528.46 634.77 C 531.00 633.32 533.62 631.59 534.70 628.73 C 537.29 622.67 540.67 616.79 541.55 610.17 C 538.49 613.50 536.75 617.72 534.69 621.68 M 544.72 623.71 C 542.47 628.00 539.37 631.98 538.14 636.74 C 539.15 637.78 540.36 638.60 541.42 639.60 C 543.61 635.01 545.54 630.31 547.82 625.76 C 550.13 620.81 552.99 616.01 553.92 610.55 C 549.41 613.76 547.51 619.15 544.72 623.71 M 551.79 621.84 C 549.47 627.05 546.06 632.06 546.13 638.00 C 548.83 635.36 549.64 631.56 551.22 628.26 C 553.72 622.32 557.19 616.78 559.01 610.56 C 555.14 613.20 553.72 617.81 551.79 621.84 M 567.58 632.66 C 566.49 634.69 566.93 636.96 567.26 639.13 C 570.78 634.11 573.45 628.56 575.95 622.98 C 576.98 620.99 576.70 618.72 576.40 616.60 C 572.10 621.09 570.06 627.09 567.58 632.66 M 562.46 622.44 C 559.97 626.15 558.17 630.31 557.07 634.64 C 562.63 631.50 565.28 625.33 567.90 619.83 C 565.97 620.39 563.55 620.46 562.46 622.44 M 510.91 626.39 C 513.21 624.91 515.17 622.93 516.50 620.52 C 514.19 622.00 512.31 624.04 510.91 626.39 M 609.66 624.69 C 606.99 625.70 606.53 628.80 605.81 631.19 C 609.07 629.53 611.95 627.24 614.43 624.56 C 612.83 624.52 611.23 624.38 609.66 624.69 M 562.87 635.42 C 565.30 632.55 567.08 629.18 568.10 625.57 C 565.61 628.39 563.88 631.80 562.87 635.42 M 576.38 629.29 C 574.35 632.48 572.43 635.76 570.83 639.20 C 575.57 635.71 580.22 632.08 585.06 628.72 C 582.29 628.57 578.37 626.40 576.38 629.29 M 585.12 633.77 C 587.05 636.67 590.19 638.39 593.06 640.22 C 592.24 635.66 592.14 630.38 587.88 627.53 C 586.80 629.53 585.55 631.50 585.12 633.77 M 599.14 627.51 C 597.51 631.28 595.77 635.10 595.35 639.24 C 599.98 637.06 603.71 633.15 604.26 627.88 C 602.54 627.73 600.84 627.61 599.14 627.51 M 504.75 638.13 C 501.44 637.88 500.20 640.80 499.21 643.44 C 505.90 643.76 509.90 636.11 509.19 630.16 C 507.45 632.66 506.10 635.40 504.75 638.13 Z" />
</g>
<g id="#fefefeff">
<path fill="#fefefe" opacity="1.00" d=" M 477.61 534.02 C 479.61 531.65 482.58 530.52 485.41 529.49 C 483.74 533.10 481.37 536.31 478.73 539.25 C 478.32 537.50 477.93 535.77 477.61 534.02 Z" />
<path fill="#fefefe" opacity="1.00" d=" M 475.78 549.77 C 481.17 543.69 483.80 535.75 489.04 529.57 C 488.67 534.42 486.91 539.09 483.98 542.97 C 477.95 550.87 472.05 558.91 465.09 566.03 C 464.25 564.09 463.41 562.16 462.62 560.21 C 467.39 557.27 472.22 554.19 475.78 549.77 Z" />
<path fill="#fefefe" opacity="1.00" d=" M 484.26 546.26 C 485.68 544.27 487.91 543.25 490.11 542.38 C 489.29 547.32 485.67 550.96 483.09 555.05 C 477.54 563.58 471.62 571.93 467.22 581.14 C 466.24 583.17 466.47 585.48 466.25 587.67 C 464.36 587.07 461.97 586.66 461.20 584.55 C 459.33 581.55 463.80 579.50 465.54 577.57 C 464.87 573.08 466.50 568.78 469.43 565.42 C 474.34 559.01 479.20 552.55 484.26 546.26 Z" />
<path fill="#fefefe" opacity="1.00" d=" M 491.52 550.60 C 492.68 548.73 494.78 547.91 496.71 547.09 C 492.63 555.77 486.23 563.07 481.22 571.21 C 476.27 578.01 472.49 585.76 466.47 591.73 C 467.55 587.23 470.07 583.31 472.31 579.33 C 477.77 569.15 484.91 560.03 491.52 550.60 Z" />
<path fill="#fefefe" opacity="1.00" d=" M 511.52 602.47 C 514.10 598.32 516.27 593.88 519.56 590.22 C 519.70 598.05 514.08 603.89 509.76 609.77 C 505.36 615.98 500.35 621.72 495.75 627.77 C 492.46 632.02 490.04 637.04 485.74 640.43 C 487.85 635.60 491.46 631.68 494.36 627.33 C 500.38 619.26 506.31 611.10 511.52 602.47 Z" />
<path fill="#fefefe" opacity="1.00" d=" M 528.49 608.54 C 530.71 604.98 532.09 600.56 536.04 598.46 C 535.60 602.72 532.20 605.59 530.15 609.09 C 524.21 618.57 518.55 628.23 512.84 637.85 C 511.46 640.28 509.40 642.22 507.14 643.83 C 509.05 639.21 510.68 634.44 512.98 629.99 C 517.75 622.56 524.02 616.19 528.49 608.54 Z" />
<path fill="#fefefe" opacity="1.00" d=" M 543.59 613.58 C 544.54 610.73 547.47 609.71 550.00 608.72 C 548.10 613.64 545.17 618.05 542.66 622.67 C 540.76 626.13 538.86 629.66 536.05 632.51 C 537.53 625.83 540.93 619.82 543.59 613.58 Z" />
<path fill="#fefefe" opacity="1.00" d=" M 544.72 623.71 C 547.51 619.15 549.41 613.76 553.92 610.55 C 552.99 616.01 550.13 620.81 547.82 625.76 C 545.54 630.31 543.61 635.01 541.42 639.60 C 540.36 638.60 539.15 637.78 538.14 636.74 C 539.37 631.98 542.47 628.00 544.72 623.71 Z" />
<path fill="#fefefe" opacity="1.00" d=" M 585.12 633.77 C 585.55 631.50 586.80 629.53 587.88 627.53 C 592.14 630.38 592.24 635.66 593.06 640.22 C 590.19 638.39 587.05 636.67 585.12 633.77 Z" />
<path fill="#fefefe" opacity="1.00" d=" M 504.75 638.13 C 506.10 635.40 507.45 632.66 509.19 630.16 C 509.90 636.11 505.90 643.76 499.21 643.44 C 500.20 640.80 501.44 637.88 504.75 638.13 Z" />
</g>
<g id="#fdfdfdff">
<path fill="#fdfdfd" opacity="1.00" d=" M 504.08 549.92 C 504.94 548.00 506.90 549.46 508.38 549.60 C 506.79 552.50 504.83 555.16 502.64 557.64 C 497.46 563.60 493.15 570.23 488.81 576.81 C 487.21 579.28 485.35 581.59 483.10 583.50 C 484.07 580.83 485.38 578.31 486.89 575.92 C 492.38 567.10 497.78 558.19 504.08 549.92 Z" />
<path fill="#fdfdfd" opacity="1.00" d=" M 496.34 570.32 C 499.94 565.42 503.08 560.16 507.22 555.68 C 506.78 563.93 500.04 569.38 495.74 575.76 C 489.49 584.81 483.38 593.98 476.82 602.82 C 473.42 607.26 470.81 612.59 465.87 615.58 C 467.23 610.34 470.87 606.21 473.86 601.85 C 481.27 591.28 488.87 580.85 496.34 570.32 Z" />
<path fill="#fdfdfd" opacity="1.00" d=" M 502.72 585.27 C 503.61 582.96 505.10 580.95 507.18 579.59 C 506.15 581.80 504.62 583.74 502.72 585.27 Z" />
<path fill="#fdfdfd" opacity="1.00" d=" M 512.69 583.66 C 514.43 581.08 517.96 579.78 520.87 581.20 C 521.81 583.04 521.78 585.57 520.03 586.95 C 517.18 589.51 514.57 592.37 512.79 595.80 C 507.38 605.75 500.34 614.66 493.98 623.99 C 490.44 628.90 487.46 634.28 483.12 638.57 C 483.88 633.90 486.30 629.78 489.05 626.02 C 496.57 615.20 503.93 604.27 511.37 593.39 C 513.89 589.63 516.89 586.09 518.35 581.74 C 515.79 583.35 513.76 585.62 512.16 588.17 C 506.14 597.42 499.84 606.48 493.67 615.63 C 490.66 620.03 488.07 624.85 483.98 628.39 C 486.14 623.87 489.21 619.88 491.42 615.39 C 495.08 608.05 500.96 602.20 505.33 595.33 C 507.92 591.53 510.00 587.40 512.69 583.66 Z" />
<path fill="#fdfdfd" opacity="1.00" d=" M 501.20 592.19 C 503.83 588.45 506.33 584.52 509.88 581.55 C 506.96 592.15 498.32 599.58 492.55 608.56 C 488.77 614.77 485.66 621.43 481.13 627.16 C 479.16 629.88 475.66 630.45 472.59 631.00 C 475.37 627.64 479.31 625.31 481.38 621.38 C 487.24 611.15 494.45 601.82 501.20 592.19 Z" />
<path fill="#fdfdfd" opacity="1.00" d=" M 551.79 621.84 C 553.72 617.81 555.14 613.20 559.01 610.56 C 557.19 616.78 553.72 622.32 551.22 628.26 C 549.64 631.56 548.83 635.36 546.13 638.00 C 546.06 632.06 549.47 627.05 551.79 621.84 Z" />
<path fill="#fdfdfd" opacity="1.00" d=" M 567.58 632.66 C 570.06 627.09 572.10 621.09 576.40 616.60 C 576.70 618.72 576.98 620.99 575.95 622.98 C 573.45 628.56 570.78 634.11 567.26 639.13 C 566.93 636.96 566.49 634.69 567.58 632.66 Z" />
<path fill="#fdfdfd" opacity="1.00" d=" M 562.46 622.44 C 563.55 620.46 565.97 620.39 567.90 619.83 C 565.28 625.33 562.63 631.50 557.07 634.64 C 558.17 630.31 559.97 626.15 562.46 622.44 Z" />
<path fill="#fdfdfd" opacity="1.00" d=" M 609.66 624.69 C 611.23 624.38 612.83 624.52 614.43 624.56 C 611.95 627.24 609.07 629.53 605.81 631.19 C 606.53 628.80 606.99 625.70 609.66 624.69 Z" />
</g>
<g id="#fcfcfcff">
<path fill="#fefefe" opacity="1.00" d=" M 495.73 579.72 C 498.49 576.01 501.10 572.06 504.86 569.27 C 502.89 573.60 500.02 577.43 497.22 581.26 C 494.27 585.17 491.49 589.32 487.59 592.38 C 489.43 587.65 492.78 583.78 495.73 579.72 Z" />
<path fill="#fefefe" opacity="1.00" d=" M 472.63 613.17 C 473.77 610.26 475.74 607.79 478.16 605.83 C 476.76 608.58 474.94 611.12 472.63 613.17 Z" />
<path fill="#fefefe" opacity="1.00" d=" M 512.67 621.42 C 515.24 615.65 517.77 609.41 522.76 605.28 C 520.49 611.22 517.24 616.94 512.67 621.42 Z" />
<path fill="#fefefe" opacity="1.00" d=" M 534.69 621.68 C 536.75 617.72 538.49 613.50 541.55 610.17 C 540.67 616.79 537.29 622.67 534.70 628.73 C 533.62 631.59 531.00 633.32 528.46 634.77 C 529.93 630.13 532.52 626.00 534.69 621.68 Z" />
<path fill="#fefefe" opacity="1.00" d=" M 510.91 626.39 C 512.31 624.04 514.19 622.00 516.50 620.52 C 515.17 622.93 513.21 624.91 510.91 626.39 Z" />
<path fill="#fefefe" opacity="1.00" d=" M 562.87 635.42 C 563.88 631.80 565.61 628.39 568.10 625.57 C 567.08 629.18 565.30 632.55 562.87 635.42 Z" />
</g>
</svg>
